<?xml version="1.0" encoding="UTF-8"?>
<!--Generator: Apple Native CoreSVG 232.5-->
<!DOCTYPE svg
PUBLIC "-//W3C//DTD SVG 1.1//EN"
       "http://www.w3.org/Graphics/SVG/1.1/DTD/svg11.dtd">
<svg version="1.1" xmlns="http://www.w3.org/2000/svg" xmlns:xlink="http://www.w3.org/1999/xlink" width="60.6641" height="43.3398">
 <g>
  <rect height="43.3398" opacity="0" width="60.6641" x="0" y="0"/>
  <path d="M16.6406 0.175781C9.02344 0.117188 0 7.75391 0 15.0195C0 21.0352 5.97656 25.8398 10.957 25.8008C17.8125 25.7617 27.207 17.793 27.207 11.2305C27.207 4.90234 22.3438 0.214844 16.6406 0.175781ZM8.61328 22.4219C7.22656 22.4219 5.09766 20.7031 3.78906 18.5547C2.46094 16.3672 2.51953 14.668 3.90625 14.668C5.25391 14.668 7.40234 16.3672 8.71094 18.5547C10.0195 20.7031 9.96094 22.4219 8.61328 22.4219ZM15.5078 11.3672C14.7656 10.332 15.0195 8.86719 16.0547 8.125L19.5312 5.60547C20.5664 4.84375 22.0312 5.09766 22.7539 6.17188C23.5742 7.24609 23.3398 8.65234 22.2656 9.43359L18.7891 11.8945C17.6953 12.6758 16.2305 12.4609 15.5078 11.3672ZM17.9102 43.3398L20.9961 43.3398C22.4805 43.3398 23.3789 42.5781 23.3789 41.1719L23.3789 22.5391C21.0547 24.6484 18.3008 26.3477 15.5078 27.2656L15.5078 41.1719C15.5078 42.5781 16.4258 43.3398 17.9102 43.3398ZM43.6523 0.175781C37.9297 0.214844 33.0859 4.90234 33.0859 11.2305C33.0859 17.793 42.4609 25.7617 49.3359 25.8008C54.2969 25.8398 60.293 21.0352 60.293 15.0195C60.293 7.75391 51.25 0.117188 43.6523 0.175781ZM51.6602 22.4219C50.332 22.4219 50.2539 20.7031 51.582 18.5547C52.8906 16.3672 55.0391 14.668 56.3867 14.668C57.7539 14.668 57.8125 16.3672 56.5039 18.5547C55.1953 20.7031 53.0469 22.4219 51.6602 22.4219ZM44.7852 11.3672C44.043 12.4609 42.5977 12.6758 41.5039 11.8945L38.0273 9.43359C36.9336 8.65234 36.7188 7.24609 37.5391 6.17188C38.2422 5.09766 39.707 4.84375 40.7617 5.60547L44.2188 8.125C45.2734 8.86719 45.5273 10.332 44.7852 11.3672ZM42.3633 43.3398C43.8477 43.3398 44.7656 42.5781 44.7656 41.1719L44.7656 27.2656C41.9727 26.3477 39.2188 24.6484 36.8945 22.5391L36.8945 41.1719C36.8945 42.5781 37.8125 43.3398 39.2773 43.3398Z" fill="#000000" fill-opacity="0.85"/>
 </g>
</svg>
