<?xml version="1.0" encoding="UTF-8"?>
<!--Generator: Apple Native CoreSVG 232.5-->
<!DOCTYPE svg
PUBLIC "-//W3C//DTD SVG 1.1//EN"
       "http://www.w3.org/Graphics/SVG/1.1/DTD/svg11.dtd">
<svg version="1.1" xmlns="http://www.w3.org/2000/svg" xmlns:xlink="http://www.w3.org/1999/xlink" width="59.6289" height="51.582">
 <g>
  <rect height="51.582" opacity="0" width="59.6289" x="0" y="0"/>
  <path d="M4.60938 32.1484C3.82812 32.1484 3.45703 31.8164 3.45703 30.9766L3.45703 6.89453C3.45703 5.80078 4.14062 5.11719 5.23438 5.11719L54.0234 5.11719C55.1172 5.11719 55.8008 5.80078 55.8008 6.89453L55.8008 30.9766C55.8008 31.8164 55.4297 32.1484 54.6484 32.1484Z" fill="#000000" fill-opacity="0.2125"/>
  <path d="M5.15625 42.8516L54.1016 42.8516C57.3047 42.8516 59.2578 40.8984 59.2578 37.6953L59.2578 6.81641C59.2578 3.61328 57.3047 1.66016 54.1016 1.66016L5.15625 1.66016C1.95312 1.66016 0 3.61328 0 6.81641L0 37.6953C0 40.8984 1.95312 42.8516 5.15625 42.8516ZM4.60938 32.1484C3.82812 32.1484 3.45703 31.8164 3.45703 30.9766L3.45703 6.89453C3.45703 5.80078 4.14062 5.11719 5.23438 5.11719L54.0234 5.11719C55.1172 5.11719 55.8008 5.80078 55.8008 6.89453L55.8008 30.9766C55.8008 31.8164 55.4297 32.1484 54.6484 32.1484ZM21.8164 49.082L37.4414 49.082L37.4414 42.5391L21.8164 42.5391ZM21.5625 51.582L37.6953 51.582C38.6523 51.582 39.4336 50.8203 39.4336 49.8633C39.4336 48.8867 38.6523 48.1055 37.6953 48.1055L21.5625 48.1055C20.6055 48.1055 19.8242 48.8867 19.8242 49.8633C19.8242 50.8203 20.6055 51.582 21.5625 51.582Z" fill="#000000" fill-opacity="0.85"/>
 </g>
</svg>
