<?xml version="1.0" encoding="UTF-8"?>
<!--Generator: Apple Native CoreSVG 232.5-->
<!DOCTYPE svg
PUBLIC "-//W3C//DTD SVG 1.1//EN"
       "http://www.w3.org/Graphics/SVG/1.1/DTD/svg11.dtd">
<svg version="1.1" xmlns="http://www.w3.org/2000/svg" xmlns:xlink="http://www.w3.org/1999/xlink" width="21.7393" height="48.1445">
 <g>
  <rect height="48.1445" opacity="0" width="21.7393" x="0" y="0"/>
  <path d="M10.5669 19.8633C15.6255 19.7852 18.9849 16.8359 20.6255 14.2969C21.1333 13.5352 21.3677 12.7148 21.3677 11.7578L21.3677 8.08594C21.3677 7.16797 21.1529 6.32812 20.6255 5.54688C18.9458 3.02734 15.6255 0 10.5669 0C4.82474 0 0.0591157 4.47266 0.000521945 9.90234C-0.0580718 15.3906 4.82474 19.9023 10.5669 19.8633ZM16.9536 13.75C16.3286 13.75 15.8404 13.2617 15.8404 12.6172L15.8404 7.20703C15.8404 6.58203 16.3286 6.11328 16.9536 6.11328C17.5982 6.11328 18.0669 6.58203 18.0669 7.20703L18.0669 12.6172C18.0669 13.2617 17.5982 13.75 16.9536 13.75ZM9.18021 40.0977L9.18021 22.1094C6.68021 21.875 4.33646 20.918 2.44193 19.4727L2.44193 40.0977ZM6.87552 48.0664C8.28177 48.0664 9.18021 47.3438 9.18021 45.9961L9.18021 42.5L2.44193 42.5L2.44193 45.9961C2.44193 47.3438 3.32083 48.0664 4.76615 48.0664Z" fill="#000000" fill-opacity="0.85"/>
 </g>
</svg>
