<?xml version="1.0" encoding="utf-8"?>
<!-- Generator: Adobe Illustrator 28.1.0, SVG Export Plug-In . SVG Version: 6.00 Build 0)  -->
<svg version="1.1" id="图层_1" xmlns="http://www.w3.org/2000/svg" xmlns:xlink="http://www.w3.org/1999/xlink" x="0px" y="0px"
	 viewBox="0 0 73.6 33.2" style="enable-background:new 0 0 73.6 33.2;" xml:space="preserve">
<style type="text/css">
	.st0{opacity:0;}
</style>
<g>
	<rect class="st0" width="73.6" height="33.2"/>
	<path d="M13.1,33.2h39.3c4.5,0,7.9-0.5,10.3-2.9c2.4-2.4,2.9-5.8,2.9-10.2v-7c0-4.5-0.4-7.8-2.9-10.3C60.3,0.5,56.9,0,52.4,0H13
		C8.7,0,5.3,0.5,2.9,2.9C0.4,5.3,0,8.7,0,13v7.1c0,4.5,0.4,7.8,2.9,10.2C5.3,32.8,8.7,33.2,13.1,33.2z M68.7,22.9
		c1.9-0.1,4.5-2.6,4.5-6.3s-2.6-6.2-4.5-6.3V22.9z"/>
</g>
</svg>
