<?xml version="1.0" encoding="UTF-8"?>
<!--Generator: Apple Native CoreSVG 232.5-->
<!DOCTYPE svg
PUBLIC "-//W3C//DTD SVG 1.1//EN"
       "http://www.w3.org/Graphics/SVG/1.1/DTD/svg11.dtd">
<svg version="1.1" xmlns="http://www.w3.org/2000/svg" xmlns:xlink="http://www.w3.org/1999/xlink" width="51.0352" height="52.6758">
 <g>
  <rect height="52.6758" opacity="0" width="51.0352" x="0" y="0"/>
  <path d="M0 27.2656C0 34.8242 2.1875 43.125 5.85938 49.5703C6.38672 50.4883 7.40234 50.7422 8.35938 50.2148C9.27734 49.707 9.51172 48.7109 8.94531 47.6953C5.54688 41.5039 3.63281 34.1016 3.63281 27.2656C3.63281 13.1055 12.3242 3.63281 25.332 3.63281C38.3203 3.63281 47.0312 13.1055 47.0312 27.2656C47.0312 34.1016 45.0977 41.5039 41.6992 47.6953C41.1328 48.7109 41.3867 49.707 42.2852 50.2148C43.2422 50.7422 44.2578 50.4883 44.7852 49.5703C48.457 43.125 50.6641 34.8242 50.6641 27.2656C50.6641 10.8594 40.5859 0 25.332 0C10.0586 0 0 10.8594 0 27.2656ZM7.34375 48.9258C8.16406 51.6406 10.4492 52.8711 13.2031 52.0703C15.918 51.2695 17.1875 48.9258 16.3672 46.1914L12.6953 33.9258C11.875 31.2109 9.60938 29.9805 6.83594 30.7812C4.12109 31.582 2.85156 33.9062 3.67188 36.6406ZM43.3008 48.9258L46.9727 36.6406C47.793 33.8867 46.5234 31.582 43.8086 30.7812C41.0547 29.9805 38.7695 31.2109 37.9688 33.9258L34.2773 46.1914C33.457 48.9453 34.7266 51.2695 37.4414 52.0703C40.2148 52.8711 42.4805 51.6406 43.3008 48.9258Z" fill="#000000" fill-opacity="0.85"/>
 </g>
</svg>
