<?xml version="1.0" encoding="UTF-8"?>
<!--Generator: Apple Native CoreSVG 232.5-->
<!DOCTYPE svg
PUBLIC "-//W3C//DTD SVG 1.1//EN"
       "http://www.w3.org/Graphics/SVG/1.1/DTD/svg11.dtd">
<svg version="1.1" xmlns="http://www.w3.org/2000/svg" xmlns:xlink="http://www.w3.org/1999/xlink" width="37.0508" height="48.6153">
 <g>
  <rect height="48.6153" opacity="0" width="37.0508" x="0" y="0"/>
  <path d="M25.293 44.0245C25.293 45.4307 24.375 46.1924 22.9102 46.1924L20.918 46.1924C19.4531 46.1924 18.5156 45.4307 18.5156 44.0245L18.5156 28.6986C21.3907 28.4785 23.5159 27.9938 25.293 27.3269Z" fill="#000000" fill-opacity="0.85"/>
  <path d="M34.3359 12.2471C34.3359 17.7159 31.0547 21.6221 26.8164 23.9659C25.0305 24.9597 23.0746 25.7092 19.9815 26.0878C20.4695 24.9311 20.7422 23.5955 20.7422 22.0909C20.7422 17.0833 16.6543 12.0756 11.0147 11.1929C11.483 10.2689 11.9783 9.50222 12.3242 9.06351C15.3711 4.53226 20.1953 2.3643 24.5312 2.42289C30.0195 2.48148 34.3359 6.1143 34.3359 12.2471ZM27.7148 8.00883L24.1406 11.0166C23.6523 11.4268 23.5742 12.1299 23.9844 12.5987C24.375 13.1065 25.0977 13.1455 25.5664 12.7549L29.1797 9.74711C29.668 9.33695 29.6875 8.63383 29.2773 8.16508C28.9062 7.65726 28.2031 7.59867 27.7148 8.00883Z" fill="#000000" fill-opacity="0.85"/>
  <path d="M11.2695 29.1807C15.1562 29.1807 18.418 26.7588 18.418 22.0909C18.418 17.794 14.4336 13.3799 9.21875 13.3799C4.90234 13.3799 2.32422 16.7393 2.32422 20.3721C2.32422 25.6065 6.77734 29.1807 11.2695 29.1807ZM10.0781 25.5674C9.375 26.1729 8.18359 25.5479 6.73828 23.7901C5.33203 22.0713 4.94141 20.8409 5.625 20.2354C6.34766 19.6299 7.5 20.2354 8.96484 21.9932C10.3711 23.7705 10.7617 24.9815 10.0781 25.5674Z" fill="#000000" fill-opacity="0.425"/>
 </g>
</svg>
