<?xml version="1.0" encoding="UTF-8"?>
<!--Generator: Apple Native CoreSVG 232.5-->
<!DOCTYPE svg
PUBLIC "-//W3C//DTD SVG 1.1//EN"
       "http://www.w3.org/Graphics/SVG/1.1/DTD/svg11.dtd">
<svg version="1.1" xmlns="http://www.w3.org/2000/svg" xmlns:xlink="http://www.w3.org/1999/xlink" width="40.7031" height="49.4336">
 <g>
  <rect height="49.4336" opacity="0" width="40.7031" x="0" y="0"/>
  <path d="M12.3828 49.3945L27.9492 49.3945C36.2891 49.3945 40.332 45.3516 40.332 37.0117L40.332 16.3086L29.7852 16.3086C29.3945 17.3242 28.3789 18.0273 27.0898 18.0273L13.2227 18.0273C12.0117 18.0273 10.957 17.3242 10.5664 16.3086L0 16.3086L0 37.0117C0 45.3516 4.04297 49.3945 12.3828 49.3945ZM0 14.043L10.5664 14.043C10.957 13.0273 12.0117 12.3438 13.2227 12.3438L27.0898 12.3438C28.3789 12.3438 29.3945 13.0273 29.7852 14.043L40.332 14.043L40.332 12.3828C40.332 4.04297 36.2891 0 27.9492 0L12.3828 0C4.04297 0 0 4.04297 0 12.3828Z" fill="#000000" fill-opacity="0.85"/>
 </g>
</svg>
