<?xml version="1.0" encoding="UTF-8"?>
<!--Generator: Apple Native CoreSVG 232.5-->
<!DOCTYPE svg
PUBLIC "-//W3C//DTD SVG 1.1//EN"
       "http://www.w3.org/Graphics/SVG/1.1/DTD/svg11.dtd">
<svg version="1.1" xmlns="http://www.w3.org/2000/svg" xmlns:xlink="http://www.w3.org/1999/xlink" width="30.234" height="51.1727">
 <g>
  <rect height="51.1727" opacity="0" width="30.234" x="0" y="0"/>
  <path d="M2.64571 43.4404L2.64571 7.71875L27.2037 7.71875L27.2037 43.4404ZM14.957 48.9022C13.8713 48.9022 12.9883 47.9996 12.9883 46.9199C12.9883 45.8342 13.8713 44.9707 14.957 44.9707C16.0367 44.9707 16.9137 45.8342 16.9137 46.9199C16.9137 47.9996 16.0367 48.9022 14.957 48.9022ZM10.8584 3.97793C10.8584 3.51113 11.1857 3.18379 11.6465 3.18379L18.2299 3.18379C18.6772 3.18379 19.018 3.51113 19.018 3.97793C19.018 4.43867 18.6772 4.76602 18.2299 4.76602L11.6465 4.76602C11.1857 4.76602 10.8584 4.43867 10.8584 3.97793Z" fill="#000000" fill-opacity="0.2125"/>
  <path d="M0 44.8895C0 48.8408 2.36016 51.1592 6.39375 51.1592L23.4557 51.1592C27.4893 51.1592 29.8629 48.8408 29.8629 44.8895L29.8629 6.26973C29.8629 2.31836 27.4893 0 23.4557 0L6.39375 0C2.36016 0 0 2.31836 0 6.26973ZM2.64571 43.4404L2.64571 7.71875L27.2037 7.71875L27.2037 43.4404ZM14.957 48.9022C13.8713 48.9022 12.9883 47.9996 12.9883 46.9199C12.9883 45.8342 13.8713 44.9707 14.957 44.9707C16.0367 44.9707 16.9137 45.8342 16.9137 46.9199C16.9137 47.9996 16.0367 48.9022 14.957 48.9022ZM10.8584 3.97793C10.8584 3.51113 11.1857 3.18379 11.6465 3.18379L18.2299 3.18379C18.6772 3.18379 19.018 3.51113 19.018 3.97793C19.018 4.43867 18.6772 4.76602 18.2299 4.76602L11.6465 4.76602C11.1857 4.76602 10.8584 4.43867 10.8584 3.97793Z" fill="#000000" fill-opacity="0.85"/>
 </g>
</svg>
