<?xml version="1.0" encoding="UTF-8"?>
<!--Generator: Apple Native CoreSVG 232.5-->
<!DOCTYPE svg
PUBLIC "-//W3C//DTD SVG 1.1//EN"
       "http://www.w3.org/Graphics/SVG/1.1/DTD/svg11.dtd">
<svg version="1.1" xmlns="http://www.w3.org/2000/svg" xmlns:xlink="http://www.w3.org/1999/xlink" width="30.234" height="51.1727">
 <g>
  <rect height="51.1727" opacity="0" width="30.234" x="0" y="0"/>
  <path d="M6.69024 48.5061C3.96837 48.5061 2.64571 47.2164 2.64571 44.5619L2.64571 6.58985C2.64571 3.9293 3.96837 2.64571 6.69024 2.64571L23.1727 2.64571C25.8811 2.64571 27.2037 3.9293 27.2037 6.58985L27.2037 44.5619C27.2037 47.2164 25.8811 48.5061 23.1727 48.5061Z" fill="#000000" fill-opacity="0.2125"/>
  <path d="M6.39375 51.1518L23.4557 51.1518C27.4893 51.1518 29.8629 48.8274 29.8629 44.876L29.8629 6.26973C29.8629 2.31836 27.4893 0 23.4557 0L6.39375 0C2.36016 0 0 2.31836 0 6.26973L0 44.876C0 48.8274 2.36016 51.1518 6.39375 51.1518ZM6.69024 48.5061C3.96837 48.5061 2.64571 47.2164 2.64571 44.5619L2.64571 6.58985C2.64571 3.9293 3.96837 2.64571 6.69024 2.64571L23.1727 2.64571C25.8811 2.64571 27.2037 3.9293 27.2037 6.58985L27.2037 44.5619C27.2037 47.2164 25.8811 48.5061 23.1727 48.5061ZM9.767 46.7684L20.0959 46.7684C20.618 46.7684 20.9992 46.3871 20.9992 45.865C20.9992 45.343 20.618 44.9617 20.0959 44.9617L9.767 44.9617C9.25235 44.9617 8.86368 45.343 8.86368 45.865C8.86368 46.3871 9.25235 46.7684 9.767 46.7684ZM12.0475 6.91232L17.8229 6.91232C18.6002 6.91232 19.1883 6.33028 19.1883 5.53946C19.1883 4.77559 18.6002 4.18751 17.8229 4.18751L12.0475 4.18751C11.2566 4.18751 10.6746 4.77559 10.6746 5.53946C10.6746 6.33028 11.2566 6.91232 12.0475 6.91232Z" fill="#000000" fill-opacity="0.85"/>
 </g>
</svg>
