<?xml version="1.0" encoding="UTF-8"?>
<!--Generator: Apple Native CoreSVG 326-->
<!DOCTYPE svg
PUBLIC "-//W3C//DTD SVG 1.1//EN"
       "http://www.w3.org/Graphics/SVG/1.1/DTD/svg11.dtd">
<svg version="1.1" xmlns="http://www.w3.org/2000/svg" xmlns:xlink="http://www.w3.org/1999/xlink" viewBox="0 0 51.25 50.918">
 <g>
  <rect height="50.918" opacity="0" width="51.25" x="0" y="0"/>
  <path d="M50.8789 25.4688C50.8789 39.4922 39.4531 50.918 25.4297 50.918C11.4258 50.918 0 39.4922 0 25.4688C0 11.4648 11.4258 0.0390625 25.4297 0.0390625C39.4531 0.0390625 50.8789 11.4648 50.8789 25.4688ZM18.5742 11.4453C17.7148 11.4453 17.1289 11.9922 17.1289 12.7539C17.1289 13.1641 17.3438 13.6328 17.6953 14.1211C18.4375 15.0195 19.9805 16.2109 21.6992 17.207L21.2695 23.457C17.5586 24.7461 15.3125 27.6953 15.3125 30.5273C15.3125 31.582 16.0156 32.2461 17.0898 32.2461L24.0234 32.2461L24.0234 37.2852C24.0234 39.8047 25 41.9336 25.4492 41.9336C25.8789 41.9336 26.875 39.8047 26.875 37.2852L26.875 32.2461L33.7891 32.2461C34.8828 32.2461 35.5859 31.582 35.5859 30.5273C35.5859 27.6953 33.3203 24.7461 29.6289 23.457L29.1992 17.207C30.9375 16.1914 32.5195 15 33.2422 14.0625C33.5742 13.6133 33.7695 13.1445 33.7695 12.7539C33.7695 11.9922 33.2031 11.4453 32.3047 11.4453Z" fill="black" fill-opacity="0.85"/>
 </g>
</svg>
