<?xml version="1.0" encoding="UTF-8"?>
<!--Generator: Apple Native CoreSVG 232.5-->
<!DOCTYPE svg
PUBLIC "-//W3C//DTD SVG 1.1//EN"
       "http://www.w3.org/Graphics/SVG/1.1/DTD/svg11.dtd">
<svg version="1.1" xmlns="http://www.w3.org/2000/svg" xmlns:xlink="http://www.w3.org/1999/xlink" width="21.7383" height="48.1445">
 <g>
  <rect height="48.1445" opacity="0" width="21.7383" x="0" y="0"/>
  <path d="M10.7812 19.8633C16.543 19.9023 21.4258 15.3906 21.3672 9.90234C21.3086 4.47266 16.543 0 10.7812 0C5.74219 0 2.42188 3.02734 0.722656 5.54688C0.214844 6.32812 0 7.16797 0 8.08594L0 11.7578C0 12.7148 0.234375 13.5352 0.722656 14.2969C2.38281 16.8359 5.74219 19.7852 10.7812 19.8633ZM4.39453 13.75C3.76953 13.75 3.28125 13.2617 3.28125 12.6172L3.28125 7.20703C3.28125 6.58203 3.76953 6.11328 4.39453 6.11328C5.03906 6.11328 5.52734 6.58203 5.52734 7.20703L5.52734 12.6172C5.52734 13.2617 5.03906 13.75 4.39453 13.75ZM12.168 40.0977L18.9062 40.0977L18.9062 19.4727C17.0312 20.918 14.6875 21.875 12.168 22.1094ZM14.4727 48.0664L16.6016 48.0664C18.0469 48.0664 18.9062 47.3438 18.9062 45.9961L18.9062 42.5L12.168 42.5L12.168 45.9961C12.168 47.3438 13.0664 48.0664 14.4727 48.0664Z" fill="#000000" fill-opacity="0.85"/>
 </g>
</svg>
