<?xml version="1.0" encoding="UTF-8"?>
<svg id="a" data-name="图层 1" xmlns="http://www.w3.org/2000/svg" viewBox="0 0 51.641 44.473">
  <rect width="51.641" height="44.473" style="opacity: 0; stroke-width: 0px;"/>
  <g style="opacity: .85;">
    <path d="M15.961,44.453h19.348c10.039,0,14.961-4.883,14.961-14.844v-13.145h-12.988c-.391,1.094-1.406,1.797-2.676,1.797h-17.941c-1.25,0-2.285-.703-2.656-1.797H1v13.145c0,9.961,4.922,14.844,14.961,14.844ZM25.625,27.5c-1.211.02-2.227-1.016-2.227-2.207,0-1.211,1.016-2.227,2.227-2.227,1.23,0,2.227,1.016,2.227,2.227,0,1.172-.996,2.168-2.227,2.207ZM1,14.375h12.969c.371-1.094,1.406-1.797,2.656-1.797h17.961c1.25,0,2.285.703,2.656,1.797h12.969v-.742c0-9.121-5.312-13.633-14.961-13.633H15.961C6.293,0,1,4.512,1,13.633v.742Z" style="stroke-width: 0px;"/>
  </g>
</svg>