<?xml version="1.0" encoding="UTF-8"?>
<!--Generator: Apple Native CoreSVG 232.5-->
<!DOCTYPE svg
PUBLIC "-//W3C//DTD SVG 1.1//EN"
       "http://www.w3.org/Graphics/SVG/1.1/DTD/svg11.dtd">
<svg version="1.1" xmlns="http://www.w3.org/2000/svg" xmlns:xlink="http://www.w3.org/1999/xlink" width="51.3672" height="64.8242">
 <g>
  <rect height="64.8242" opacity="0" width="51.3672" x="0" y="0"/>
  <path d="M7.59766 54.668L43.3984 54.668C48.418 54.668 50.9961 52.1094 50.9961 47.1289L50.9961 14.5312C50.9961 9.55078 48.418 7.01172 43.3984 7.01172L7.59766 7.01172C2.53906 7.01172 0 9.55078 0 14.5312L0 47.1289C0 52.1289 2.53906 54.668 7.59766 54.668ZM22.7344 39.2578C21.5625 39.2578 20.7617 38.1641 19.8242 36.8555C18.7109 35.293 17.832 32.8906 17.832 30.5859C17.832 26.8945 20.2148 24.9609 22.5781 24.9609C23.8281 24.9609 24.8438 25.7812 25.6445 25.7812C26.3867 25.7812 27.5586 24.9023 28.9648 24.9023C29.5312 24.9023 31.4453 24.9609 32.7344 26.7969C32.6172 26.8555 30.6836 27.9883 30.6836 30.4102C30.6836 33.2031 33.1641 34.1992 33.2227 34.2188C33.1836 34.3164 32.8516 35.6055 31.9141 36.9141C31.1133 38.0469 30.2734 39.2578 28.9648 39.2578C27.6953 39.2578 27.3438 38.4961 25.8594 38.4961C24.4531 38.4961 23.9062 39.2578 22.7344 39.2578ZM25.7617 24.7461C25.6445 24.7461 25.5469 24.707 25.5078 24.668C25.4883 24.6289 25.4883 24.4922 25.4883 24.3359C25.4883 23.3789 25.918 22.3633 26.4844 21.7578C27.1875 20.9766 28.3203 20.3711 29.2773 20.3516C29.3164 20.4492 29.3164 20.5664 29.3164 20.7031C29.3164 21.6992 28.9062 22.6562 28.3203 23.3789C27.6953 24.1406 26.6016 24.7461 25.7617 24.7461ZM6.62109 62.0312L15.5664 62.0312C16.5234 62.0312 17.2656 61.2695 17.2656 60.332C17.2656 59.375 16.5234 58.6133 15.5664 58.6133L6.62109 58.6133C5.66406 58.6133 4.92188 59.375 4.92188 60.332C4.92188 61.2695 5.66406 62.0312 6.62109 62.0312ZM9.39453 60.1562L12.793 60.1562L12.793 52.8906L9.39453 52.8906ZM35.4297 62.0312L44.375 62.0312C45.3125 62.0312 46.0742 61.2695 46.0742 60.332C46.0742 59.375 45.3125 58.6133 44.375 58.6133L35.4297 58.6133C34.4727 58.6133 33.7305 59.375 33.7305 60.332C33.7305 61.2695 34.4727 62.0312 35.4297 62.0312ZM38.2031 60.1562L41.6016 60.1562L41.6016 52.8906L38.2031 52.8906ZM9.39453 8.71094L12.793 8.71094L12.793 1.69922C12.793 0.761719 12.0508 0 11.1133 0C10.1367 0 9.39453 0.761719 9.39453 1.69922ZM38.2031 8.71094L41.6016 8.71094L41.6016 1.69922C41.6016 0.761719 40.8594 0 39.9023 0C38.9453 0 38.2031 0.761719 38.2031 1.69922Z" fill="#000000" fill-opacity="0.85"/>
 </g>
</svg>
