<?xml version="1.0" encoding="UTF-8"?>
<!--Generator: Apple Native CoreSVG 232.5-->
<!DOCTYPE svg
PUBLIC "-//W3C//DTD SVG 1.1//EN"
       "http://www.w3.org/Graphics/SVG/1.1/DTD/svg11.dtd">
<svg version="1.1" xmlns="http://www.w3.org/2000/svg" xmlns:xlink="http://www.w3.org/1999/xlink" width="71.0156" height="50.2148">
 <g>
  <rect height="50.2148" opacity="0" width="71.0156" x="0" y="0"/>
  <path d="M11.7969 38.4766L31.3672 38.4766C32.2852 38.4766 33.0078 37.8906 33.1055 36.9141L33.9648 28.0469C34.0625 26.8555 33.3008 26.0547 32.1094 26.0547L11.7969 26.0547C8.35938 26.0547 5.60547 28.8281 5.60547 32.2852C5.60547 35.7031 8.35938 38.4766 11.7969 38.4766ZM11.7969 34.7461C13.1836 34.7461 14.2969 33.6523 14.2969 32.2656C14.2969 30.8984 13.1836 29.7656 11.7969 29.7656C10.4102 29.7656 9.31641 30.8984 9.31641 32.2656C9.31641 33.6523 10.4102 34.7461 11.7969 34.7461ZM26.0547 50.1953L28.3398 50.1953L29.2188 41.9141L26.8945 41.9141ZM11.7969 36.4258C9.49219 36.4258 7.63672 34.5703 7.63672 32.2656C7.63672 29.9805 9.49219 28.0859 11.7969 28.0859C14.1016 28.0859 15.9766 29.9805 15.9766 32.2656C15.9766 34.5703 14.1016 36.4258 11.7969 36.4258ZM22.0898 0C10.6641 0 0 10.2734 0 24.8828C0 34.5312 3.10547 47.8125 8.24219 47.8516C9.53125 47.8516 10.4297 46.543 10.4297 43.6719C10.4297 42.7539 10.3516 41.8945 10.1562 40.6445C6.23047 39.8828 3.28125 36.4258 3.28125 32.2852C3.28125 30.7227 3.69141 29.2773 4.41406 28.0078C4.21875 26.8945 4.10156 25.7227 4.10156 24.7266C4.10156 13.2617 13.5156 4.10156 21.8164 4.10156C26.9531 4.10156 29.5703 8.10547 28.8672 14.8047L25.9766 42.6172C25.7031 45.3516 29.7461 45.3516 29.9805 42.9688L32.832 14.6289C33.7891 5.25391 29.8438 0 22.0898 0ZM58.8477 38.4766C62.3047 38.4766 65.0586 35.7031 65.0586 32.2852C65.0586 28.8281 62.3047 26.0547 58.8477 26.0547L38.5547 26.0547C37.3633 26.0547 36.582 26.8555 36.6992 28.0469L37.5391 36.9141C37.6562 37.8906 38.3789 38.4766 39.2773 38.4766ZM58.8477 34.7461C60.2344 34.7461 61.3281 33.6523 61.3281 32.2656C61.3281 30.8984 60.2344 29.7656 58.8477 29.7656C57.4609 29.7656 56.3672 30.8984 56.3672 32.2656C56.3672 33.6523 57.4609 34.7461 58.8477 34.7461ZM44.6094 50.1953L43.75 41.9141L41.4453 41.9141L42.3047 50.1953ZM58.8477 36.4258C56.543 36.4258 54.6875 34.5703 54.6875 32.2656C54.6875 29.9805 56.543 28.0859 58.8477 28.0859C61.1719 28.0859 63.0273 29.9805 63.0273 32.2656C63.0273 34.5703 61.1719 36.4258 58.8477 36.4258ZM48.5742 0C40.8008 0 36.875 5.25391 37.8125 14.6289L40.6641 42.9688C40.918 45.3516 44.9609 45.3516 44.668 42.6172L41.7969 14.8047C41.0742 8.10547 43.7109 4.10156 48.8281 4.10156C57.1289 4.10156 66.543 13.2617 66.543 24.7266C66.543 25.7227 66.4453 26.8945 66.2305 28.0078C66.9531 29.2773 67.3828 30.7227 67.3828 32.2852C67.3828 36.4258 64.4141 39.8828 60.5078 40.6445C60.293 41.8945 60.2148 42.7539 60.2148 43.6719C60.2148 46.543 61.1328 47.8516 62.4219 47.8516C67.5391 47.8125 70.6445 34.5312 70.6445 24.8828C70.6445 10.2734 60 0 48.5742 0Z" fill="#000000" fill-opacity="0.85"/>
  <path d="M11.7969 34.7461C13.1836 34.7461 14.2969 33.6523 14.2969 32.2656C14.2969 30.8984 13.1836 29.7656 11.7969 29.7656C10.4102 29.7656 9.31641 30.8984 9.31641 32.2656C9.31641 33.6523 10.4102 34.7461 11.7969 34.7461ZM11.7969 36.4258C9.49219 36.4258 7.63672 34.5703 7.63672 32.2656C7.63672 29.9805 9.49219 28.0859 11.7969 28.0859C14.1016 28.0859 15.9766 29.9805 15.9766 32.2656C15.9766 34.5703 14.1016 36.4258 11.7969 36.4258ZM58.8477 34.7461C60.2344 34.7461 61.3281 33.6523 61.3281 32.2656C61.3281 30.8984 60.2344 29.7656 58.8477 29.7656C57.4609 29.7656 56.3672 30.8984 56.3672 32.2656C56.3672 33.6523 57.4609 34.7461 58.8477 34.7461ZM58.8477 36.4258C56.543 36.4258 54.6875 34.5703 54.6875 32.2656C54.6875 29.9805 56.543 28.0859 58.8477 28.0859C61.1719 28.0859 63.0273 29.9805 63.0273 32.2656C63.0273 34.5703 61.1719 36.4258 58.8477 36.4258Z" fill="#000000" fill-opacity="0.2125"/>
 </g>
</svg>
