<?xml version="1.0" encoding="UTF-8"?>
<!--Generator: Apple Native CoreSVG 232.5-->
<!DOCTYPE svg
PUBLIC "-//W3C//DTD SVG 1.1//EN"
       "http://www.w3.org/Graphics/SVG/1.1/DTD/svg11.dtd">
<svg version="1.1" xmlns="http://www.w3.org/2000/svg" xmlns:xlink="http://www.w3.org/1999/xlink" width="30.2871" height="50.6848">
 <g>
  <rect height="50.6848" opacity="0" width="30.2871" x="0" y="0"/>
  <path d="M10.4186 0C3.51035 0 0 5.08164 0 13.118L0 18.1377C0 23.8713 1.44805 26.56 5.49317 28.8102L14.8078 33.8992C17.2143 35.2031 18.4057 35.6524 20.082 35.6524C23.5203 35.6524 26.3154 32.8209 26.3154 29.4129C26.3154 27.0711 25.1018 24.8465 22.401 23.457L3.90234 13.7969C3.90234 7.37832 6.02793 3.90098 10.6725 3.90098C18.4643 3.90098 25.2223 13.165 25.9551 23.6428C27.4732 25.2303 28.2856 27.2172 28.2856 29.4129C28.2856 33.1604 25.7578 36.3475 22.2912 37.3281C22.4051 39.7467 23.9104 42.277 25.8412 42.277C28.0309 42.277 29.916 34.4359 29.916 27.352C29.916 12.2889 21.1287 0 10.4186 0ZM20.1508 33.466C17.9289 33.466 16.0977 31.6287 16.0977 29.4068C16.0977 27.1459 17.9289 25.283 20.1508 25.283C22.4252 25.283 24.2504 27.1459 24.2504 29.4068C24.2504 31.6408 22.4252 33.466 20.1508 33.466ZM20.1508 32.0893C21.658 32.0893 22.8527 30.8615 22.8527 29.4068C22.8527 27.907 21.658 26.6793 20.1508 26.6793C18.6961 26.6793 17.4818 27.907 17.4818 29.4068C17.4818 30.8615 18.6961 32.0893 20.1508 32.0893ZM26.5762 50.6713L26.5762 41.1826L24.8328 41.1826L24.8328 50.6713Z" fill="#000000" fill-opacity="0.85"/>
  <path d="M20.1508 33.466C17.9289 33.466 16.0977 31.6287 16.0977 29.4068C16.0977 27.1459 17.9289 25.283 20.1508 25.283C22.4252 25.283 24.2504 27.1459 24.2504 29.4068C24.2504 31.6408 22.4252 33.466 20.1508 33.466ZM20.1508 32.0893C21.658 32.0893 22.8527 30.8615 22.8527 29.4068C22.8527 27.907 21.658 26.6793 20.1508 26.6793C18.6961 26.6793 17.4818 27.907 17.4818 29.4068C17.4818 30.8615 18.6961 32.0893 20.1508 32.0893Z" fill="#000000" fill-opacity="0.2125"/>
 </g>
</svg>
