<?xml version="1.0" encoding="UTF-8"?>
<!--Generator: Apple Native CoreSVG 232.5-->
<!DOCTYPE svg
PUBLIC "-//W3C//DTD SVG 1.1//EN"
       "http://www.w3.org/Graphics/SVG/1.1/DTD/svg11.dtd">
<svg version="1.1" xmlns="http://www.w3.org/2000/svg" xmlns:xlink="http://www.w3.org/1999/xlink" width="41.6736" height="39.3137">
 <g>
  <rect height="39.3137" opacity="0" width="41.6736" x="0" y="0"/>
  <path d="M17.3613 24.6775C20.7154 26.1135 24.6043 24.4688 26.0524 21.1672L30.901 10.1148C32.3625 6.80586 30.7703 2.83281 27.4027 1.37129C24.0109-0.0255859 20.1672 1.54707 18.6471 4.97188L13.8254 15.9609C12.3383 19.3406 13.9816 23.2039 17.3613 24.6775ZM19.8883 22.9135C17.4604 22.9135 15.5356 20.9813 15.5356 18.5277C15.5356 16.0816 17.4678 14.142 19.8883 14.142C22.3674 14.142 24.2996 16.0816 24.2996 18.5277C24.2996 20.9813 22.3674 22.9135 19.8883 22.9135ZM19.8883 21.3791C21.5281 21.3791 22.7652 20.115 22.7652 18.5277C22.7652 16.9479 21.5281 15.6703 19.8883 15.6703C18.2936 15.6703 17.0699 16.9479 17.0699 18.5277C17.0699 20.115 18.2936 21.3791 19.8883 21.3791ZM40.7873 17.6252C39.5225 13.3135 36.2123 11.2371 33.4947 9.01856C33.3715 9.70078 33.1762 10.3486 32.8967 10.9783L28.0481 22.0246C26.0895 26.4779 20.9316 28.5672 16.4844 26.6867C12.3354 24.8486 10.2205 20.3129 11.4924 16.1262C9.68574 18.4635 9.15235 22.2084 10.7594 26.6947C13.774 35.1049 21.4406 36.7092 28.957 33.7471L33.4918 31.9596C39.6518 29.5127 42.5943 23.8033 40.7873 17.6252Z" fill="#000000" fill-opacity="0.85"/>
  <path d="M8.70508 27.4275C7.59512 24.3482 7.35332 21.308 7.98574 18.3701C3.39043 19.5475 0 23.7023 0 28.6775C0 34.5627 4.74356 39.3137 10.5897 39.3137C13.3207 39.3137 15.7662 38.2785 17.6379 36.6035C13.5928 35.2908 10.4084 32.1516 8.70508 27.4275Z" fill="#000000" fill-opacity="0.425"/>
  <path d="M19.8883 22.9135C17.4604 22.9135 15.5356 20.9813 15.5356 18.5277C15.5356 16.0816 17.4678 14.142 19.8883 14.142C22.3674 14.142 24.2996 16.0816 24.2996 18.5277C24.2996 20.9813 22.3674 22.9135 19.8883 22.9135ZM19.8883 21.3791C21.5281 21.3791 22.7652 20.115 22.7652 18.5277C22.7652 16.9479 21.5281 15.6703 19.8883 15.6703C18.2936 15.6703 17.0699 16.9479 17.0699 18.5277C17.0699 20.115 18.2936 21.3791 19.8883 21.3791Z" fill="#000000" fill-opacity="0.2125"/>
 </g>
</svg>
