<?xml version="1.0" encoding="UTF-8"?>
<!--Generator: Apple Native CoreSVG 232.5-->
<!DOCTYPE svg
PUBLIC "-//W3C//DTD SVG 1.1//EN"
       "http://www.w3.org/Graphics/SVG/1.1/DTD/svg11.dtd">
<svg version="1.1" xmlns="http://www.w3.org/2000/svg" xmlns:xlink="http://www.w3.org/1999/xlink" width="50.7506" height="44.4727">
 <g>
  <rect height="44.4727" opacity="0" width="50.7506" x="0" y="0"/>
  <path d="M15.7031 44.4531L34.6824 44.4531C45.327 44.4531 50.3795 39.3945 50.3795 28.75L50.3795 17.207L38.4777 17.207C37.9955 18.3984 36.8627 19.1406 35.4564 19.1406L14.9291 19.1406C13.5424 19.1406 12.39 18.3984 11.9408 17.207L0 17.207L0 28.75C0 39.3945 5.05859 44.4531 15.7031 44.4531ZM25.183 29.2383C23.8744 29.2578 22.7807 28.1445 22.7807 26.8555C22.7807 25.5273 23.8744 24.4336 25.183 24.4336C26.5111 24.4336 27.6049 25.5273 27.6049 26.8555C27.6049 28.0664 26.5111 29.1992 25.183 29.2383ZM0 14.6289L11.8762 14.6289C12.3254 13.4375 13.4838 12.6953 14.8645 12.6953L35.4174 12.6953C36.8041 12.6953 37.9564 13.4375 38.4057 14.6289L50.2818 14.6289L50.2818 13.7695C50.2818 4.47266 44.6238 0 34.5848 0L15.7031 0C5.66406 0 0 4.47266 0 13.7695Z" fill="#000000" fill-opacity="0.85"/>
 </g>
</svg>
