<?xml version="1.0" encoding="UTF-8"?>
<!--Generator: Apple Native CoreSVG 232.5-->
<!DOCTYPE svg
PUBLIC "-//W3C//DTD SVG 1.1//EN"
       "http://www.w3.org/Graphics/SVG/1.1/DTD/svg11.dtd">
<svg version="1.1" xmlns="http://www.w3.org/2000/svg" xmlns:xlink="http://www.w3.org/1999/xlink" width="61.6211" height="32.793">
 <g>
  <rect height="32.793" opacity="0" width="61.6211" x="0" y="0"/>
  <path d="M7.59766 32.5781L53.6523 32.5781C58.6914 32.5781 61.25 30.0195 61.25 25.0391L61.25 7.51953C61.25 2.53906 58.6914 0 53.6523 0L7.59766 0C2.53906 0 0 2.51953 0 7.51953L0 25.0391C0 30.0391 2.53906 32.5781 7.59766 32.5781ZM8.76953 25.1172C7.91016 25.0977 7.26562 24.4531 7.26562 23.6133L7.26562 19.1992C7.26562 18.3398 7.94922 17.6953 8.76953 17.7148C9.57031 17.6953 10.2344 18.3398 10.2344 19.1992L10.2344 23.6328C10.2344 24.4336 9.58984 25.0977 8.76953 25.1172ZM14.7461 25.1172C13.8867 25.0977 13.2422 24.4531 13.2422 23.6133L13.2422 19.1992C13.2422 18.3398 13.9062 17.6953 14.7461 17.7148C15.5469 17.6953 16.2109 18.3398 16.2109 19.1992L16.2109 23.6328C16.2109 24.4336 15.5664 25.0977 14.7461 25.1172ZM21.2891 22.8906C20.4688 22.8906 19.8047 22.2266 19.8047 21.4062C19.8047 20.6055 20.4688 19.9414 21.2891 19.9414L31.7773 19.9414C32.5781 19.9414 33.2422 20.6055 33.2422 21.4062C33.2422 22.2266 32.5781 22.8906 31.7773 22.8906ZM51.25 24.3945C49.6484 24.4141 48.2812 23.0273 48.2812 21.4453C48.2812 19.8242 49.6484 18.457 51.25 18.457C52.8125 18.457 54.1602 19.8242 54.1602 21.4453C54.1602 23.0273 52.8125 24.3555 51.25 24.3945Z" fill="#000000" fill-opacity="0.85"/>
 </g>
</svg>
