<?xml version="1.0" encoding="UTF-8"?>
<!--Generator: Apple Native CoreSVG 232.5-->
<!DOCTYPE svg
PUBLIC "-//W3C//DTD SVG 1.1//EN"
       "http://www.w3.org/Graphics/SVG/1.1/DTD/svg11.dtd">
<svg version="1.1" xmlns="http://www.w3.org/2000/svg" xmlns:xlink="http://www.w3.org/1999/xlink" width="39.8131" height="48.5496">
 <g>
  <rect height="48.5496" opacity="0" width="39.8131" x="0" y="0"/>
  <path d="M19.7143 26.7356C18.5578 26.749 17.5967 25.7879 17.5967 24.6315C17.5967 23.4811 18.5578 22.5199 19.7143 22.5199C20.8842 22.5199 21.8318 23.4811 21.8318 24.6315C21.8318 25.767 20.8842 26.7221 19.7143 26.7356ZM11.9408 48.5106L27.5072 48.5106C35.5201 48.5106 39.442 44.5826 39.442 36.5697L39.442 15.685L29.0768 15.685C28.7346 16.6824 27.7856 17.3613 26.5813 17.3613L12.8473 17.3613C11.715 17.3613 10.7209 16.6824 10.3787 15.685L0 15.685L0 36.5697C0 44.5826 3.92793 48.5106 11.9408 48.5106ZM0 13.7826L10.3787 13.7826C10.7209 12.7852 11.715 12.1197 12.8473 12.1197L26.5813 12.1197C27.7856 12.1197 28.7346 12.7852 29.0768 13.7826L39.442 13.7826L39.442 11.9408C39.442 3.92793 35.5201 0 27.5072 0L11.9408 0C3.92793 0 0 3.92793 0 11.9408Z" fill="#000000" fill-opacity="0.85"/>
 </g>
</svg>
