<?xml version="1.0" encoding="UTF-8"?>
<!--Generator: Apple Native CoreSVG 232.5-->
<!DOCTYPE svg
PUBLIC "-//W3C//DTD SVG 1.1//EN"
       "http://www.w3.org/Graphics/SVG/1.1/DTD/svg11.dtd">
<svg version="1.1" xmlns="http://www.w3.org/2000/svg" xmlns:xlink="http://www.w3.org/1999/xlink" width="34.3524" height="50.2148">
 <g>
  <rect height="50.2148" opacity="0" width="34.3524" x="0" y="0"/>
  <path d="M22.1762 38.4766C25.6137 38.4766 28.3871 35.7031 28.3871 32.2852C28.3871 28.8281 25.6137 26.0547 22.1762 26.0547L1.88322 26.0547C0.691814 26.0547-0.089436 26.8555 0.00822024 28.0469L0.867595 36.9141C0.984783 37.8906 1.68791 38.4766 2.60588 38.4766ZM22.1762 34.7461C23.5629 34.7461 24.6567 33.6523 24.6567 32.2656C24.6567 30.8984 23.5629 29.7656 22.1762 29.7656C20.7895 29.7656 19.6957 30.8984 19.6957 32.2656C19.6957 33.6523 20.7895 34.7461 22.1762 34.7461ZM7.93791 50.1953L7.07853 41.9141L4.77385 41.9141L5.63322 50.1953ZM22.1762 36.4258C19.8715 36.4258 18.016 34.5703 18.016 32.2656C18.016 29.9805 19.8715 28.0859 22.1762 28.0859C24.5004 28.0859 26.3363 29.9805 26.3363 32.2656C26.3363 34.5703 24.5004 36.4258 22.1762 36.4258ZM11.9028 0C4.12931 0 0.203533 5.25391 1.14103 14.6289L3.9926 42.9688C4.22697 45.3516 8.28947 45.3516 7.9965 42.6172L5.12541 14.8047C4.40275 8.10547 7.01994 4.10156 12.1567 4.10156C20.4574 4.10156 29.8715 13.2617 29.8715 24.7266C29.8715 25.7227 29.7738 26.8945 29.559 28.0078C30.2817 29.2773 30.7113 30.7227 30.7113 32.2852C30.7113 36.4258 27.7426 39.8828 23.8363 40.6445C23.6215 41.8945 23.5434 42.7539 23.5434 43.6719C23.5434 46.543 24.4418 47.8516 25.7504 47.8516C30.8676 47.8125 33.9731 34.5312 33.9731 24.8828C33.9731 10.2734 23.3285 0 11.9028 0Z" fill="#000000" fill-opacity="0.85"/>
  <path d="M22.1762 34.7461C23.5629 34.7461 24.6567 33.6523 24.6567 32.2656C24.6567 30.8984 23.5629 29.7656 22.1762 29.7656C20.7895 29.7656 19.6957 30.8984 19.6957 32.2656C19.6957 33.6523 20.7895 34.7461 22.1762 34.7461ZM22.1762 36.4258C19.8715 36.4258 18.016 34.5703 18.016 32.2656C18.016 29.9805 19.8715 28.0859 22.1762 28.0859C24.5004 28.0859 26.3363 29.9805 26.3363 32.2656C26.3363 34.5703 24.5004 36.4258 22.1762 36.4258Z" fill="#000000" fill-opacity="0.2125"/>
 </g>
</svg>
