<?xml version="1.0" encoding="UTF-8"?>
<!--Generator: Apple Native CoreSVG 232.5-->
<!DOCTYPE svg
PUBLIC "-//W3C//DTD SVG 1.1//EN"
       "http://www.w3.org/Graphics/SVG/1.1/DTD/svg11.dtd">
<svg version="1.1" xmlns="http://www.w3.org/2000/svg" xmlns:xlink="http://www.w3.org/1999/xlink" width="84.4922" height="38.5742">
 <g>
  <rect height="38.5742" opacity="0" width="84.4922" x="0" y="0"/>
  <path d="M17.168 24.2383C20.4492 25.625 24.2578 24.0234 25.6836 20.7812L30.4492 9.96094C31.875 6.69922 30.293 2.83203 27.0117 1.40625C23.6914 0.0195312 19.9023 1.5625 18.4375 4.90234L13.6914 15.6836C12.2656 19.0039 13.8477 22.793 17.168 24.2383ZM19.5898 22.3828C17.2852 22.3828 15.4688 20.5664 15.4688 18.2422C15.4688 15.9375 17.2852 14.082 19.5898 14.082C21.9141 14.082 23.75 15.9375 23.75 18.2422C23.75 20.5664 21.9141 22.3828 19.5898 22.3828ZM19.5898 20.7812C21.0547 20.7812 22.1484 19.668 22.1484 18.2422C22.1484 16.8359 21.0547 15.6836 19.5898 15.6836C18.1641 15.6836 17.0703 16.8359 17.0703 18.2422C17.0703 19.668 18.1641 20.7812 19.5898 20.7812ZM39.9609 17.3242C38.75 13.2031 35.6445 11.2305 33.0273 9.0625C32.9102 9.6875 32.7148 10.2539 32.4609 10.8398L27.7148 21.6602C25.7812 26.0742 20.6836 28.125 16.2695 26.2695C12.0508 24.4141 9.96094 19.707 11.4453 15.4688C9.45312 17.9297 8.94531 21.7773 10.5469 26.2109C13.4961 34.4531 21.0156 36.0156 28.3789 33.125L32.8125 31.3672C38.8672 28.9648 41.7383 23.3789 39.9609 17.3242ZM66.9727 24.2383C70.2734 22.793 71.875 19.0039 70.4297 15.6836L65.6836 4.90234C64.2188 1.5625 60.4297 0.0195312 57.1094 1.40625C53.8281 2.83203 52.2461 6.69922 53.6719 9.96094L58.4375 20.7812C59.8633 24.0234 63.6719 25.625 66.9727 24.2383ZM64.5312 22.3828C62.207 22.3828 60.3711 20.5664 60.3711 18.2422C60.3711 15.9375 62.207 14.082 64.5312 14.082C66.8359 14.082 68.6523 15.9375 68.6523 18.2422C68.6523 20.5664 66.8555 22.3828 64.5312 22.3828ZM64.5312 20.7812C65.957 20.7812 67.0508 19.668 67.0508 18.2422C67.0508 16.8359 65.957 15.6836 64.5312 15.6836C63.0664 15.6836 61.9727 16.8359 61.9727 18.2422C61.9727 19.668 63.0664 20.7812 64.5312 20.7812ZM44.1602 17.3242C42.3828 23.3789 45.2539 28.9648 51.3086 31.3672L55.7422 33.125C63.1055 36.0156 70.625 34.4531 73.5742 26.2109C75.1758 21.7773 74.668 17.9297 72.6758 15.4688C74.1602 19.707 72.0703 24.4141 67.8516 26.2695C63.457 28.125 58.3398 26.0742 56.4062 21.6602L51.6602 10.8398C51.4062 10.2539 51.2109 9.6875 51.0938 9.0625C48.4766 11.2305 45.3711 13.2031 44.1602 17.3242Z" fill="#000000" fill-opacity="0.85"/>
  <path d="M8.45703 26.9531C7.36328 23.9453 7.10938 20.9766 7.73438 18.0859C3.30078 19.2578 0 23.3203 0 28.1445C0 33.9062 4.64844 38.5742 10.3711 38.5742C13.0078 38.5742 15.3906 37.5977 17.2266 35.9766C13.2422 34.668 10.1172 31.6016 8.45703 26.9531ZM75.6641 26.9531C74.0039 31.6016 70.8789 34.668 66.8945 35.9766C68.7305 37.5977 71.1133 38.5742 73.75 38.5742C79.4727 38.5742 84.1211 33.9062 84.1211 28.1445C84.1211 23.3203 80.8203 19.2578 76.3867 18.0859C77.0117 20.9766 76.7578 23.9453 75.6641 26.9531Z" fill="#000000" fill-opacity="0.425"/>
  <path d="M19.5898 22.3828C17.2852 22.3828 15.4688 20.5664 15.4688 18.2422C15.4688 15.9375 17.2852 14.082 19.5898 14.082C21.9141 14.082 23.75 15.9375 23.75 18.2422C23.75 20.5664 21.9141 22.3828 19.5898 22.3828ZM19.5898 20.7812C21.0547 20.7812 22.1484 19.668 22.1484 18.2422C22.1484 16.8359 21.0547 15.6836 19.5898 15.6836C18.1641 15.6836 17.0703 16.8359 17.0703 18.2422C17.0703 19.668 18.1641 20.7812 19.5898 20.7812ZM64.5312 22.3828C62.207 22.3828 60.3711 20.5664 60.3711 18.2422C60.3711 15.9375 62.207 14.082 64.5312 14.082C66.8359 14.082 68.6523 15.9375 68.6523 18.2422C68.6523 20.5664 66.8555 22.3828 64.5312 22.3828ZM64.5312 20.7812C65.957 20.7812 67.0508 19.668 67.0508 18.2422C67.0508 16.8359 65.957 15.6836 64.5312 15.6836C63.0664 15.6836 61.9727 16.8359 61.9727 18.2422C61.9727 19.668 63.0664 20.7812 64.5312 20.7812Z" fill="#000000" fill-opacity="0.2125"/>
 </g>
</svg>
