<?xml version="1.0" encoding="UTF-8"?>
<!--Generator: Apple Native CoreSVG 232.5-->
<!DOCTYPE svg
PUBLIC "-//W3C//DTD SVG 1.1//EN"
       "http://www.w3.org/Graphics/SVG/1.1/DTD/svg11.dtd">
<svg version="1.1" xmlns="http://www.w3.org/2000/svg" xmlns:xlink="http://www.w3.org/1999/xlink" width="72.5781" height="45.1367">
 <g>
  <rect height="45.1367" opacity="0" width="72.5781" x="0" y="0"/>
  <path d="M15.332 17.5C15.332 16.4062 16.0156 15.7031 17.1875 15.7031L22.2656 15.7031L22.2656 10.6445C22.2656 9.51172 22.9297 8.80859 24.043 8.80859C25.1172 8.80859 25.7812 9.51172 25.7812 10.6445L25.7812 15.7031L30.6641 15.7031C31.8945 15.7031 32.6367 16.4062 32.6367 17.5C32.6367 18.6523 31.8945 19.3555 30.6641 19.3555L25.7812 19.3555L25.7812 24.4336C25.7812 25.5664 25.1172 26.2695 24.043 26.2695C22.9297 26.2695 22.2656 25.5664 22.2656 24.4336L22.2656 19.3555L17.1875 19.3555C16.0156 19.3555 15.332 18.6523 15.332 17.5ZM52.1094 17.1094C50.1367 17.1094 48.4961 15.5078 48.4961 13.4961C48.4961 11.4844 50.1367 9.88281 52.1094 9.88281C54.1211 9.88281 55.7422 11.4844 55.7422 13.4961C55.7422 15.5078 54.1211 17.1094 52.1094 17.1094ZM44.3555 24.8047C42.3633 24.8047 40.7422 23.2031 40.7422 21.1914C40.7422 19.1992 42.3633 17.5781 44.3555 17.5781C46.3672 17.5781 47.9883 19.1992 47.9883 21.1914C47.9883 23.2031 46.3672 24.8047 44.3555 24.8047ZM9.31641 45.1367C12.5586 45.1367 14.9609 43.9062 17.0312 41.3477L21.6797 35.7227C22.3438 34.9219 23.0859 34.5508 23.8867 34.5508L48.3203 34.5508C49.1211 34.5508 49.8633 34.9219 50.5273 35.7227L55.1562 41.3477C57.2461 43.9062 59.6484 45.1367 62.8906 45.1367C68.4766 45.1367 72.207 41.4062 72.207 35.6836C72.207 33.2227 71.6211 30.3711 70.6445 27.0898C69.1016 21.9336 66.4062 14.9219 63.8086 9.43359C61.6797 4.98047 60.6055 3.02734 55.4297 1.85547C50.6055 0.742188 44.0039 0.0390625 36.0938 0.0390625C28.2031 0.0390625 21.6016 0.742188 16.7773 1.85547C11.6016 3.02734 10.5273 4.98047 8.39844 9.43359C5.80078 14.9219 3.10547 21.9336 1.5625 27.0898C0.585938 30.3711 0 33.2227 0 35.6836C0 41.4062 3.73047 45.1367 9.31641 45.1367Z" fill="#000000" fill-opacity="0.85"/>
 </g>
</svg>
