<?xml version="1.0" encoding="UTF-8"?>
<!--Generator: Apple Native CoreSVG 232.5-->
<!DOCTYPE svg
PUBLIC "-//W3C//DTD SVG 1.1//EN"
       "http://www.w3.org/Graphics/SVG/1.1/DTD/svg11.dtd">
<svg version="1.1" xmlns="http://www.w3.org/2000/svg" xmlns:xlink="http://www.w3.org/1999/xlink" width="38.9182" height="41.65">
 <g>
  <rect height="41.65" opacity="0" width="38.9182" x="0" y="0"/>
  <path d="M29.9334 30.3301C33.0229 30.3301 36.3723 28.457 37.1037 24.519L38.3443 17.81C39.6193 10.9891 34.6465 5.6252 25.7852 2.55469C20.7297 0.791407 15.7658 0 10.7824 0C9.28516 0 8.72012 0.536133 8.72012 1.6043C8.72012 4.09492 10.0557 5.8791 12.4225 6.21992C16.4494 6.8207 19.6842 7.71778 22.4096 9.05821C23.7828 9.70137 24.2287 10.5635 23.9883 12.0693L22.5031 20.9924C21.6531 26.1738 25.1178 30.3301 29.9334 30.3301ZM29.9334 26.9502C27.5957 26.9502 25.7658 25.1068 25.7658 22.7691C25.7658 20.4375 27.5957 18.5881 29.9334 18.5881C32.2529 18.5881 34.1024 20.424 34.1024 22.7691C34.1024 25.1143 32.2529 26.9502 29.9334 26.9502ZM29.9334 25.4084C31.4137 25.4084 32.568 24.2541 32.568 22.7691C32.568 21.2902 31.4137 20.1225 29.9334 20.1225C28.4484 20.1225 27.2942 21.2902 27.2942 22.7691C27.2942 24.2541 28.4484 25.4084 29.9334 25.4084ZM29.9334 32.509C23.6945 32.509 19.291 27.0736 20.3498 20.632L21.29 14.9994C16.0865 16.3363 12.5363 18.5535 11.0135 21.7629C12.3652 27.7451 14.5266 33.2633 17.5574 38.5289C19.0399 39.2799 20.5432 39.5729 22.7092 39.5729C31.1596 39.5729 37.8715 35.3434 38.236 27.7311C36.641 30.6494 33.5455 32.509 29.9334 32.509Z" fill="#000000" fill-opacity="0.85"/>
  <path d="M0 31.6791C0 37.625 3.93945 41.6035 9.88399 41.6035C12.0744 41.6035 14.0547 40.9945 15.7914 39.8053C12.5443 34.2723 10.2705 28.3654 8.83926 22.1117C3.78692 22.8174 0 26.5742 0 31.6791Z" fill="#000000" fill-opacity="0.425"/>
  <path d="M29.9334 26.9502C27.5957 26.9502 25.7658 25.1068 25.7658 22.7691C25.7658 20.4375 27.5957 18.5881 29.9334 18.5881C32.2529 18.5881 34.1024 20.424 34.1024 22.7691C34.1024 25.1143 32.2529 26.9502 29.9334 26.9502ZM29.9334 25.4084C31.4137 25.4084 32.568 24.2541 32.568 22.7691C32.568 21.2902 31.4137 20.1225 29.9334 20.1225C28.4484 20.1225 27.2942 21.2902 27.2942 22.7691C27.2942 24.2541 28.4484 25.4084 29.9334 25.4084Z" fill="#000000" fill-opacity="0.2125"/>
 </g>
</svg>
