<?xml version="1.0" encoding="UTF-8"?>
<!--Generator: Apple Native CoreSVG 232.5-->
<!DOCTYPE svg
PUBLIC "-//W3C//DTD SVG 1.1//EN"
       "http://www.w3.org/Graphics/SVG/1.1/DTD/svg11.dtd">
<svg version="1.1" xmlns="http://www.w3.org/2000/svg" xmlns:xlink="http://www.w3.org/1999/xlink" width="51.9377" height="54.6891">
 <g>
  <rect height="54.6891" opacity="0" width="51.9377" x="0" y="0"/>
  <path d="M1.74454 31.4203L3.52423 31.4203L3.52423 26.143L1.74454 26.143ZM13.3025 54.6891C15.9113 54.6891 17.2328 52.2225 15.7873 49.642L5.96739 32.1096C5.28575 30.8965 4.23028 30.3152 2.9754 30.3152C0.500398 30.3152-0.427924 32.485 0.180668 34.7971C1.58027 39.0029 4.57871 44.9982 7.32499 49.1185C9.86895 53.2277 11.5281 54.6891 13.3025 54.6891ZM49.8221 31.4203L49.8221 26.143L48.0484 26.143L48.0484 31.4203ZM38.2641 54.6891C40.0445 54.6891 41.6977 53.2277 44.2477 49.1185C46.9879 44.9982 49.9863 39.0029 51.392 34.7971C52.0006 32.485 51.0723 30.3152 48.5912 30.3152C47.3424 30.3152 46.2809 30.8965 45.5992 32.1096L35.7854 49.642C34.3338 52.2225 35.6613 54.6891 38.2641 54.6891ZM0.978715 26.0936C0.978715 27.0285 1.64551 27.6893 2.60001 27.6893C3.53497 27.6893 4.16407 27.0285 4.16407 26.0936C4.2254 12.4439 12.6479 3.56211 25.7863 3.56211C38.9188 3.56211 47.3412 12.4439 47.4025 26.0936C47.4025 27.0285 48.0377 27.6893 48.9727 27.6893C49.9211 27.6893 50.5879 27.0285 50.5879 26.0936C50.5879 10.7439 40.9524 0.363283 25.7863 0.363283C10.6277 0.363283 0.978715 10.7439 0.978715 26.0936Z" fill="#000000" fill-opacity="0.85"/>
  <path d="M19.5682 49.8324C21.1893 48.9205 21.6129 47.0238 20.5912 45.1967L12.5434 30.865C11.4961 29.0184 9.69708 28.4479 8.08204 29.3598C7.12501 29.9066 6.92833 30.7115 7.43614 31.6221L17.3106 49.2209C17.8184 50.1449 18.6367 50.3793 19.5682 49.8324ZM31.9984 49.8324C32.9359 50.3793 33.7482 50.1449 34.2621 49.2209L44.1305 31.6221C44.6383 30.7115 44.4477 29.9066 43.4846 29.3598C41.8695 28.4479 40.0705 29.0184 39.0293 30.865L30.9754 45.1967C29.9598 47.0238 30.3834 48.9205 31.9984 49.8324ZM11.1533 11.7824C15.1371 9.54376 20.1 8.31739 25.7863 8.31739C31.4727 8.31739 36.4295 9.54376 40.4193 11.7824C37.2545 8.03751 32.4102 5.74102 25.7863 5.74102C19.1625 5.74102 14.3121 8.03751 11.1533 11.7824Z" fill="#000000" fill-opacity="0.425"/>
 </g>
</svg>
