<?xml version="1.0" encoding="UTF-8"?>
<!--Generator: Apple Native CoreSVG 232.5-->
<!DOCTYPE svg
PUBLIC "-//W3C//DTD SVG 1.1//EN"
       "http://www.w3.org/Graphics/SVG/1.1/DTD/svg11.dtd">
<svg version="1.1" xmlns="http://www.w3.org/2000/svg" xmlns:xlink="http://www.w3.org/1999/xlink" width="60.1165" height="29.8118">
 <g>
  <rect height="29.8118" opacity="0" width="60.1165" x="0" y="0"/>
  <path d="M6.64145 29.7657L53.1039 29.7657C57.454 29.7657 59.7454 27.4181 59.7454 23.1266L59.7454 6.63363C59.7454 2.3422 57.454 0 53.1039 0L6.64145 0C2.28595 0 0 2.28048 0 6.63363L0 23.1266C0 27.4657 2.28595 29.7657 6.64145 29.7657ZM7.85551 23.0501C7.43205 23.0446 7.09688 22.7094 7.09688 22.2915L7.09688 16.9634C7.09688 16.5399 7.44299 16.2047 7.85551 16.2102C8.26255 16.2047 8.60319 16.5399 8.60319 16.9634L8.60319 22.2969C8.60319 22.704 8.26802 23.0446 7.85551 23.0501ZM12.8337 23.0501C12.4102 23.0446 12.075 22.7094 12.075 22.2915L12.075 16.9634C12.075 16.5399 12.4157 16.2047 12.8337 16.2102C13.2407 16.2047 13.5814 16.5399 13.5814 16.9634L13.5814 22.2969C13.5814 22.704 13.2462 23.0446 12.8337 23.0501ZM18.8704 20.3876C18.4438 20.3876 18.1032 20.047 18.1032 19.6344C18.1032 19.2133 18.4438 18.8727 18.8704 18.8727L29.1759 18.8727C29.597 18.8727 29.9376 19.2133 29.9376 19.6344C29.9376 20.047 29.597 20.3876 29.1759 20.3876ZM49.9563 22.3134C48.5235 22.347 47.2829 21.1009 47.2829 19.6594C47.2829 18.193 48.5235 16.9805 49.9563 16.9805C51.3922 16.9805 52.5993 18.193 52.5993 19.6594C52.5993 21.1009 51.3922 22.2743 49.9563 22.3134Z" fill="#ffffff" fill-opacity="0.85"/>
 </g>
</svg>
