<?xml version="1.0" encoding="UTF-8"?>
<svg id="a" data-name="图层 1" xmlns="http://www.w3.org/2000/svg" viewBox="0 0 25.429 41.799">
  <path d="M25.378,14.109s-1.647,11.574-11.791,9.826C3.084,22.124-4.184,11.306,2.69,3.747c.179-.197.359-.382.541-.561-.385.498-.525.91-.363,1.097.406.467,1.072-.179,1.072-.179C6.505,1.402,9.441.812,10.729.889c1.084.064,1.072-.357,1.072-.357.018-.242-.149-.375-.325-.448,3.997.293,7.598,2.611,9.258,4.2,2.871,2.747,5.063,5.343,4.645,9.826ZM13.465,10.673l-1.536-1.215c-.673-.533-1.651-.419-2.183.255l-.126.159c-.533.673-.419,1.651.255,2.183l1.536,1.215c.673.533,1.651.419,2.183-.255l.126-.159c.533-.673.419-1.651-.255-2.183ZM22.542,11.714c-1.088-.529-2.946,1.048-4.15,3.522-1.204,2.475-1.299,4.91-.211,5.439,1.088.529,2.946-1.048,4.15-3.522,1.204-2.475,1.299-4.91.211-5.439ZM13.766,26.257v13.22c0,1.283-1.04,2.322-2.322,2.322h-3.573c-1.283,0-2.322-1.04-2.322-2.322v-13.22s0-.179,0-.179v-3.216c3.656,2.979,8.218,3.216,8.218,3.216v.179Z" style="fill: #040000; fill-rule: evenodd; opacity: .85; stroke-width: 0px;"/>
  <path d="M11.801.531s.035.417-1.058.352c-1.298-.077-4.036.458-6.664,3.062,0,0-.745.878-1.218.323C2.341,3.659,5.331-.075,11.07.001c0,0,.767.025.73.53Z" style="fill: #040000; fill-rule: evenodd; opacity: .25; stroke-width: 0px;"/>
</svg>