<?xml version="1.0" encoding="UTF-8"?>
<!--Generator: Apple Native CoreSVG 232.5-->
<!DOCTYPE svg
PUBLIC "-//W3C//DTD SVG 1.1//EN"
       "http://www.w3.org/Graphics/SVG/1.1/DTD/svg11.dtd">
<svg version="1.1" xmlns="http://www.w3.org/2000/svg" xmlns:xlink="http://www.w3.org/1999/xlink" width="68.0859" height="45.5273">
 <g>
  <rect height="45.5273" opacity="0" width="68.0859" x="0" y="0"/>
  <path d="M20.9961 0C9.47266 0 0 13.2227 0 29.4531C0 37.0898 2.05078 45.5273 4.47266 45.5273C6.44531 45.5273 8.04688 42.9102 8.20312 40.3125C4.45312 39.2383 1.66016 35.7617 1.66016 31.6602C1.66016 29.2383 2.59766 27.0508 4.31641 25.332C5.13672 14.1016 12.3828 4.21875 20.7617 4.21875C25.7422 4.21875 28.0273 7.94922 28.0273 14.8633L8.125 25.2539C5.21484 26.7773 3.88672 29.1406 3.88672 31.6602C3.88672 35.3711 6.91406 38.4375 10.6445 38.4375C12.4609 38.4375 13.6914 37.9883 16.2891 36.5625L26.3086 31.0742C30.6836 28.6719 32.2266 25.7617 32.2266 19.5898L32.2266 14.1406C32.2266 5.46875 28.418 0 20.9961 0ZM10.5078 35.9766C8.10547 35.9766 6.17188 34.043 6.17188 31.6602C6.17188 29.2773 8.10547 27.3242 10.5078 27.3242C12.8906 27.3242 14.8438 29.2773 14.8438 31.6602C14.8438 34.0234 12.8906 35.9766 10.5078 35.9766ZM10.5078 34.375C12.0117 34.375 13.2422 33.1445 13.2422 31.6602C13.2422 30.1562 12.0117 28.9258 10.5078 28.9258C8.98438 28.9258 7.77344 30.1562 7.77344 31.6602C7.77344 33.1445 8.98438 34.375 10.5078 34.375ZM46.6992 0C39.2773 0 35.4688 5.46875 35.4688 14.1406L35.4688 19.5898C35.4688 25.7617 37.0312 28.6719 41.4062 31.0742L51.4258 36.5625C54.0039 37.9883 55.2344 38.4375 57.0508 38.4375C60.7812 38.4375 63.8281 35.3711 63.8281 31.6602C63.8281 29.1406 62.5 26.7773 59.5898 25.2539L39.6875 14.8633C39.6875 7.94922 41.9531 4.21875 46.9531 4.21875C55.332 4.21875 62.5781 14.1016 63.3984 25.332C65.1172 27.0508 66.0352 29.2383 66.0352 31.6602C66.0352 35.7617 63.2617 39.2383 59.5117 40.3125C59.668 42.9102 61.25 45.5273 63.2422 45.5273C65.6641 45.5273 67.7148 37.0898 67.7148 29.4531C67.7148 13.2227 58.2227 0 46.6992 0ZM57.1875 35.9766C54.8242 35.9766 52.8711 34.0234 52.8711 31.6602C52.8711 29.2773 54.8242 27.3242 57.1875 27.3242C59.5898 27.3242 61.543 29.2773 61.543 31.6602C61.543 34.043 59.5898 35.9766 57.1875 35.9766ZM57.1875 34.375C58.7109 34.375 59.9414 33.1445 59.9414 31.6602C59.9414 30.1562 58.7109 28.9258 57.1875 28.9258C55.7031 28.9258 54.4727 30.1562 54.4727 31.6602C54.4727 33.1445 55.7031 34.375 57.1875 34.375Z" fill="#000000" fill-opacity="0.85"/>
  <path d="M10.5078 35.9766C8.10547 35.9766 6.17188 34.043 6.17188 31.6602C6.17188 29.2773 8.10547 27.3242 10.5078 27.3242C12.8906 27.3242 14.8438 29.2773 14.8438 31.6602C14.8438 34.0234 12.8906 35.9766 10.5078 35.9766ZM10.5078 34.375C12.0117 34.375 13.2422 33.1445 13.2422 31.6602C13.2422 30.1562 12.0117 28.9258 10.5078 28.9258C8.98438 28.9258 7.77344 30.1562 7.77344 31.6602C7.77344 33.1445 8.98438 34.375 10.5078 34.375ZM57.1875 35.9766C54.8242 35.9766 52.8711 34.0234 52.8711 31.6602C52.8711 29.2773 54.8242 27.3242 57.1875 27.3242C59.5898 27.3242 61.543 29.2773 61.543 31.6602C61.543 34.043 59.5898 35.9766 57.1875 35.9766ZM57.1875 34.375C58.7109 34.375 59.9414 33.1445 59.9414 31.6602C59.9414 30.1562 58.7109 28.9258 57.1875 28.9258C55.7031 28.9258 54.4727 30.1562 54.4727 31.6602C54.4727 33.1445 55.7031 34.375 57.1875 34.375Z" fill="#000000" fill-opacity="0.2125"/>
 </g>
</svg>
