<?xml version="1.0" encoding="UTF-8"?>
<!--Generator: Apple Native CoreSVG 232.5-->
<!DOCTYPE svg
PUBLIC "-//W3C//DTD SVG 1.1//EN"
       "http://www.w3.org/Graphics/SVG/1.1/DTD/svg11.dtd">
<svg version="1.1" xmlns="http://www.w3.org/2000/svg" xmlns:xlink="http://www.w3.org/1999/xlink" width="31.6992" height="52.4805">
 <g>
  <rect height="52.4805" opacity="0" width="31.6992" x="0" y="0"/>
  <path d="M3.45703 44.2578L3.45703 8.20312L27.8516 8.20312L27.8516 44.2578ZM15.6836 50.0586C14.5312 50.0586 13.5938 49.1016 13.5938 47.9492C13.5938 46.7969 14.5312 45.8789 15.6836 45.8789C16.8359 45.8789 17.7734 46.7969 17.7734 47.9492C17.7734 49.1016 16.8359 50.0586 15.6836 50.0586ZM15.6836 5.52734C14.9023 5.52734 14.2578 4.88281 14.2578 4.08203C14.2578 3.30078 14.9023 2.67578 15.6836 2.67578C16.4648 2.67578 17.1094 3.30078 17.1094 4.08203C17.1094 4.88281 16.4648 5.52734 15.6836 5.52734Z" fill="#000000" fill-opacity="0.2125"/>
  <path d="M0 46.0156C0 49.9609 2.57812 52.4609 6.66016 52.4609L24.6484 52.4609C28.7305 52.4609 31.3281 49.9609 31.3281 46.0156L31.3281 6.44531C31.3281 2.5 28.7305 0 24.6484 0L6.66016 0C2.57812 0 0 2.5 0 6.44531ZM3.45703 44.2578L3.45703 8.20312L27.8516 8.20312L27.8516 44.2578ZM15.6836 50.0586C14.5312 50.0586 13.5938 49.1016 13.5938 47.9492C13.5938 46.7969 14.5312 45.8789 15.6836 45.8789C16.8359 45.8789 17.7734 46.7969 17.7734 47.9492C17.7734 49.1016 16.8359 50.0586 15.6836 50.0586ZM15.6836 5.52734C14.9023 5.52734 14.2578 4.88281 14.2578 4.08203C14.2578 3.30078 14.9023 2.67578 15.6836 2.67578C16.4648 2.67578 17.1094 3.30078 17.1094 4.08203C17.1094 4.88281 16.4648 5.52734 15.6836 5.52734Z" fill="#000000" fill-opacity="0.85"/>
 </g>
</svg>
