<?xml version="1.0" encoding="utf-8"?>
<!-- Generator: Adobe Illustrator 28.1.0, SVG Export Plug-In . SVG Version: 6.00 Build 0)  -->
<svg version="1.1" id="图层_1" xmlns="http://www.w3.org/2000/svg" xmlns:xlink="http://www.w3.org/1999/xlink" x="0px" y="0px"
	 viewBox="0 0 48 47.7" style="enable-background:new 0 0 48 47.7;" xml:space="preserve">
<style type="text/css">
	.st0{opacity:0;}
	.st1{opacity:1;}
</style>
<g>
	<rect x="1.8" y="1.8" class="st0" width="44.3" height="44"/>
	<g class="st1">
		<path d="M45.8,9.7V38c0,5.1-2.8,7.9-7.9,7.9H9.8c-5.1,0-7.9-2.8-7.9-7.9V9.7c0-5.1,2.8-7.9,7.9-7.9h28.1C43,1.9,45.8,4.6,45.8,9.7
			z M26.9,8.5L14,24.4c-0.3,0.3-0.4,0.7-0.4,1c0,0.7,0.5,1.2,1.3,1.2h7.8l-4.1,11c-0.6,1.7,1.2,2.7,2.3,1.3l12.9-15.9
			c0.3-0.3,0.4-0.7,0.4-1c0-0.7-0.5-1.2-1.3-1.2h-7.8l4.1-11C29.9,8.1,28.1,7.1,26.9,8.5z"/>
	</g>
</g>
</svg>
