<?xml version="1.0" encoding="UTF-8"?>
<!--Generator: Apple Native CoreSVG 232.5-->
<!DOCTYPE svg
PUBLIC "-//W3C//DTD SVG 1.1//EN"
       "http://www.w3.org/Graphics/SVG/1.1/DTD/svg11.dtd">
<svg version="1.1" xmlns="http://www.w3.org/2000/svg" xmlns:xlink="http://www.w3.org/1999/xlink" width="48.0176" height="47.6758">
 <g>
  <rect height="47.6758" opacity="0" width="48.0176" x="0" y="0"/>
  <path d="M47.6465 8.56445L47.6465 39.1504C47.6465 44.6777 44.6289 47.6758 39.0527 47.6758L8.58398 47.6758C3.01758 47.6758 0 44.6875 0 39.1504L0 8.56445C0 3.02734 3.01758 0.0488281 8.58398 0.0488281L39.0527 0.0488281C44.6289 0.0488281 47.6465 3.03711 47.6465 8.56445ZM27.1484 7.19727L13.1348 24.4336C12.8418 24.7852 12.6855 25.1953 12.6855 25.5566C12.6855 26.2988 13.2812 26.8555 14.043 26.8555L22.4414 26.8555L17.959 38.7207C17.2559 40.5469 19.2383 41.6016 20.4785 40.1172L34.4922 22.8613C34.7754 22.5293 34.9414 22.1191 34.9414 21.748C34.9414 21.0059 34.3457 20.459 33.584 20.459L25.1855 20.459L29.6777 8.57422C30.3809 6.75781 28.3887 5.71289 27.1484 7.19727Z" fill="#000000" fill-opacity="0.85"/>
 </g>
</svg>
