<?xml version="1.0" encoding="UTF-8"?>
<!--Generator: Apple Native CoreSVG 232.5-->
<!DOCTYPE svg
PUBLIC "-//W3C//DTD SVG 1.1//EN"
       "http://www.w3.org/Graphics/SVG/1.1/DTD/svg11.dtd">
<svg version="1.1" xmlns="http://www.w3.org/2000/svg" xmlns:xlink="http://www.w3.org/1999/xlink" width="62.3252" height="44.1777">
 <g>
  <rect height="44.1777" opacity="0" width="62.3252" x="0" y="0"/>
  <path d="M27.3762 44.1777L34.5961 44.1777C41.5365 44.1777 46.3717 43.3621 50.1629 41.516C57.8734 37.8049 61.9541 30.4877 61.9541 22.0912C61.9541 18.7486 61.3156 15.5852 60.0373 12.7402L1.92285 12.7402C0.644531 15.5852 0 18.7486 0 22.0912C0 30.4877 4.08066 37.8049 11.7912 41.516C15.5689 43.3621 20.4236 44.1777 27.3762 44.1777ZM30.9996 30.999C28.1426 30.999 25.9389 28.8088 25.9389 26.0359L25.9389 18.7688L28.2268 17.7713L28.2268 21.809C29.0633 21.1631 29.9887 20.8957 30.9996 20.8957C33.7455 20.8957 36.0799 23.2436 36.0799 26.0359C36.0799 28.7623 33.7785 30.999 30.9996 30.999ZM30.9996 28.7623C32.5063 28.7623 33.7455 27.5096 33.7455 26.0359C33.7455 24.5549 32.5063 23.2766 30.9996 23.2766C29.5125 23.2766 28.2268 24.5219 28.2268 26.0359C28.2268 27.5096 29.4734 28.7623 30.9996 28.7623ZM2.89492 10.8305L59.0592 10.8305C57.0959 7.38965 54.0928 4.55762 50.1629 2.67383C46.3717 0.814258 41.5365 0.0121093 34.5961 0.0121093L27.3762 0.0121093C20.4236 0.0121093 15.5689 0.814258 11.7912 2.67383C7.86739 4.55762 4.86426 7.38965 2.89492 10.8305Z" fill="#000000" fill-opacity="0.85"/>
 </g>
</svg>
