<?xml version="1.0" encoding="UTF-8"?>
<!--Generator: Apple Native CoreSVG 326-->
<!DOCTYPE svg
PUBLIC "-//W3C//DTD SVG 1.1//EN"
       "http://www.w3.org/Graphics/SVG/1.1/DTD/svg11.dtd">
<svg version="1.1" xmlns="http://www.w3.org/2000/svg" xmlns:xlink="http://www.w3.org/1999/xlink" viewBox="0 0 34.6289 56.8555">
 <g>
  <rect height="56.8555" opacity="0" width="34.6289" x="0" y="0"/>
  <path d="M13.8281 56.7969L20.4297 56.7969C22.9688 56.7969 24.2969 55.4492 24.2969 52.8711L24.2969 43.3398C24.2969 40.4688 25.6641 38.8867 28.1055 37.0703C32.1289 34.043 34.2578 29.4531 34.2578 24.6094L34.2578 17.0703C34.2578 14.5703 32.9297 13.2617 30.4297 13.2227L27.7539 13.2031L27.7539 2.94922C27.7539 1.32812 26.4453 0 24.8047 0C23.1641 0 21.8359 1.32812 21.8359 2.94922L21.8359 13.2031L12.3828 13.2031L12.3828 2.94922C12.3828 1.32812 11.0938 0 9.47266 0C7.83203 0 6.50391 1.32812 6.50391 2.94922L6.50391 13.2031L3.76953 13.2227C1.26953 13.2617 0 14.5703 0 17.0703L0 24.6094C0 29.4531 2.12891 34.043 6.17188 37.0703C8.63281 38.8867 9.96094 40.4688 9.96094 43.3398L9.96094 52.8711C9.96094 55.4492 11.25 56.7969 13.8281 56.7969Z" fill="black"/>
 </g>
</svg>
