<?xml version="1.0" encoding="UTF-8"?>
<!--Generator: Apple Native CoreSVG 232.5-->
<!DOCTYPE svg
PUBLIC "-//W3C//DTD SVG 1.1//EN"
       "http://www.w3.org/Graphics/SVG/1.1/DTD/svg11.dtd">
<svg version="1.1" xmlns="http://www.w3.org/2000/svg" xmlns:xlink="http://www.w3.org/1999/xlink" width="88.8672" height="52.2852">
 <g>
  <rect height="52.2852" opacity="0" width="88.8672" x="0" y="0"/>
  <path d="M9.27734 43.0664C9.94141 42.2852 9.72656 41.2695 8.96484 40.4102C5.48828 36.6211 3.49609 31.6406 3.49609 26.1328C3.49609 20.6055 5.48828 15.625 8.96484 11.8359C9.72656 10.9766 9.94141 9.96094 9.27734 9.19922C8.57422 8.39844 7.38281 8.39844 6.5625 9.29688C2.38281 13.75 0 19.668 0 26.1328C0 32.5781 2.38281 38.5156 6.5625 42.9492C7.38281 43.8477 8.57422 43.8672 9.27734 43.0664ZM79.2383 43.0664C79.9219 43.8672 81.1328 43.8477 81.9531 42.9492C86.1133 38.5156 88.4961 32.5781 88.4961 26.1328C88.4961 19.668 86.1133 13.75 81.9531 9.29688C81.1328 8.39844 79.9219 8.39844 79.2383 9.19922C78.5547 9.96094 78.7695 10.9766 79.5312 11.8359C83.0273 15.625 85 20.6055 85 26.1328C85 31.6406 83.0273 36.6211 79.5312 40.4102C78.7695 41.2695 78.5547 42.2852 79.2383 43.0664Z" fill="#000000" fill-opacity="0.85"/>
  <path d="M16.25 35.957C16.9336 35.1758 16.6406 34.1992 15.957 33.3008C14.2969 31.4062 13.4961 28.8672 13.4961 26.1328C13.4961 23.3984 14.2969 20.8398 15.957 18.9453C16.6406 18.0469 16.9336 17.0703 16.25 16.3086C15.5273 15.5078 14.2578 15.4883 13.4961 16.4453C11.2695 19.082 10 22.4805 10 26.1328C10 29.7852 11.2695 33.1641 13.4961 35.8008C14.2578 36.7578 15.5273 36.7578 16.25 35.957ZM72.2656 35.957C72.9688 36.7578 74.2578 36.7578 75.0195 35.8008C77.2266 33.1641 78.5156 29.7852 78.5156 26.1328C78.5156 22.4805 77.2266 19.082 75.0195 16.4453C74.2578 15.4883 72.9688 15.5078 72.2656 16.3086C71.582 17.0703 71.8555 18.0469 72.5391 18.9453C74.1992 20.8398 75 23.3984 75 26.1328C75 28.8672 74.1992 31.4062 72.5391 33.3008C71.8555 34.1992 71.582 35.1758 72.2656 35.957Z" fill="#000000" fill-opacity="0.85"/>
  <path d="M23.9453 42.7344L64.5508 42.7344C66.582 42.7344 67.8125 41.6602 67.8125 40.0586C67.8125 37.5195 65.3125 35.293 63.1836 33.0664C61.2695 31.0156 60.9766 26.8359 60.6445 23.2617C60.293 14.3555 57.7539 8.06641 51.2305 5.85938C50.3906 2.51953 47.832 0 44.2578 0C40.6641 0 38.1055 2.51953 37.2656 5.85938C30.7422 8.06641 28.2031 14.3555 27.8711 23.2617C27.5391 26.8359 27.2461 31.0156 25.332 33.0664C23.1836 35.293 20.7031 37.5195 20.7031 40.0586C20.7031 41.6602 21.9336 42.7344 23.9453 42.7344ZM44.2578 52.2852C48.3984 52.2852 51.3867 49.2773 51.7969 45.8398L36.6992 45.8398C37.1094 49.2773 40.0977 52.2852 44.2578 52.2852Z" fill="#000000" fill-opacity="0.85"/>
 </g>
</svg>
