<?xml version="1.0" encoding="UTF-8"?>
<!--Generator: Apple Native CoreSVG 232.5-->
<!DOCTYPE svg
PUBLIC "-//W3C//DTD SVG 1.1//EN"
       "http://www.w3.org/Graphics/SVG/1.1/DTD/svg11.dtd">
<svg version="1.1" xmlns="http://www.w3.org/2000/svg" xmlns:xlink="http://www.w3.org/1999/xlink" width="71.7383" height="40.2148">
 <g>
  <rect height="40.2148" opacity="0" width="71.7383" x="0" y="0"/>
  <path d="M11.543 35.0195L11.543 6.17188C11.543 4.375 12.4414 3.49609 14.2188 3.49609L57.1484 3.49609C58.9258 3.49609 59.8242 4.375 59.8242 6.17188L59.8242 35.0195Z" fill="#000000" fill-opacity="0.2125"/>
  <path d="M28.3984 3.49609L29.043 3.49609C29.4141 3.49609 29.6094 3.69141 29.6094 4.0625L29.6094 4.35547C29.6094 5.33203 30.2539 5.99609 31.25 5.99609L40.1758 5.99609C41.1523 5.99609 41.7773 5.33203 41.7773 4.35547L41.7773 4.0625C41.7773 3.69141 41.9727 3.49609 42.3633 3.49609L43.0078 3.49609L43.0078 1.73828L28.3984 1.73828ZM0 37.6172C0 39.0625 1.13281 40.2148 2.55859 40.2148L68.8086 40.2148C70.2344 40.2148 71.3672 39.0625 71.3672 37.6172C71.3672 36.1719 70.2344 35.0195 68.8086 35.0195L63.2812 35.0195L63.2812 5.25391C63.2812 1.81641 61.4648 0.0390625 58.0273 0.0390625L13.3398 0.0390625C10.0586 0.0390625 8.08594 1.81641 8.08594 5.25391L8.08594 35.0195L2.55859 35.0195C1.13281 35.0195 0 36.1719 0 37.6172ZM11.543 35.0195L11.543 6.17188C11.543 4.375 12.4414 3.49609 14.2188 3.49609L57.1484 3.49609C58.9258 3.49609 59.8242 4.375 59.8242 6.17188L59.8242 35.0195Z" fill="#000000" fill-opacity="0.85"/>
 </g>
</svg>
