<?xml version="1.0" encoding="UTF-8"?>
<!--Generator: Apple Native CoreSVG 232.5-->
<!DOCTYPE svg
PUBLIC "-//W3C//DTD SVG 1.1//EN"
       "http://www.w3.org/Graphics/SVG/1.1/DTD/svg11.dtd">
<svg version="1.1" xmlns="http://www.w3.org/2000/svg" xmlns:xlink="http://www.w3.org/1999/xlink" width="49.1867" height="48.6492">
 <g>
  <rect height="48.6492" opacity="0" width="49.1867" x="0" y="0"/>
  <path d="M14.8563 48.6102L33.7635 48.6102C43.6465 48.6102 48.8156 43.5299 48.8156 33.7539L48.8156 14.8563C48.8156 5.09375 43.6465 0 33.7635 0L14.8563 0C5.09375 0 0 5.09375 0 14.8563L0 33.7539C0 43.5299 5.09375 48.6102 14.8563 48.6102ZM24.4078 36.4324C17.7105 36.4324 12.3158 31.0316 12.3158 24.3148C12.3158 19.826 14.733 15.8523 18.5969 13.6891L18.5969 24.3148C18.5969 27.5463 21.1373 30.0611 24.4078 30.0611C27.6002 30.0611 30.2188 27.4742 30.2188 24.3148C30.2188 21.142 27.5416 18.4318 24.4078 18.4318C23.2615 18.4318 22.1469 18.8164 21.1959 19.5L21.1959 12.66C22.1469 12.3535 23.242 12.2559 24.4078 12.2559C30.9684 12.2559 36.4863 17.6506 36.4863 24.3148C36.4863 30.901 31.1051 36.4324 24.4078 36.4324ZM24.4078 27.5072C22.6816 27.5072 21.235 26.074 21.235 24.3148C21.235 22.6082 22.7402 21.175 24.4078 21.175C26.0693 21.175 27.5807 22.6729 27.5807 24.3148C27.5807 26.002 26.1084 27.5072 24.4078 27.5072Z" fill="#000000" fill-opacity="0.85"/>
 </g>
</svg>
