<?xml version="1.0" encoding="UTF-8"?>
<!--Generator: Apple Native CoreSVG 232.5-->
<!DOCTYPE svg
PUBLIC "-//W3C//DTD SVG 1.1//EN"
       "http://www.w3.org/Graphics/SVG/1.1/DTD/svg11.dtd">
<svg version="1.1" xmlns="http://www.w3.org/2000/svg" xmlns:xlink="http://www.w3.org/1999/xlink" width="33.3469" height="46.6602">
 <g>
  <rect height="46.6602" opacity="0" width="33.3469" x="0" y="0"/>
  <path d="M11.4881 0C3.88887 0 0 5.59688 0 14.4684L0 19.9973C0 26.3182 1.57871 29.2998 6.06699 31.7662L16.3145 37.3826C18.9762 38.8307 20.2773 39.3055 22.1369 39.3055C25.9402 39.3055 29.0162 36.1932 29.0162 32.4201C29.0162 29.8305 27.6523 27.4166 24.6902 25.8574L4.29297 15.2119C4.29297 8.13535 6.63477 4.31856 11.742 4.31856C20.3629 4.31856 27.785 14.502 28.6033 26.0883C30.2791 27.8125 31.1951 30.0022 31.1951 32.4201C31.1951 36.5791 28.3865 40.0801 24.5805 41.1645C24.7018 43.8113 26.3438 46.6211 28.482 46.6211C30.8879 46.6211 32.9758 37.9779 32.9758 30.1504C32.9758 13.5551 23.2887 0 11.4881 0ZM22.2191 36.8969C19.7555 36.8969 17.7229 34.8643 17.7229 32.408C17.7229 29.9322 19.7555 27.8861 22.2191 27.8861C24.7145 27.8861 26.7289 29.9322 26.7289 32.408C26.7289 34.8899 24.7145 36.8969 22.2191 36.8969ZM22.2191 35.3625C23.8752 35.3625 25.2006 34.025 25.2006 32.408C25.2006 30.7715 23.8752 29.434 22.2191 29.434C20.6082 29.434 19.2572 30.7715 19.2572 32.408C19.2572 34.025 20.6082 35.3625 22.2191 35.3625Z" fill="#000000" fill-opacity="0.85"/>
  <path d="M22.2191 36.8969C19.7555 36.8969 17.7229 34.8643 17.7229 32.408C17.7229 29.9322 19.7555 27.8861 22.2191 27.8861C24.7145 27.8861 26.7289 29.9322 26.7289 32.408C26.7289 34.8899 24.7145 36.8969 22.2191 36.8969ZM22.2191 35.3625C23.8752 35.3625 25.2006 34.025 25.2006 32.408C25.2006 30.7715 23.8752 29.434 22.2191 29.434C20.6082 29.434 19.2572 30.7715 19.2572 32.408C19.2572 34.025 20.6082 35.3625 22.2191 35.3625Z" fill="#000000" fill-opacity="0.2125"/>
 </g>
</svg>
