<?xml version="1.0" encoding="UTF-8"?>
<!--Generator: Apple Native CoreSVG 232.5-->
<!DOCTYPE svg
PUBLIC "-//W3C//DTD SVG 1.1//EN"
       "http://www.w3.org/Graphics/SVG/1.1/DTD/svg11.dtd">
<svg version="1.1" xmlns="http://www.w3.org/2000/svg" xmlns:xlink="http://www.w3.org/1999/xlink" width="49.2809" height="52.1676">
 <g>
  <rect height="52.1676" opacity="0" width="49.2809" x="0" y="0"/>
  <path d="M0 24.552C0 28.7836 1.13145 33.0719 2.8336 36.6115C2.10625 37.2965 2.00723 38.6711 2.5791 39.8344L8.04277 50.9361C8.38496 51.6461 9.17578 52.0092 9.9336 52.0092C10.7574 52.0092 11.5482 51.5484 11.7543 50.5703L5.93418 38.7395C4.48868 35.8033 2.52305 30.6359 2.52305 24.5654C2.52305 11.5135 11.491 2.75489 24.4549 2.75489C37.4188 2.75489 46.3867 11.5135 46.3867 24.5654C46.3867 30.6359 44.4211 35.8033 42.9695 38.7395L37.1555 50.5703C37.3615 51.5484 38.1523 52.0092 38.9762 52.0092C39.734 52.0092 40.5248 51.6461 40.867 50.9361L46.3307 39.8344C46.9025 38.6711 46.8035 37.2965 46.0762 36.6115C47.7783 33.0719 48.9098 28.7836 48.9098 24.552C48.9098 10.3434 39.1273 0 24.4549 0C9.78242 0 0 10.3434 0 24.552Z" fill="#000000" fill-opacity="0.85"/>
  <path d="M10.2227 33.9686C9.62911 32.7484 8.52891 32.4453 7.6127 32.7041C6.38477 32.9838 5.36778 34.3748 6.25626 36.1592L12.9883 49.832C13.6404 51.1559 14.8006 51.6672 15.9129 51.2305C17.1604 50.8895 17.9139 49.5342 17.1723 48.018ZM38.6871 33.9686L31.7375 48.018C30.9959 49.5342 31.7434 50.8895 32.9969 51.2305C34.1092 51.6672 35.2693 51.1559 35.9215 49.832L42.6535 36.1592C43.542 34.3748 42.525 32.9838 41.2971 32.7041C40.3809 32.4453 39.2807 32.7484 38.6871 33.9686Z" fill="#000000" fill-opacity="0.425"/>
 </g>
</svg>
