<?xml version="1.0" encoding="UTF-8"?>
<!--Generator: Apple Native CoreSVG 232.5-->
<!DOCTYPE svg
PUBLIC "-//W3C//DTD SVG 1.1//EN"
       "http://www.w3.org/Graphics/SVG/1.1/DTD/svg11.dtd">
<svg version="1.1" xmlns="http://www.w3.org/2000/svg" xmlns:xlink="http://www.w3.org/1999/xlink" width="61.9327" height="55.0969">
 <g>
  <rect height="55.0969" opacity="0" width="61.9327" x="0" y="0"/>
  <path d="M48.2327 7.01543L48.2327 17.9273C47.2053 17.215 45.8869 17.047 44.4528 17.5699C43.7362 17.8238 43.0675 18.2387 42.4243 18.7451C41.3042 17.1893 39.4493 16.6094 37.4786 17.3078C36.8698 17.5287 36.2611 17.9092 35.6778 18.3301L32.6573 10.035C31.6827 7.35762 29.2741 6.33848 26.9489 7.16563C24.5409 8.05137 23.365 10.3725 24.3335 13.0498L32.04 34.1494C32.0595 34.2861 32.04 34.3838 31.9288 34.4424C31.8312 34.4814 31.7214 34.4424 31.6372 34.3326L27.315 29.5316C25.906 27.9873 24.2808 27.5879 22.7566 28.1059C20.6767 28.8899 19.3659 30.9024 20.2294 33.2389C20.4456 33.8242 20.8599 34.5658 21.3388 35.1512L24.5951 39.1059L8.62648 39.1059C3.94543 39.1059 1.54972 36.7445 1.54972 32.0904L1.54972 7.01543C1.54972 2.36133 3.94543 0 8.62648 0L41.156 0C45.837 0 48.2327 2.36133 48.2327 7.01543Z" fill="#000000" fill-opacity="0.85"/>
  <path d="M50.8364 52.2115C59.9689 48.8971 64.4394 40.6031 60.4913 29.71L58.7839 25.0262C56.7917 19.6086 53.3917 17.4305 49.2206 18.892C48.1362 17.4244 46.4013 16.8594 44.4528 17.5699C43.7362 17.8238 43.0675 18.2387 42.4243 18.7451C41.3042 17.1893 39.4493 16.6094 37.4786 17.3078C36.8698 17.5287 36.2611 17.9092 35.6778 18.3301L32.6573 10.035C31.6827 7.35762 29.2741 6.33848 26.9489 7.16563C24.5409 8.05137 23.365 10.3725 24.3335 13.0498L32.04 34.1494C32.0595 34.2861 32.04 34.3838 31.9288 34.4424C31.8312 34.4814 31.7214 34.4424 31.6372 34.3326L27.315 29.5316C25.906 27.9873 24.2808 27.5879 22.7566 28.1059C20.6767 28.8899 19.3659 30.9024 20.2294 33.2389C20.4456 33.8242 20.8599 34.5658 21.3388 35.1512L30.1189 45.8143C35.9079 52.8318 43.0068 55.0713 50.8364 52.2115ZM50.1183 50.0334C43.4339 52.4613 37.1187 50.7887 31.8657 44.3928L23.0917 33.725C22.7866 33.3822 22.5927 33.0576 22.4243 32.5977C22.056 31.6024 22.5448 30.5168 23.6587 30.0959C24.5214 29.7908 25.3591 30.141 26.147 30.9922L31.8993 37.1633C32.6255 37.9797 33.3732 38.0895 34.1134 37.8342C34.9527 37.5068 35.3884 36.6527 35.0355 35.6902L26.4644 12.1504C25.9937 10.8359 26.4671 9.67364 27.6941 9.2211C28.9075 8.77598 29.9749 9.39415 30.4517 10.716L36.514 27.3182C36.7329 27.9453 37.3446 28.2848 37.9913 28.0598C38.6111 27.8422 38.8294 27.1881 38.5984 26.5549L36.3616 20.4395C36.8384 20.0395 37.4323 19.6502 37.9765 19.4697C39.3853 18.9465 40.5624 19.5539 41.1429 21.1344L42.9103 25.9934C43.1864 26.7531 43.8237 26.96 44.3816 26.7484C44.9454 26.5551 45.2829 25.9838 44.9946 25.2301L43.3554 20.682C43.7991 20.2686 44.4066 19.9063 44.9433 19.6988C46.3851 19.2012 47.5622 19.783 48.1232 21.3891L49.3275 24.6941C49.6083 25.4479 50.2409 25.6547 50.8109 25.4492C51.3357 25.2693 51.6927 24.6846 51.4239 23.9309L50.3282 20.9535C52.9114 20.0047 55.1722 21.8049 56.7144 26.0678L58.2452 30.2832C61.7972 40.015 58.1532 47.0922 50.1183 50.0334Z" fill="#000000" fill-opacity="0.85"/>
 </g>
</svg>
