<?xml version="1.0" encoding="UTF-8"?>
<!--Generator: Apple Native CoreSVG 232.5-->
<!DOCTYPE svg
PUBLIC "-//W3C//DTD SVG 1.1//EN"
       "http://www.w3.org/Graphics/SVG/1.1/DTD/svg11.dtd">
<svg version="1.1" xmlns="http://www.w3.org/2000/svg" xmlns:xlink="http://www.w3.org/1999/xlink" width="38.9276" height="41.65">
 <g>
  <rect height="41.65" opacity="0" width="38.9276" x="0" y="0"/>
  <path d="M8.62442 30.3301C13.434 30.3301 16.8986 26.1738 16.0486 20.9924L14.5635 12.0693C14.3231 10.5635 14.775 9.70137 16.1483 9.05821C18.8736 7.71778 22.1024 6.8207 26.1293 6.21992C28.5022 5.8791 29.8377 4.09492 29.8377 1.6043C29.8377 0.536133 29.2666 0 27.7694 0C22.786 0 17.8281 0.791407 12.7666 2.55469C3.90528 5.6252-1.06757 10.9891 0.193953 17.81L1.44806 24.519C2.16602 28.457 5.53497 30.3301 8.62442 30.3301ZM8.62442 26.9502C6.29884 26.9502 4.45548 25.1143 4.45548 22.7691C4.45548 20.424 6.29884 18.5881 8.62442 18.5881C10.9426 18.5881 12.792 20.4375 12.792 22.7691C12.792 25.1068 10.9426 26.9502 8.62442 26.9502ZM8.62442 25.4084C10.1033 25.4084 11.2576 24.2541 11.2576 22.7691C11.2576 21.2902 10.1033 20.1225 8.62442 20.1225C7.1381 20.1225 5.9838 21.2902 5.9838 22.7691C5.9838 24.2541 7.1381 25.4084 8.62442 25.4084ZM8.62442 32.509C5.01231 32.509 1.91075 30.6494 0.315828 27.7311C0.680282 35.3434 7.39825 39.5729 15.8426 39.5729C17.9951 39.5729 19.5119 39.2799 21.0004 38.5289C24.0252 33.2633 26.1926 27.7451 27.5383 21.7629C26.0215 18.5535 22.4713 16.3363 17.2678 14.9994L18.1885 20.632C19.2608 27.0736 14.8572 32.509 8.62442 32.509Z" fill="#000000" fill-opacity="0.85"/>
  <path d="M38.5518 31.6791C38.5518 26.5742 34.7574 22.8174 29.7051 22.1117C28.2813 28.3654 26.0074 34.2723 22.7604 39.8053C24.4971 40.9945 26.4774 41.6035 28.6543 41.6035C34.6049 41.6035 38.5518 37.625 38.5518 31.6791Z" fill="#000000" fill-opacity="0.425"/>
  <path d="M8.62442 26.9502C6.29884 26.9502 4.45548 25.1143 4.45548 22.7691C4.45548 20.424 6.29884 18.5881 8.62442 18.5881C10.9426 18.5881 12.792 20.4375 12.792 22.7691C12.792 25.1068 10.9426 26.9502 8.62442 26.9502ZM8.62442 25.4084C10.1033 25.4084 11.2576 24.2541 11.2576 22.7691C11.2576 21.2902 10.1033 20.1225 8.62442 20.1225C7.1381 20.1225 5.9838 21.2902 5.9838 22.7691C5.9838 24.2541 7.1381 25.4084 8.62442 25.4084Z" fill="#000000" fill-opacity="0.2125"/>
 </g>
</svg>
