<?xml version="1.0" encoding="UTF-8"?>
<!--Generator: Apple Native CoreSVG 149-->
<!DOCTYPE svg
PUBLIC "-//W3C//DTD SVG 1.1//EN"
       "http://www.w3.org/Graphics/SVG/1.1/DTD/svg11.dtd">
<svg version="1.1" xmlns="http://www.w3.org/2000/svg" xmlns:xlink="http://www.w3.org/1999/xlink" width="3300" height="2200">
 <!--glyph: "", point size: 100.0, font version: "17.0d9e1", template writer version: "59"-->
 <style>.multicolor-0:systemBlueColor {fill:#007AFF;opacity:1.0}
.multicolor-1:white {fill:#FFFFFF;opacity:1.0}

.hierarchical-0:secondary {fill:#4D4D4D}
.hierarchical-1:primary {fill:#212121}

.SFSymbolsPreview007AFF {fill:#007AFF;opacity:1.0}
</style>
 <g id="Notes">
  <rect height="2200" id="artboard" style="fill:white;opacity:1" width="3300" x="0" y="0"/>
  <line style="fill:none;stroke:black;opacity:1;stroke-width:0.5;" x1="263" x2="3036" y1="292" y2="292"/>
  <text style="stroke:none;fill:black;font-family:sans-serif;font-size:13;font-weight:bold;" transform="matrix(1 0 0 1 263 322)">Weight/Scale Variations</text>
  <text style="stroke:none;fill:black;font-family:sans-serif;font-size:13;text-anchor:middle;" transform="matrix(1 0 0 1 559.711 322)">Ultralight</text>
  <text style="stroke:none;fill:black;font-family:sans-serif;font-size:13;text-anchor:middle;" transform="matrix(1 0 0 1 856.422 322)">Thin</text>
  <text style="stroke:none;fill:black;font-family:sans-serif;font-size:13;text-anchor:middle;" transform="matrix(1 0 0 1 1153.13 322)">Light</text>
  <text style="stroke:none;fill:black;font-family:sans-serif;font-size:13;text-anchor:middle;" transform="matrix(1 0 0 1 1449.84 322)">Regular</text>
  <text style="stroke:none;fill:black;font-family:sans-serif;font-size:13;text-anchor:middle;" transform="matrix(1 0 0 1 1746.56 322)">Medium</text>
  <text style="stroke:none;fill:black;font-family:sans-serif;font-size:13;text-anchor:middle;" transform="matrix(1 0 0 1 2043.27 322)">Semibold</text>
  <text style="stroke:none;fill:black;font-family:sans-serif;font-size:13;text-anchor:middle;" transform="matrix(1 0 0 1 2339.98 322)">Bold</text>
  <text style="stroke:none;fill:black;font-family:sans-serif;font-size:13;text-anchor:middle;" transform="matrix(1 0 0 1 2636.69 322)">Heavy</text>
  <text style="stroke:none;fill:black;font-family:sans-serif;font-size:13;text-anchor:middle;" transform="matrix(1 0 0 1 2933.4 322)">Black</text>
  <line style="fill:none;stroke:black;opacity:1;stroke-width:0.5;" x1="263" x2="3036" y1="1903" y2="1903"/>
  <g transform="matrix(1 0 0 1 263 1933)">
   <path d="M9.24805 0.830078Q10.8691 0.830078 12.2949 0.214844Q13.7207-0.400391 14.8096-1.49414Q15.8984-2.58789 16.5186-4.01367Q17.1387-5.43945 17.1387-7.05078Q17.1387-8.66211 16.5186-10.0879Q15.8984-11.5137 14.8047-12.6074Q13.7109-13.7012 12.2852-14.3164Q10.8594-14.9316 9.23828-14.9316Q7.62695-14.9316 6.20117-14.3164Q4.77539-13.7012 3.69141-12.6074Q2.60742-11.5137 1.9873-10.0879Q1.36719-8.66211 1.36719-7.05078Q1.36719-5.43945 1.9873-4.01367Q2.60742-2.58789 3.69629-1.49414Q4.78516-0.400391 6.21094 0.214844Q7.63672 0.830078 9.24805 0.830078ZM9.24805-0.654297Q7.91992-0.654297 6.7627-1.14746Q5.60547-1.64062 4.73145-2.51953Q3.85742-3.39844 3.36426-4.56055Q2.87109-5.72266 2.87109-7.05078Q2.87109-8.37891 3.35938-9.54102Q3.84766-10.7031 4.72168-11.582Q5.5957-12.4609 6.75293-12.9541Q7.91016-13.4473 9.23828-13.4473Q10.5762-13.4473 11.7334-12.9541Q12.8906-12.4609 13.7695-11.582Q14.6484-10.7031 15.1465-9.54102Q15.6445-8.37891 15.6445-7.05078Q15.6445-5.72266 15.1514-4.56055Q14.6582-3.39844 13.7842-2.51953Q12.9102-1.64062 11.748-1.14746Q10.5859-0.654297 9.24805-0.654297ZM5.83984-7.04102Q5.83984-6.71875 6.04492-6.51855Q6.25-6.31836 6.5918-6.31836L8.50586-6.31836L8.50586-4.39453Q8.50586-4.0625 8.70605-3.85742Q8.90625-3.65234 9.22852-3.65234Q9.56055-3.65234 9.76562-3.85742Q9.9707-4.0625 9.9707-4.39453L9.9707-6.31836L11.8945-6.31836Q12.2266-6.31836 12.4316-6.51855Q12.6367-6.71875 12.6367-7.04102Q12.6367-7.37305 12.4316-7.57812Q12.2266-7.7832 11.8945-7.7832L9.9707-7.7832L9.9707-9.69727Q9.9707-10.0391 9.76562-10.2441Q9.56055-10.4492 9.22852-10.4492Q8.90625-10.4492 8.70605-10.2441Q8.50586-10.0391 8.50586-9.69727L8.50586-7.7832L6.5918-7.7832Q6.25-7.7832 6.04492-7.57812Q5.83984-7.37305 5.83984-7.04102Z"/>
  </g>
  <g transform="matrix(1 0 0 1 281.867 1933)">
   <path d="M11.709 2.91016Q13.75 2.91016 15.5518 2.12891Q17.3535 1.34766 18.7305-0.0292969Q20.1074-1.40625 20.8887-3.20801Q21.6699-5.00977 21.6699-7.05078Q21.6699-9.0918 20.8887-10.8936Q20.1074-12.6953 18.7305-14.0723Q17.3535-15.4492 15.5469-16.2305Q13.7402-17.0117 11.6992-17.0117Q9.6582-17.0117 7.85645-16.2305Q6.05469-15.4492 4.68262-14.0723Q3.31055-12.6953 2.5293-10.8936Q1.74805-9.0918 1.74805-7.05078Q1.74805-5.00977 2.5293-3.20801Q3.31055-1.40625 4.6875-0.0292969Q6.06445 1.34766 7.86621 2.12891Q9.66797 2.91016 11.709 2.91016ZM11.709 1.25Q9.98047 1.25 8.47656 0.605469Q6.97266-0.0390625 5.83496-1.17676Q4.69727-2.31445 4.05762-3.81836Q3.41797-5.32227 3.41797-7.05078Q3.41797-8.7793 4.05762-10.2832Q4.69727-11.7871 5.83008-12.9297Q6.96289-14.0723 8.4668-14.7119Q9.9707-15.3516 11.6992-15.3516Q13.4277-15.3516 14.9316-14.7119Q16.4355-14.0723 17.5781-12.9297Q18.7207-11.7871 19.3652-10.2832Q20.0098-8.7793 20.0098-7.05078Q20.0098-5.32227 19.3701-3.81836Q18.7305-2.31445 17.5928-1.17676Q16.4551-0.0390625 14.9463 0.605469Q13.4375 1.25 11.709 1.25ZM7.39258-7.04102Q7.39258-6.68945 7.62695-6.46484Q7.86133-6.24023 8.23242-6.24023L10.8789-6.24023L10.8789-3.57422Q10.8789-3.21289 11.1035-2.9834Q11.3281-2.75391 11.6797-2.75391Q12.0508-2.75391 12.2852-2.9834Q12.5195-3.21289 12.5195-3.57422L12.5195-6.24023L15.1758-6.24023Q15.5371-6.24023 15.7715-6.46484Q16.0059-6.68945 16.0059-7.04102Q16.0059-7.41211 15.7715-7.6416Q15.5371-7.87109 15.1758-7.87109L12.5195-7.87109L12.5195-10.5176Q12.5195-10.8984 12.2852-11.1279Q12.0508-11.3574 11.6797-11.3574Q11.3281-11.3574 11.1035-11.1279Q10.8789-10.8984 10.8789-10.5176L10.8789-7.87109L8.23242-7.87109Q7.85156-7.87109 7.62207-7.6416Q7.39258-7.41211 7.39258-7.04102Z"/>
  </g>
  <g transform="matrix(1 0 0 1 305.646 1933)">
   <path d="M14.9707 5.66406Q17.0605 5.66406 18.96 5.01465Q20.8594 4.36523 22.4512 3.19336Q24.043 2.02148 25.2197 0.429688Q26.3965-1.16211 27.0459-3.06641Q27.6953-4.9707 27.6953-7.05078Q27.6953-9.14062 27.0459-11.04Q26.3965-12.9395 25.2197-14.5312Q24.043-16.123 22.4512-17.2998Q20.8594-18.4766 18.9551-19.126Q17.0508-19.7754 14.9609-19.7754Q12.8711-19.7754 10.9717-19.126Q9.07227-18.4766 7.48535-17.2998Q5.89844-16.123 4.72168-14.5312Q3.54492-12.9395 2.90039-11.04Q2.25586-9.14062 2.25586-7.05078Q2.25586-4.9707 2.90527-3.06641Q3.55469-1.16211 4.72656 0.429688Q5.89844 2.02148 7.49023 3.19336Q9.08203 4.36523 10.9814 5.01465Q12.8809 5.66406 14.9707 5.66406ZM14.9707 3.84766Q13.1641 3.84766 11.5283 3.2959Q9.89258 2.74414 8.53516 1.74805Q7.17773 0.751953 6.17676-0.610352Q5.17578-1.97266 4.62891-3.6084Q4.08203-5.24414 4.08203-7.05078Q4.08203-8.86719 4.62891-10.5029Q5.17578-12.1387 6.17188-13.501Q7.16797-14.8633 8.52539-15.8594Q9.88281-16.8555 11.5186-17.4023Q13.1543-17.9492 14.9609-17.9492Q16.7773-17.9492 18.4131-17.4023Q20.0488-16.8555 21.4111-15.8594Q22.7734-14.8633 23.7695-13.501Q24.7656-12.1387 25.3174-10.5029Q25.8691-8.86719 25.8691-7.05078Q25.8789-5.24414 25.332-3.6084Q24.7852-1.97266 23.7842-0.610352Q22.7832 0.751953 21.4209 1.74805Q20.0586 2.74414 18.4229 3.2959Q16.7871 3.84766 14.9707 3.84766ZM9.45312-7.04102Q9.45312-6.66016 9.71191-6.41113Q9.9707-6.16211 10.3711-6.16211L14.0625-6.16211L14.0625-2.46094Q14.0625-2.06055 14.3115-1.80664Q14.5605-1.55273 14.9414-1.55273Q15.3516-1.55273 15.6055-1.80664Q15.8594-2.06055 15.8594-2.46094L15.8594-6.16211L19.5605-6.16211Q19.9609-6.16211 20.2148-6.41113Q20.4688-6.66016 20.4688-7.04102Q20.4688-7.45117 20.2148-7.70508Q19.9609-7.95898 19.5605-7.95898L15.8594-7.95898L15.8594-11.6504Q15.8594-12.0605 15.6055-12.3145Q15.3516-12.5684 14.9414-12.5684Q14.5605-12.5684 14.3115-12.3096Q14.0625-12.0508 14.0625-11.6504L14.0625-7.95898L10.3711-7.95898Q9.96094-7.95898 9.70703-7.70508Q9.45312-7.45117 9.45312-7.04102Z"/>
  </g>
  <text style="stroke:none;fill:black;font-family:sans-serif;font-size:13;font-weight:bold;" transform="matrix(1 0 0 1 263 1953)">Design Variations</text>
  <text style="stroke:none;fill:black;font-family:sans-serif;font-size:13;" transform="matrix(1 0 0 1 263 1971)">Symbols are supported in up to nine weights and three scales.</text>
  <text style="stroke:none;fill:black;font-family:sans-serif;font-size:13;" transform="matrix(1 0 0 1 263 1989)">For optimal layout with text and other symbols, vertically align</text>
  <text style="stroke:none;fill:black;font-family:sans-serif;font-size:13;" transform="matrix(1 0 0 1 263 2007)">symbols with the adjacent text.</text>
  <line style="fill:none;stroke:#00AEEF;stroke-width:0.5;opacity:1.0;" x1="776" x2="776" y1="1919" y2="1933"/>
  <g transform="matrix(1 0 0 1 776 1933)">
   <path d="M3.31055 0.15625Q3.70117 0.15625 3.91602-0.00976562Q4.13086-0.175781 4.26758-0.585938L5.52734-4.0332L11.2891-4.0332L12.5488-0.585938Q12.6855-0.175781 12.9004-0.00976562Q13.1152 0.15625 13.4961 0.15625Q13.8867 0.15625 14.1162-0.0585938Q14.3457-0.273438 14.3457-0.644531Q14.3457-0.869141 14.2383-1.17188L9.6582-13.3691Q9.48242-13.8184 9.17969-14.043Q8.87695-14.2676 8.4082-14.2676Q7.5-14.2676 7.17773-13.3789L2.59766-1.16211Q2.49023-0.859375 2.49023-0.634766Q2.49023-0.263672 2.70996-0.0537109Q2.92969 0.15625 3.31055 0.15625ZM6.00586-5.51758L8.37891-12.0898L8.42773-12.0898L10.8008-5.51758Z"/>
  </g>
  <line style="fill:none;stroke:#00AEEF;stroke-width:0.5;opacity:1.0;" x1="793.197" x2="793.197" y1="1919" y2="1933"/>
  <text style="stroke:none;fill:black;font-family:sans-serif;font-size:13;font-weight:bold;" transform="matrix(1 0 0 1 776 1953)">Margins</text>
  <text style="stroke:none;fill:black;font-family:sans-serif;font-size:13;" transform="matrix(1 0 0 1 776 1971)">Leading and trailing margins on the left and right side of each symbol</text>
  <text style="stroke:none;fill:black;font-family:sans-serif;font-size:13;" transform="matrix(1 0 0 1 776 1989)">can be adjusted by modifying the x-location of the margin guidelines.</text>
  <text style="stroke:none;fill:black;font-family:sans-serif;font-size:13;" transform="matrix(1 0 0 1 776 2007)">Modifications are automatically applied proportionally to all</text>
  <text style="stroke:none;fill:black;font-family:sans-serif;font-size:13;" transform="matrix(1 0 0 1 776 2025)">scales and weights.</text>
  <g transform="matrix(1 0 0 1 1289 1933)">
   <path d="M2.8418 1.86523L4.54102 3.57422Q5.18555 4.22852 5.90332 4.17969Q6.62109 4.13086 7.31445 3.35938L18.0078-8.42773L17.041-9.4043L6.42578 2.27539Q6.16211 2.57812 5.89355 2.61719Q5.625 2.65625 5.27344 2.30469L4.10156 1.14258Q3.75 0.791016 3.79395 0.522461Q3.83789 0.253906 4.14062-0.0195312L15.6152-10.8203L14.6387-11.7871L3.04688-0.898438Q2.30469-0.214844 2.25098 0.498047Q2.19727 1.21094 2.8418 1.86523ZM9.25781-16.3281Q8.94531-16.0254 8.90625-15.6348Q8.86719-15.2441 9.04297-14.9512Q9.21875-14.6777 9.55566-14.541Q9.89258-14.4043 10.3809-14.5215Q11.4746-14.7754 12.5977-14.7314Q13.7207-14.6875 14.7949-13.9844L14.209-12.5293Q13.9551-11.9043 14.0674-11.4404Q14.1797-10.9766 14.5801-10.5664L16.875-8.25195Q17.2363-7.88086 17.5781-7.82227Q17.9199-7.76367 18.3398-7.8418L19.4043-8.03711L20.0684-7.36328L20.0293-6.80664Q20-6.43555 20.1221-6.12305Q20.2441-5.81055 20.6055-5.44922L21.3672-4.70703Q21.7285-4.3457 22.1533-4.33105Q22.5781-4.31641 22.9297-4.66797L25.8398-7.58789Q26.1914-7.93945 26.1816-8.35449Q26.1719-8.76953 25.8105-9.13086L25.0391-9.89258Q24.6875-10.2539 24.3799-10.3857Q24.0723-10.5176 23.7109-10.4883L23.1348-10.4395L22.4902-11.0742L22.7344-12.1973Q22.832-12.6172 22.6953-12.9834Q22.5586-13.3496 22.1191-13.7891L19.9219-15.9766Q18.6719-17.2168 17.2607-17.8369Q15.8496-18.457 14.4189-18.4814Q12.9883-18.5059 11.665-17.959Q10.3418-17.4121 9.25781-16.3281ZM10.752-15.957Q11.6602-16.6211 12.7002-16.9043Q13.7402-17.1875 14.8047-17.085Q15.8691-16.9824 16.8701-16.5137Q17.8711-16.0449 18.7012-15.2051L21.1328-12.793Q21.3086-12.6172 21.3525-12.4512Q21.3965-12.2852 21.3379-12.0312L21.0156-10.5469L22.5195-9.0625L23.5059-9.12109Q23.6914-9.13086 23.7891-9.09668Q23.8867-9.0625 24.0332-8.91602L24.6094-8.33984L22.168-5.89844L21.5918-6.47461Q21.4453-6.62109 21.4062-6.71875Q21.3672-6.81641 21.377-7.01172L21.4453-7.98828L19.9512-9.47266L18.4277-9.21875Q18.1836-9.16992 18.042-9.2041Q17.9004-9.23828 17.7148-9.41406L15.7129-11.416Q15.5176-11.5918 15.4932-11.7529Q15.4688-11.9141 15.5859-12.1875L16.4648-14.2773Q15.293-15.3711 13.8281-15.791Q12.3633-16.2109 10.8398-15.7617Q10.7227-15.7324 10.6885-15.8057Q10.6543-15.8789 10.752-15.957Z"/>
  </g>
  <text style="stroke:none;fill:black;font-family:sans-serif;font-size:13;font-weight:bold;" transform="matrix(1 0 0 1 1289 1953)">Exporting</text>
  <text style="stroke:none;fill:black;font-family:sans-serif;font-size:13;" transform="matrix(1 0 0 1 1289 1971)">Symbols should be outlined when exporting to ensure the</text>
  <text style="stroke:none;fill:black;font-family:sans-serif;font-size:13;" transform="matrix(1 0 0 1 1289 1989)">design is preserved when submitting to Xcode.</text>
  <text id="template-version" style="stroke:none;fill:black;font-family:sans-serif;font-size:13;text-anchor:end;" transform="matrix(1 0 0 1 3036 1933)">Template v.3.0</text>
  <text style="stroke:none;fill:black;font-family:sans-serif;font-size:13;text-anchor:end;" transform="matrix(1 0 0 1 3036 1951)">Requires Xcode 13 or greater</text>
  <text id="descriptive-name" style="stroke:none;fill:black;font-family:sans-serif;font-size:13;text-anchor:end;" transform="matrix(1 0 0 1 3036 1969)">Generated from logo.bluetooth.capsule.portrait.fill</text>
  <text style="stroke:none;fill:black;font-family:sans-serif;font-size:13;text-anchor:end;" transform="matrix(1 0 0 1 3036 1987)">Typeset at 100 points</text>
  <text style="stroke:none;fill:black;font-family:sans-serif;font-size:13;" transform="matrix(1 0 0 1 263 726)">Small</text>
  <text style="stroke:none;fill:black;font-family:sans-serif;font-size:13;" transform="matrix(1 0 0 1 263 1156)">Medium</text>
  <text style="stroke:none;fill:black;font-family:sans-serif;font-size:13;" transform="matrix(1 0 0 1 263 1586)">Large</text>
 </g>
 <g id="Guides">
  <g id="H-reference" style="fill:#27AAE1;stroke:none;" transform="matrix(1 0 0 1 339 696)">
   <path d="M0.976562 0L3.66211 0L29.3457-67.1387L30.0293-67.1387L30.0293-70.459L28.125-70.459ZM11.6699-24.4629L46.9727-24.4629L46.2402-26.709L12.4512-26.709ZM55.127 0L57.7637 0L30.6152-70.459L29.4434-70.459L29.4434-67.1387Z"/>
  </g>
  <line id="Baseline-S" style="fill:none;stroke:#27AAE1;opacity:1;stroke-width:0.5;" x1="263" x2="3036" y1="696" y2="696"/>
  <line id="Capline-S" style="fill:none;stroke:#27AAE1;opacity:1;stroke-width:0.5;" x1="263" x2="3036" y1="625.541" y2="625.541"/>
  <g id="H-reference" style="fill:#27AAE1;stroke:none;" transform="matrix(1 0 0 1 339 1126)">
   <path d="M0.976562 0L3.66211 0L29.3457-67.1387L30.0293-67.1387L30.0293-70.459L28.125-70.459ZM11.6699-24.4629L46.9727-24.4629L46.2402-26.709L12.4512-26.709ZM55.127 0L57.7637 0L30.6152-70.459L29.4434-70.459L29.4434-67.1387Z"/>
  </g>
  <line id="Baseline-M" style="fill:none;stroke:#27AAE1;opacity:1;stroke-width:0.5;" x1="263" x2="3036" y1="1126" y2="1126"/>
  <line id="Capline-M" style="fill:none;stroke:#27AAE1;opacity:1;stroke-width:0.5;" x1="263" x2="3036" y1="1055.54" y2="1055.54"/>
  <g id="H-reference" style="fill:#27AAE1;stroke:none;" transform="matrix(1 0 0 1 339 1556)">
   <path d="M0.976562 0L3.66211 0L29.3457-67.1387L30.0293-67.1387L30.0293-70.459L28.125-70.459ZM11.6699-24.4629L46.9727-24.4629L46.2402-26.709L12.4512-26.709ZM55.127 0L57.7637 0L30.6152-70.459L29.4434-70.459L29.4434-67.1387Z"/>
  </g>
  <line id="Baseline-L" style="fill:none;stroke:#27AAE1;opacity:1;stroke-width:0.5;" x1="263" x2="3036" y1="1556" y2="1556"/>
  <line id="Capline-L" style="fill:none;stroke:#27AAE1;opacity:1;stroke-width:0.5;" x1="263" x2="3036" y1="1485.54" y2="1485.54"/>
  <line id="left-margin-Regular-M" style="fill:none;stroke:#00AEEF;stroke-width:0.5;opacity:1.0;" x1="1397.61" x2="1397.61" y1="1030.73" y2="1150.14"/>
  <line id="right-margin-Regular-M" style="fill:none;stroke:#00AEEF;stroke-width:0.5;opacity:1.0;" x1="1502.08" x2="1502.08" y1="1030.73" y2="1150.14"/>
 </g>
 <g id="Symbols">
  <g id="Black-L" transform="matrix(1 0 0 1 2865.34 1556)">
   <path class="multicolor-0:systemBlueColor hierarchical-0:secondary SFSymbolsPreview007AFF" d="M72.6464-111.835L63.4232-111.835C38.0594-111.835 17.4719-91.248 17.4719-65.8842L17.4719-3.6276C17.4719 21.7362 38.0594 42.3237 63.4232 42.3237L72.6464 42.3237C98.0102 42.3237 118.598 21.7362 118.598-3.6276L118.598-65.8842C118.598-91.248 98.0102-111.835 72.6464-111.835Z"/>
   <path class="multicolor-1:white hierarchical-1:primary SFSymbolsPreview007AFF" d="M71.4935-72.4722L71.4935-43.9791L84.712-56.9904ZM71.4935 5.1015L84.8342-11.0391L71.4935-24.5445ZM96.0763-11.5332L62.9716 28.4889L62.9716-24.0504L45.184-6.5922L39.2548-12.5214L61.5317-34.3042L39.2972-56.7034L45.2264-62.6326L63.014-44.6803L63.014-94.7491L96.1187-56.374L73.3928-34.1422L96.0763-11.5332Z"/>
  </g>
  <g id="Heavy-L" transform="matrix(1 0 0 1 2568.79 1556)">
   <path class="multicolor-0:systemBlueColor hierarchical-0:secondary SFSymbolsPreview007AFF" d="M72.4761-111.835L63.2529-111.835C37.8891-111.835 17.3016-91.248 17.3016-65.8842L17.3016-3.6276C17.3016 21.7362 37.8891 42.3237 63.2529 42.3237L72.4761 42.3237C97.8399 42.3237 118.427 21.7362 118.427-3.6276L118.427-65.8842C118.427-91.248 97.8399-111.835 72.4761-111.835Z"/>
   <path class="multicolor-1:white hierarchical-1:primary SFSymbolsPreview007AFF" d="M71.3232-72.4722L71.3232-43.9791L84.5602-56.9904ZM71.3232 5.1015L84.6639-11.0391L71.3232-24.5445ZM95.9245-11.5332L62.8198 28.4889L62.8198-24.0504L45.0322-6.5922L39.103-12.5214L61.3984-34.3228L39.1639-56.722L45.0931-62.6512L62.8807-44.6989L62.8807-94.7677L95.9854-56.3926L73.2692-34.1704L95.9245-11.5332Z"/>
  </g>
  <g id="Bold-L" transform="matrix(1 0 0 1 2272.28 1556)">
   <path class="multicolor-0:systemBlueColor hierarchical-0:secondary SFSymbolsPreview007AFF" d="M72.2679-111.835L63.0447-111.835C37.6809-111.835 17.0934-91.248 17.0934-65.8842L17.0934-3.6276C17.0934 21.7362 37.6809 42.3237 63.0447 42.3237L72.2679 42.3237C97.6317 42.3237 118.219 21.7362 118.219-3.6276L118.219-65.8842C118.219-91.248 97.6317-111.835 72.2679-111.835Z"/>
   <path class="multicolor-1:white hierarchical-1:primary SFSymbolsPreview007AFF" d="M71.115-72.4722L71.115-43.9791L84.3667-56.9904ZM71.115 5.1015L84.4557-11.0391L71.115-24.5445ZM95.731-11.5332L62.6263 28.4889L62.6263-24.0504L44.8387-6.5922L38.9095-12.5214L61.2198-34.3376L38.9853-56.7368L44.9145-62.666L62.7021-44.7137L62.7021-94.7825L95.8068-56.4074L73.1073-34.202L95.731-11.5332Z"/>
  </g>
  <g id="Semibold-L" transform="matrix(1 0 0 1 1975.71 1556)">
   <path class="multicolor-0:systemBlueColor hierarchical-0:secondary SFSymbolsPreview007AFF" d="M72.1243-111.835L62.9011-111.835C37.5373-111.835 16.9498-91.248 16.9498-65.8842L16.9498-3.6276C16.9498 21.7362 37.5373 42.3237 62.9011 42.3237L72.1243 42.3237C97.4881 42.3237 118.076 21.7362 118.076-3.6276L118.076-65.8842C118.076-91.248 97.4881-111.835 72.1243-111.835Z"/>
   <path class="multicolor-1:white hierarchical-1:primary SFSymbolsPreview007AFF" d="M70.9714-72.4722L70.9714-43.9791L84.2334-56.9904ZM70.9714 5.1015L84.3121-11.0391L70.9714-24.5445ZM95.5977-11.5332L62.493 28.4889L62.493-24.0504L44.7054-6.5922L38.7762-12.5214L61.0967-34.3478L38.8622-56.747L44.7914-62.6762L62.579-44.7239L62.579-94.7927L95.6837-56.4176L72.9958-34.2238L95.5977-11.5332Z"/>
  </g>
  <g id="Medium-L" transform="matrix(1 0 0 1 1679.1 1556)">
   <path class="multicolor-0:systemBlueColor hierarchical-0:secondary SFSymbolsPreview007AFF" d="M72.0155-111.835L62.7923-111.835C37.4285-111.835 16.841-91.248 16.841-65.8842L16.841-3.6276C16.841 21.7362 37.4285 42.3237 62.7923 42.3237L72.0155 42.3237C97.3793 42.3237 117.967 21.7362 117.967-3.6276L117.967-65.8842C117.967-91.248 97.3793-111.835 72.0155-111.835Z"/>
   <path class="multicolor-1:white hierarchical-1:primary SFSymbolsPreview007AFF" d="M70.8626-72.4722L70.8626-43.9791L84.1323-56.9904ZM70.8626 5.1015L84.2033-11.0391L70.8626-24.5445ZM95.4966-11.5332L62.3919 28.4889L62.3919-24.0504L44.6043-6.5922L38.6751-12.5214L61.0033-34.3555L38.7688-56.7547L44.698-62.6839L62.4856-44.7316L62.4856-94.8004L95.5903-56.4253L72.9112-34.2403L95.4966-11.5332Z"/>
  </g>
  <g id="Regular-L" transform="matrix(1 0 0 1 1382.53 1556)">
   <path class="multicolor-0:systemBlueColor hierarchical-0:secondary SFSymbolsPreview007AFF" d="M71.8735-111.835L62.6503-111.835C37.2865-111.835 16.699-91.248 16.699-65.8842L16.699-3.6276C16.699 21.7362 37.2865 42.3237 62.6503 42.3237L71.8735 42.3237C97.2373 42.3237 117.825 21.7362 117.825-3.6276L117.825-65.8842C117.825-91.248 97.2373-111.835 71.8735-111.835Z"/>
   <path class="multicolor-1:white hierarchical-1:primary SFSymbolsPreview007AFF" d="M70.7206-72.4722L70.7206-43.9791L84.0004-56.9904ZM70.7206 5.1015L84.0613-11.0391L70.7206-24.5445ZM95.3647-11.5332L62.26 28.4889L62.26-24.0504L44.4724-6.5922L38.5432-12.5214L60.8815-34.3656L38.647-56.7648L44.5762-62.694L62.3638-44.7417L62.3638-94.8105L95.4685-56.4354L72.8008-34.2618L95.3647-11.5332Z"/>
  </g>
  <g id="Light-L" transform="matrix(1 0 0 1 1085.97 1556)">
   <path class="multicolor-0:systemBlueColor hierarchical-0:secondary SFSymbolsPreview007AFF" d="M71.7474-111.835L62.5242-111.835C37.1604-111.835 16.5729-91.248 16.5729-65.8842L16.5729-3.6276C16.5729 21.7362 37.1604 42.3237 62.5242 42.3237L71.7474 42.3237C97.1112 42.3237 117.699 21.7362 117.699-3.6276L117.699-65.8842C117.699-91.248 97.1112-111.835 71.7474-111.835Z"/>
   <path class="multicolor-1:white hierarchical-1:primary SFSymbolsPreview007AFF" d="M70.5945-72.4722L70.5945-43.9791L83.8323-56.9904ZM70.5945 5.1015L83.9352-11.0391L70.5945-24.5445ZM95.1966-11.5332L62.0919 28.4889L62.0919-24.0504L44.3043-6.5922L38.3751-12.5214L60.6714-34.3236L38.4369-56.7228L44.3661-62.652L62.1537-44.6997L62.1537-94.7685L95.2584-56.3934L72.6327-34.2618L95.1966-11.5332Z"/>
  </g>
  <g id="Thin-L" transform="matrix(1 0 0 1 789.45 1556)">
   <path class="multicolor-0:systemBlueColor hierarchical-0:secondary SFSymbolsPreview007AFF" d="M71.5807-111.835L62.3575-111.835C36.9937-111.835 16.4062-91.248 16.4062-65.8842L16.4062-3.6276C16.4062 21.7362 36.9937 42.3237 62.3575 42.3237L71.5807 42.3237C96.9445 42.3237 117.532 21.7362 117.532-3.6276L117.532-65.8842C117.532-91.248 96.9445-111.835 71.5807-111.835Z"/>
   <path class="multicolor-1:white hierarchical-1:primary SFSymbolsPreview007AFF" d="M70.4278-72.4722L70.4278-43.9791L83.61-56.9904ZM70.4278 5.1015L83.7685-11.0391L70.4278-24.5445ZM94.9743-11.5332L61.8696 28.4889L61.8696-24.0504L44.082-6.5922L38.1528-12.5214L60.3934-34.268L38.1589-56.6672L44.0881-62.5964L61.8757-44.6441L61.8757-94.7129L94.9804-56.3378L72.4104-34.2618L94.9743-11.5332Z"/>
  </g>
  <g id="Ultralight-L" transform="matrix(1 0 0 1 492.839 1556)">
   <path class="multicolor-0:systemBlueColor hierarchical-0:secondary SFSymbolsPreview007AFF" d="M71.4953-111.835L62.2721-111.835C36.9083-111.835 16.3208-91.248 16.3208-65.8842L16.3208-3.6276C16.3208 21.7362 36.9083 42.3237 62.2721 42.3237L71.4953 42.3237C96.8591 42.3237 117.447 21.7362 117.447-3.6276L117.447-65.8842C117.447-91.248 96.8591-111.835 71.4953-111.835Z"/>
   <path class="multicolor-1:white hierarchical-1:primary SFSymbolsPreview007AFF" d="M70.3424-72.4722L70.3424-43.9791L83.4961-56.9904ZM70.3424 5.1015L83.6831-11.0391L70.3424-24.5445ZM94.8604-11.5332L61.7557 28.4889L61.7557-24.0504L43.9681-6.5922L38.0389-12.5214L60.2511-34.2395L38.0166-56.6387L43.9458-62.5679L61.7334-44.6156L61.7334-94.6844L94.8381-56.3093L72.2965-34.2618L94.8604-11.5332Z"/>
  </g>
  <g id="Black-M" transform="matrix(1 0 0 1 2880.56 1126)">
   <path class="multicolor-0:systemBlueColor hierarchical-0:secondary SFSymbolsPreview007AFF" d="M56.4115-94.584L49.2659-94.584C29.6155-94.584 13.6655-78.634 13.6655-58.9836L13.6655-10.7508C13.6655 8.8996 29.6155 24.8496 49.2659 24.8496L56.4115 24.8496C76.0619 24.8496 92.0119 8.8996 92.0119-10.7508L92.0119-58.9836C92.0119-78.634 76.0619-94.584 56.4115-94.584Z"/>
   <path class="multicolor-1:white hierarchical-1:primary SFSymbolsPreview007AFF" d="M55.5183-64.0876L55.5183-42.0128L65.7376-52.0932ZM55.5183-3.988L65.8539-16.4928L55.5183-26.956ZM74.542-16.8756L48.8944 14.1312L48.8944-26.5732L35.1136-13.0476L30.52-17.6412L47.7573-34.4957L30.5313-51.8493L35.1249-56.4429L48.9057-42.5345L48.9057-81.3249L74.5533-51.5941L56.9439-34.3675L74.542-16.8756Z"/>
  </g>
  <g id="Heavy-M" transform="matrix(1 0 0 1 2583.99 1126)">
   <path class="multicolor-0:systemBlueColor hierarchical-0:secondary SFSymbolsPreview007AFF" d="M56.2567-94.584L49.1111-94.584C29.4607-94.584 13.5107-78.634 13.5107-58.9836L13.5107-10.7508C13.5107 8.8996 29.4607 24.8496 49.1111 24.8496L56.2567 24.8496C75.9071 24.8496 91.8571 8.8996 91.8571-10.7508L91.8571-58.9836C91.8571-78.634 75.9071-94.584 56.2567-94.584Z"/>
   <path class="multicolor-1:white hierarchical-1:primary SFSymbolsPreview007AFF" d="M55.3635-64.0876L55.3635-42.0128L65.6047-52.0932ZM55.3635-3.988L65.6991-16.4928L55.3635-26.956ZM74.4091-16.8756L48.7615 14.1312L48.7615-26.5732L34.9807-13.0476L30.3871-17.6412L47.6464-34.5177L30.4204-51.8713L35.014-56.4649L48.7948-42.5565L48.7948-81.3469L74.4424-51.6161L56.8386-34.3951L74.4091-16.8756Z"/>
  </g>
  <g id="Bold-M" transform="matrix(1 0 0 1 2287.44 1126)">
   <path class="multicolor-0:systemBlueColor hierarchical-0:secondary SFSymbolsPreview007AFF" d="M56.0834-94.584L48.9378-94.584C29.2874-94.584 13.3374-78.634 13.3374-58.9836L13.3374-10.7508C13.3374 8.8996 29.2874 24.8496 48.9378 24.8496L56.0834 24.8496C75.7338 24.8496 91.6838 8.8996 91.6838-10.7508L91.6838-58.9836C91.6838-78.634 75.7338-94.584 56.0834-94.584Z"/>
   <path class="multicolor-1:white hierarchical-1:primary SFSymbolsPreview007AFF" d="M55.1902-64.0876L55.1902-42.0128L65.456-52.0932ZM55.1902-3.988L65.5258-16.4928L55.1902-26.956ZM74.2604-16.8756L48.6128 14.1312L48.6128-26.5732L34.832-13.0476L30.2384-17.6412L47.5223-34.5422L30.2963-51.8958L34.8899-56.4894L48.6707-42.581L48.6707-81.3714L74.3183-51.6406L56.7208-34.4259L74.2604-16.8756Z"/>
  </g>
  <g id="Semibold-M" transform="matrix(1 0 0 1 1990.84 1126)">
   <path class="multicolor-0:systemBlueColor hierarchical-0:secondary SFSymbolsPreview007AFF" d="M55.964-94.584L48.8184-94.584C29.168-94.584 13.218-78.634 13.218-58.9836L13.218-10.7508C13.218 8.8996 29.168 24.8496 48.8184 24.8496L55.964 24.8496C75.6144 24.8496 91.5644 8.8996 91.5644-10.7508L91.5644-58.9836C91.5644-78.634 75.6144-94.584 55.964-94.584Z"/>
   <path class="multicolor-1:white hierarchical-1:primary SFSymbolsPreview007AFF" d="M55.0708-64.0876L55.0708-42.0128L65.3535-52.0932ZM55.0708-3.988L65.4064-16.4928L55.0708-26.956ZM74.1579-16.8756L48.5103 14.1312L48.5103-26.5732L34.7295-13.0476L30.1359-17.6412L47.4367-34.5592L30.2107-51.9128L34.8043-56.5064L48.5851-42.598L48.5851-81.3884L74.2327-51.6576L56.6396-34.4472L74.1579-16.8756Z"/>
  </g>
  <g id="Medium-M" transform="matrix(1 0 0 1 1694.21 1126)">
   <path class="multicolor-0:systemBlueColor hierarchical-0:secondary SFSymbolsPreview007AFF" d="M55.8734-94.584L48.7278-94.584C29.0774-94.584 13.1274-78.634 13.1274-58.9836L13.1274-10.7508C13.1274 8.8996 29.0774 24.8496 48.7278 24.8496L55.8734 24.8496C75.5238 24.8496 91.4738 8.8996 91.4738-10.7508L91.4738-58.9836C91.4738-78.634 75.5238-94.584 55.8734-94.584Z"/>
   <path class="multicolor-1:white hierarchical-1:primary SFSymbolsPreview007AFF" d="M54.9802-64.0876L54.9802-42.0128L65.2758-52.0932ZM54.9802-3.988L65.3158-16.4928L54.9802-26.956ZM74.0802-16.8756L48.4326 14.1312L48.4326-26.5732L34.6518-13.0476L30.0582-17.6412L47.3718-34.572L30.1458-51.9256L34.7394-56.5192L48.5202-42.6108L48.5202-81.4012L74.1678-51.6704L56.578-34.4634L74.0802-16.8756Z"/>
  </g>
  <g id="Regular-M" transform="matrix(1 0 0 1 1397.61 1126)">
   <path class="multicolor-0:systemBlueColor hierarchical-0:secondary SFSymbolsPreview007AFF" d="M55.7553-94.584L48.6097-94.584C28.9593-94.584 13.0093-78.634 13.0093-58.9836L13.0093-10.7508C13.0093 8.8996 28.9593 24.8496 48.6097 24.8496L55.7553 24.8496C75.4057 24.8496 91.3557 8.8996 91.3557-10.7508L91.3557-58.9836C91.3557-78.634 75.4057-94.584 55.7553-94.584Z"/>
   <path class="multicolor-1:white hierarchical-1:primary SFSymbolsPreview007AFF" d="M54.8621-64.0876L54.8621-42.0128L65.1745-52.0932ZM54.8621-3.988L65.1977-16.4928L54.8621-26.956ZM73.9789-16.8756L48.3313 14.1312L48.3313-26.5732L34.5505-13.0476L29.9569-17.6412L47.2872-34.5888L30.0612-51.9424L34.6548-56.536L48.4356-42.6276L48.4356-81.418L74.0832-51.6872L56.4977-34.4844L73.9789-16.8756Z"/>
  </g>
  <g id="Light-M" transform="matrix(1 0 0 1 1101.03 1126)">
   <path class="multicolor-0:systemBlueColor hierarchical-0:secondary SFSymbolsPreview007AFF" d="M55.6423-94.584L48.4967-94.584C28.8463-94.584 12.8963-78.634 12.8963-58.9836L12.8963-10.7508C12.8963 8.8996 28.8463 24.8496 48.4967 24.8496L55.6423 24.8496C75.2927 24.8496 91.2427 8.8996 91.2427-10.7508L91.2427-58.9836C91.2427-78.634 75.2927-94.584 55.6423-94.584Z"/>
   <path class="multicolor-1:white hierarchical-1:primary SFSymbolsPreview007AFF" d="M54.7491-64.0876L54.7491-42.0128L65.0237-52.0932ZM54.7491-3.988L65.0847-16.4928L54.7491-26.956ZM73.8281-16.8756L48.1805 14.1312L48.1805-26.5732L34.3997-13.0476L29.8061-17.6412L47.0988-34.5511L29.8728-51.9047L34.4664-56.4983L48.2472-42.5899L48.2472-81.3803L73.8948-51.6495L56.3469-34.4844L73.8281-16.8756Z"/>
  </g>
  <g id="Thin-M" transform="matrix(1 0 0 1 804.494 1126)">
   <path class="multicolor-0:systemBlueColor hierarchical-0:secondary SFSymbolsPreview007AFF" d="M55.4927-94.584L48.3471-94.584C28.6967-94.584 12.7467-78.634 12.7467-58.9836L12.7467-10.7508C12.7467 8.8996 28.6967 24.8496 48.3471 24.8496L55.4927 24.8496C75.1431 24.8496 91.0931 8.8996 91.0931-10.7508L91.0931-58.9836C91.0931-78.634 75.1431-94.584 55.4927-94.584Z"/>
   <path class="multicolor-1:white hierarchical-1:primary SFSymbolsPreview007AFF" d="M54.5995-64.0876L54.5995-42.0128L64.8244-52.0932ZM54.5995-3.988L64.9351-16.4928L54.5995-26.956ZM73.6288-16.8756L47.9812 14.1312L47.9812-26.5732L34.2004-13.0476L29.6068-17.6412L46.8496-34.5012L29.6236-51.8548L34.2172-56.4484L47.998-42.54L47.998-81.3304L73.6456-51.5996L56.1476-34.4844L73.6288-16.8756Z"/>
  </g>
  <g id="Ultralight-M" transform="matrix(1 0 0 1 507.872 1126)">
   <path class="multicolor-0:systemBlueColor hierarchical-0:secondary SFSymbolsPreview007AFF" d="M55.4162-94.584L48.2706-94.584C28.6202-94.584 12.6702-78.634 12.6702-58.9836L12.6702-10.7508C12.6702 8.8996 28.6202 24.8496 48.2706 24.8496L55.4162 24.8496C75.0666 24.8496 91.0166 8.8996 91.0166-10.7508L91.0166-58.9836C91.0166-78.634 75.0666-94.584 55.4162-94.584Z"/>
   <path class="multicolor-1:white hierarchical-1:primary SFSymbolsPreview007AFF" d="M54.523-64.0876L54.523-42.0128L64.7223-52.0932ZM54.523-3.988L64.8586-16.4928L54.523-26.956ZM73.5267-16.8756L47.8791 14.1312L47.8791-26.5732L34.0983-13.0476L29.5047-17.6412L46.722-34.4757L29.496-51.8293L34.0896-56.4229L47.8704-42.5145L47.8704-81.3049L73.518-51.5741L56.0455-34.4844L73.5267-16.8756Z"/>
  </g>
  <g id="Black-S" transform="matrix(1 0 0 1 2891.95 696)">
   <path class="multicolor-0:systemBlueColor hierarchical-0:secondary SFSymbolsPreview007AFF" d="M44.25-81.75L38.65-81.75C23.25-81.75 10.75-69.25 10.75-53.85L10.75-16.05C10.75-0.65 23.25 11.85 38.65 11.85L44.25 11.85C59.65 11.85 72.15-0.65 72.15-16.05L72.15-53.85C72.15-69.25 59.65-81.75 44.25-81.75Z"/>
   <path class="multicolor-1:white hierarchical-1:primary SFSymbolsPreview007AFF" d="M43.55-57.85L43.55-40.55L51.55-48.45ZM43.55-10.75L51.65-20.55L43.55-28.75ZM58.45-20.85L38.35 3.45L38.35-28.45L27.55-17.85L23.95-21.45L37.45-34.65L23.95-48.25L27.55-51.85L38.35-40.95L38.35-71.35L58.45-48.05L44.65-34.55L58.45-20.85Z"/>
  </g>
  <g id="Heavy-S" transform="matrix(1 0 0 1 2595.35 696)">
   <path class="multicolor-0:systemBlueColor hierarchical-0:secondary SFSymbolsPreview007AFF" d="M44.132-81.75L38.532-81.75C23.132-81.75 10.632-69.25 10.632-53.85L10.632-16.05C10.632-0.65 23.132 11.85 38.532 11.85L44.132 11.85C59.532 11.85 72.032-0.65 72.032-16.05L72.032-53.85C72.032-69.25 59.532-81.75 44.132-81.75Z"/>
   <path class="multicolor-1:white hierarchical-1:primary SFSymbolsPreview007AFF" d="M43.432-57.85L43.432-40.55L51.4556-48.45ZM43.432-10.75L51.532-20.55L43.432-28.75ZM58.3556-20.85L38.2556 3.45L38.2556-28.45L27.4556-17.85L23.8556-21.45L37.3792-34.6736L23.8792-48.2736L27.4792-51.8736L38.2792-40.9736L38.2792-71.3736L58.3792-48.0736L44.5792-34.5736L58.3556-20.85Z"/>
  </g>
  <g id="Bold-S" transform="matrix(1 0 0 1 2298.75 696)">
   <path class="multicolor-0:systemBlueColor hierarchical-0:secondary SFSymbolsPreview007AFF" d="M44-81.75L38.4-81.75C23-81.75 10.5-69.25 10.5-53.85L10.5-16.05C10.5-0.65 23 11.85 38.4 11.85L44 11.85C59.4 11.85 71.9-0.65 71.9-16.05L71.9-53.85C71.9-69.25 59.4-81.75 44-81.75Z"/>
   <path class="multicolor-1:white hierarchical-1:primary SFSymbolsPreview007AFF" d="M43.3-57.85L43.3-40.55L51.35-48.45ZM43.3-10.75L51.4-20.55L43.3-28.75ZM58.25-20.85L38.15 3.45L38.15-28.45L27.35-17.85L23.75-21.45L37.3-34.7L23.8-48.3L27.4-51.9L38.2-41L38.2-71.4L58.3-48.1L44.5-34.6L58.25-20.85Z"/>
  </g>
  <g id="Semibold-S" transform="matrix(1 0 0 1 2002.12 696)">
   <path class="multicolor-0:systemBlueColor hierarchical-0:secondary SFSymbolsPreview007AFF" d="M43.909-81.75L38.309-81.75C22.909-81.75 10.409-69.25 10.409-53.85L10.409-16.05C10.409-0.65 22.909 11.85 38.309 11.85L43.909 11.85C59.309 11.85 71.809-0.65 71.809-16.05L71.809-53.85C71.809-69.25 59.309-81.75 43.909-81.75Z"/>
   <path class="multicolor-1:white hierarchical-1:primary SFSymbolsPreview007AFF" d="M43.209-57.85L43.209-40.55L51.2772-48.45ZM43.209-10.75L51.309-20.55L43.209-28.75ZM58.1772-20.85L38.0772 3.45L38.0772-28.45L27.2772-17.85L23.6772-21.45L37.2454-34.7182L23.7454-48.3182L27.3454-51.9182L38.1454-41.0182L38.1454-71.4182L58.2454-48.1182L44.4454-34.6182L58.1772-20.85Z"/>
  </g>
  <g id="Medium-S" transform="matrix(1 0 0 1 1705.47 696)">
   <path class="multicolor-0:systemBlueColor hierarchical-0:secondary SFSymbolsPreview007AFF" d="M43.84-81.75L38.24-81.75C22.84-81.75 10.34-69.25 10.34-53.85L10.34-16.05C10.34-0.65 22.84 11.85 38.24 11.85L43.84 11.85C59.24 11.85 71.74-0.65 71.74-16.05L71.74-53.85C71.74-69.25 59.24-81.75 43.84-81.75Z"/>
   <path class="multicolor-1:white hierarchical-1:primary SFSymbolsPreview007AFF" d="M43.14-57.85L43.14-40.55L51.222-48.45ZM43.14-10.75L51.24-20.55L43.14-28.75ZM58.122-20.85L38.022 3.45L38.022-28.45L27.222-17.85L23.622-21.45L37.204-34.732L23.704-48.332L27.304-51.932L38.104-41.032L38.104-71.432L58.204-48.132L44.404-34.632L58.122-20.85Z"/>
  </g>
  <g id="Regular-S" transform="matrix(1 0 0 1 1408.84 696)">
   <path class="multicolor-0:systemBlueColor hierarchical-0:secondary SFSymbolsPreview007AFF" d="M43.75-81.75L38.15-81.75C22.75-81.75 10.25-69.25 10.25-53.85L10.25-16.05C10.25-0.65 22.75 11.85 38.15 11.85L43.75 11.85C59.15 11.85 71.65-0.65 71.65-16.05L71.65-53.85C71.65-69.25 59.15-81.75 43.75-81.75Z"/>
   <path class="multicolor-1:white hierarchical-1:primary SFSymbolsPreview007AFF" d="M43.05-57.85L43.05-40.55L51.15-48.45ZM43.05-10.75L51.15-20.55L43.05-28.75ZM58.05-20.85L37.95 3.45L37.95-28.45L27.15-17.85L23.55-21.45L37.15-34.75L23.65-48.35L27.25-51.95L38.05-41.05L38.05-71.45L58.15-48.15L44.35-34.65L58.05-20.85Z"/>
  </g>
  <g id="Light-S" transform="matrix(1 0 0 1 1112.25 696)">
   <path class="multicolor-0:systemBlueColor hierarchical-0:secondary SFSymbolsPreview007AFF" d="M43.65-81.75L38.05-81.75C22.65-81.75 10.15-69.25 10.15-53.85L10.15-16.05C10.15-0.65 22.65 11.85 38.05 11.85L43.65 11.85C59.05 11.85 71.55-0.65 71.55-16.05L71.55-53.85C71.55-69.25 59.05-81.75 43.65-81.75Z"/>
   <path class="multicolor-1:white hierarchical-1:primary SFSymbolsPreview007AFF" d="M42.95-57.85L42.95-40.55L51.0167-48.45ZM42.95-10.75L51.05-20.55L42.95-28.75ZM57.9167-20.85L37.8167 3.45L37.8167-28.45L27.0167-17.85L23.4167-21.45L36.9833-34.7167L23.4833-48.3167L27.0833-51.9167L37.8833-41.0167L37.8833-71.4167L57.9833-48.1167L44.2167-34.65L57.9167-20.85Z"/>
  </g>
  <g id="Thin-S" transform="matrix(1 0 0 1 815.693 696)">
   <path class="multicolor-0:systemBlueColor hierarchical-0:secondary SFSymbolsPreview007AFF" d="M43.5177-81.75L37.9177-81.75C22.5177-81.75 10.0177-69.25 10.0177-53.85L10.0177-16.05C10.0177-0.65 22.5177 11.85 37.9177 11.85L43.5177 11.85C58.9177 11.85 71.4177-0.65 71.4177-16.05L71.4177-53.85C71.4177-69.25 58.9177-81.75 43.5177-81.75Z"/>
   <path class="multicolor-1:white hierarchical-1:primary SFSymbolsPreview007AFF" d="M42.8177-57.85L42.8177-40.55L50.8403-48.45ZM42.8177-10.75L50.9177-20.55L42.8177-28.75ZM57.7403-20.85L37.6403 3.45L37.6403-28.45L26.8403-17.85L23.2403-21.45L36.7629-34.6726L23.2629-48.2726L26.8629-51.8726L37.6629-40.9726L37.6629-71.3726L57.7629-48.0726L44.0403-34.65L57.7403-20.85Z"/>
  </g>
  <g id="Ultralight-S" transform="matrix(1 0 0 1 519.061 696)">
   <path class="multicolor-0:systemBlueColor hierarchical-0:secondary SFSymbolsPreview007AFF" d="M43.45-81.75L37.85-81.75C22.45-81.75 9.95-69.25 9.95-53.85L9.95-16.05C9.95-0.65 22.45 11.85 37.85 11.85L43.45 11.85C58.85 11.85 71.35-0.65 71.35-16.05L71.35-53.85C71.35-69.25 58.85-81.75 43.45-81.75Z"/>
   <path class="multicolor-1:white hierarchical-1:primary SFSymbolsPreview007AFF" d="M42.75-57.85L42.75-40.55L50.75-48.45ZM42.75-10.75L50.85-20.55L42.75-28.75ZM57.65-20.85L37.55 3.45L37.55-28.45L26.75-17.85L23.15-21.45L36.65-34.65L23.15-48.25L26.75-51.85L37.55-40.95L37.55-71.35L57.65-48.05L43.95-34.65L57.65-20.85Z"/>
  </g>
 </g>
</svg>
