<?xml version="1.0" encoding="UTF-8"?>
<!--Generator: Apple Native CoreSVG 232.5-->
<!DOCTYPE svg
PUBLIC "-//W3C//DTD SVG 1.1//EN"
       "http://www.w3.org/Graphics/SVG/1.1/DTD/svg11.dtd">
<svg version="1.1" xmlns="http://www.w3.org/2000/svg" xmlns:xlink="http://www.w3.org/1999/xlink" width="41.666" height="39.3137">
 <g>
  <rect height="39.3137" opacity="0" width="41.666" x="0" y="0"/>
  <path d="M23.9374 24.6775C27.3171 23.2039 28.9604 19.3406 27.4928 15.9609L22.6516 4.97188C21.145 1.54707 17.2878-0.0255859 13.902 1.37129C10.5419 2.83281 8.94225 6.80586 10.3977 10.1148L15.2464 21.1672C16.7079 24.4688 20.5833 26.1135 23.9374 24.6775ZM21.4104 22.9135C18.9448 22.9135 16.9991 20.9813 16.9991 18.5277C16.9991 16.0816 18.9448 14.142 21.4104 14.142C23.8309 14.142 25.7766 16.0816 25.7766 18.5277C25.7766 20.9813 23.8444 22.9135 21.4104 22.9135ZM21.4104 21.3791C23.0051 21.3791 24.2288 20.115 24.2288 18.5277C24.2288 16.9479 23.0051 15.6703 21.4104 15.6703C19.7706 15.6703 18.5335 16.9479 18.5335 18.5277C18.5335 20.115 19.7706 21.3791 21.4104 21.3791ZM0.530925 17.6252C-1.28216 23.8033 1.64694 29.5127 7.81296 31.9596L12.3477 33.7471C19.8581 36.7092 27.5247 35.1049 30.5454 26.6947C32.1464 22.2084 31.613 18.4635 29.8259 16.1262C31.0917 20.3129 28.9634 24.8486 24.8143 26.6867C20.3671 28.5672 15.2092 26.4779 13.2567 22.0246L8.40202 10.9783C8.12253 10.3486 7.94069 9.70078 7.81003 9.01856C5.08639 11.2371 1.78229 13.3135 0.530925 17.6252Z" fill="#000000" fill-opacity="0.85"/>
  <path d="M32.5997 27.4275C30.9098 32.1516 27.7255 35.2908 23.6608 36.6035C25.5325 38.2785 27.9915 39.3137 30.7151 39.3137C36.5612 39.3137 41.2987 34.5627 41.2987 28.6775C41.2987 23.7023 37.9083 19.5475 33.313 18.3701C33.9454 21.308 33.7036 24.3482 32.5997 27.4275Z" fill="#000000" fill-opacity="0.425"/>
  <path d="M21.4104 22.9135C18.9448 22.9135 16.9991 20.9813 16.9991 18.5277C16.9991 16.0816 18.9448 14.142 21.4104 14.142C23.8309 14.142 25.7766 16.0816 25.7766 18.5277C25.7766 20.9813 23.8444 22.9135 21.4104 22.9135ZM21.4104 21.3791C23.0051 21.3791 24.2288 20.115 24.2288 18.5277C24.2288 16.9479 23.0051 15.6703 21.4104 15.6703C19.7706 15.6703 18.5335 16.9479 18.5335 18.5277C18.5335 20.115 19.7706 21.3791 21.4104 21.3791Z" fill="#000000" fill-opacity="0.2125"/>
 </g>
</svg>
