<?xml version="1.0" encoding="UTF-8"?>
<!--Generator: Apple Native CoreSVG 232.5-->
<!DOCTYPE svg
PUBLIC "-//W3C//DTD SVG 1.1//EN"
       "http://www.w3.org/Graphics/SVG/1.1/DTD/svg11.dtd">
<svg version="1.1" xmlns="http://www.w3.org/2000/svg" xmlns:xlink="http://www.w3.org/1999/xlink" width="55.7911" height="54.5999">
 <g>
  <rect height="54.5999" opacity="0" width="55.7911" x="0" y="0"/>
  <path d="M27.71 53.4426C23.5498 53.4426 20.5616 50.4347 20.1709 46.9972L35.2491 46.9972C34.8389 50.4347 31.8506 53.4426 27.71 53.4426ZM39.1084 43.8918L7.3975 43.8918C5.38578 43.8918 4.15532 42.8176 4.15532 41.216C4.15532 38.6769 6.63578 36.4504 8.78422 34.2238C10.6983 32.173 10.9913 27.9933 11.3233 24.4191C11.4238 21.7229 11.7284 19.2665 12.2889 17.0953ZM34.6827 7.01677C41.2061 9.2238 43.7452 15.5129 44.0967 24.4191C44.4288 27.9933 44.7217 32.173 46.6358 34.2238C48.7647 36.4504 51.2647 38.6769 51.2647 41.216C51.2647 41.9165 51.0293 42.5162 50.5943 42.9692L16.8142 9.20355C17.9116 8.26098 19.2085 7.52895 20.7178 7.01677C21.5577 3.67693 24.1163 1.15739 27.71 1.15739C31.2842 1.15739 33.8428 3.67693 34.6827 7.01677Z" fill="#000000" fill-opacity="0.85"/>
  <path d="M4.60453 5.57146L50.2295 51.1574C50.8741 51.8019 51.9483 51.8019 52.5733 51.1574C53.2178 50.4933 53.2373 49.4582 52.5733 48.7941L6.96782 3.20818C6.32328 2.56364 5.2686 2.54411 4.60453 3.20818C3.96 3.85271 3.96 4.92693 4.60453 5.57146Z" fill="#000000" fill-opacity="0.85"/>
 </g>
</svg>
