<?xml version="1.0" encoding="UTF-8"?>
<!--Generator: Apple Native CoreSVG 326-->
<!DOCTYPE svg
PUBLIC "-//W3C//DTD SVG 1.1//EN"
       "http://www.w3.org/Graphics/SVG/1.1/DTD/svg11.dtd">
<svg version="1.1" xmlns="http://www.w3.org/2000/svg" xmlns:xlink="http://www.w3.org/1999/xlink" viewBox="0 0 46.2891 45.957">
 <g>
  <rect height="45.957" opacity="0" width="46.2891" x="0" y="0"/>
  <path d="M0 13.2812L3.45703 13.2812L3.45703 7.75391C3.45703 4.96094 4.94141 3.51562 7.67578 3.51562L13.1641 3.51562L13.1641 0.0585938L7.59766 0.0585938C2.55859 0.0585938 0 2.57812 0 7.57812ZM16.2695 3.51562L29.6289 3.51562L29.6289 0.0585938L16.2695 0.0585938ZM42.4609 13.2812L45.918 13.2812L45.918 7.57812C45.918 2.59766 43.3398 0.0585938 38.3008 0.0585938L32.7539 0.0585938L32.7539 3.51562L38.2422 3.51562C40.918 3.51562 42.4609 4.96094 42.4609 7.75391ZM42.4609 29.6094L45.918 29.6094L45.918 16.4062L42.4609 16.4062ZM32.7539 45.957L38.3008 45.957C43.3398 45.957 45.918 43.418 45.918 38.4375L45.918 32.7344L42.4609 32.7344L42.4609 38.2617C42.4609 41.0547 40.918 42.5 38.2422 42.5L32.7539 42.5ZM16.2695 45.957L29.6289 45.957L29.6289 42.5L16.2695 42.5ZM7.59766 45.957L13.1641 45.957L13.1641 42.5L7.67578 42.5C4.94141 42.5 3.45703 41.0547 3.45703 38.2617L3.45703 32.7344L0 32.7344L0 38.4375C0 43.4375 2.55859 45.957 7.59766 45.957ZM0 29.6094L3.45703 29.6094L3.45703 16.4062L0 16.4062Z" fill="black" fill-opacity="0.85"/>
  <path d="M9.35547 39.3359L36.582 39.3359C38.457 39.3359 39.3555 38.4375 39.3555 36.543L39.3555 9.39453C39.3555 7.5 38.457 6.58203 36.582 6.58203L9.35547 6.58203C7.48047 6.58203 6.58203 7.5 6.58203 9.39453L6.58203 36.543C6.58203 38.4375 7.48047 39.3359 9.35547 39.3359Z" fill="black" fill-opacity="0.85"/>
 </g>
</svg>
