<?xml version="1.0" encoding="UTF-8"?>
<!--Generator: Apple Native CoreSVG 232.5-->
<!DOCTYPE svg
PUBLIC "-//W3C//DTD SVG 1.1//EN"
       "http://www.w3.org/Graphics/SVG/1.1/DTD/svg11.dtd">
<svg version="1.1" xmlns="http://www.w3.org/2000/svg" xmlns:xlink="http://www.w3.org/1999/xlink" width="30.6498" height="56.1133">
 <g>
  <rect height="56.1133" opacity="0" width="30.6498" x="0" y="0"/>
  <path d="M15.1491 56.0742C23.7624 56.0742 28.86 51.9141 29.6022 43.5938C30.5397 33.1641 30.5202 23.2031 29.5632 12.0898C28.8796 4.16016 23.7624 0 15.1491 0C6.51629 0 1.41863 4.16016 0.715505 12.0898C-0.221995 23.2031-0.241526 33.1641 0.676443 43.5938C1.43816 51.9141 6.51629 56.0742 15.1491 56.0742ZM15.1296 46.3281C14.3483 46.3281 14.0749 46.7188 13.4694 46.7188C12.8444 46.7188 12.4538 46.1523 11.9655 45.4492C11.3796 44.6289 10.9303 43.3789 10.9303 42.1875C10.9303 40.293 12.1803 39.2969 13.4108 39.2969C14.0358 39.2969 14.485 39.668 15.0124 39.668C15.5202 39.668 15.9499 39.2969 16.7507 39.2969C17.0241 39.2969 18.0397 39.2969 18.6843 40.1953C18.6257 40.2734 17.6491 40.8203 17.6491 42.1094C17.6491 43.5547 18.8991 44.043 18.9186 44.0625C18.9186 44.1016 18.7428 44.8047 18.2741 45.4883C17.8249 46.0938 17.3952 46.7188 16.7507 46.7188C16.0866 46.7188 15.8913 46.3281 15.1296 46.3281ZM14.9147 39.1406C14.9147 37.8125 15.8522 36.8164 16.8678 36.8164C17.0827 37.9297 16.0866 39.1992 14.9147 39.1406Z" fill="#000000" fill-opacity="0.85"/>
 </g>
</svg>
