<?xml version="1.0" encoding="UTF-8"?>
<!--Generator: Apple Native CoreSVG 232.5-->
<!DOCTYPE svg
PUBLIC "-//W3C//DTD SVG 1.1//EN"
       "http://www.w3.org/Graphics/SVG/1.1/DTD/svg11.dtd">
<svg version="1.1" xmlns="http://www.w3.org/2000/svg" xmlns:xlink="http://www.w3.org/1999/xlink" width="26.7486" height="41.9594">
 <g>
  <rect height="41.9594" opacity="0" width="26.7486" x="0" y="0"/>
  <path d="M10.1971 0.145508C4.6332 0.178516 0 4.76309 0 10.8188C0 17.0785 9.07969 24.9201 15.8154 24.9531C20.6916 24.9922 26.3775 20.3207 26.3775 14.5594C26.3775 7.58438 17.6508 0.0808597 10.1971 0.145508ZM18.0549 21.7074C16.7496 21.7074 16.691 20.0432 17.9633 17.9674C19.2295 15.8465 21.3113 14.1957 22.6227 14.1957C23.9609 14.1957 24.0195 15.8465 22.7338 17.9674C21.4676 20.0432 19.3992 21.7074 18.0549 21.7074ZM11.3299 10.9373C10.6738 11.9584 9.29981 12.1551 8.27871 11.4283L4.83848 9.00977C3.83086 8.27696 3.6207 6.94942 4.38652 5.95391C5.05469 4.9584 6.42871 4.7166 7.40332 5.42988L10.8193 7.9252C11.7893 8.60684 12.0236 9.98086 11.3299 10.9373ZM8.84883 41.9594C10.2 41.9594 10.9787 41.2945 10.9787 40.0518L10.9787 26.1455C8.40371 25.2275 5.88594 23.6313 3.74336 21.6732L3.74336 40.0518C3.74336 41.2945 4.49649 41.9594 5.85977 41.9594Z" fill="#000000" fill-opacity="0.85"/>
 </g>
</svg>
