<?xml version="1.0" encoding="UTF-8"?>
<!--Generator: Apple Native CoreSVG 232.5-->
<!DOCTYPE svg
PUBLIC "-//W3C//DTD SVG 1.1//EN"
       "http://www.w3.org/Graphics/SVG/1.1/DTD/svg11.dtd">
<svg version="1.1" xmlns="http://www.w3.org/2000/svg" xmlns:xlink="http://www.w3.org/1999/xlink" width="72.5586" height="48.6153">
 <g>
  <rect height="48.6153" opacity="0" width="72.5586" x="0" y="0"/>
  <path d="M25.2734 44.0245C25.2734 45.4307 24.375 46.1924 22.8906 46.1924L20.918 46.1924C19.4336 46.1924 18.5156 45.4307 18.5156 44.0245L18.5156 28.6983C21.3803 28.4786 23.498 27.9956 25.2734 27.3309ZM53.6719 28.6983L53.6719 44.0245C53.6719 45.4307 52.7539 46.1924 51.2695 46.1924L49.2969 46.1924C47.8125 46.1924 46.9141 45.4307 46.9141 44.0245L46.9141 27.3309C48.6895 27.9956 50.8072 28.4786 53.6719 28.6983Z" fill="#000000" fill-opacity="0.85"/>
  <path d="M34.3359 12.2471C34.3359 17.7159 31.0547 21.6221 26.8164 23.9659C25.015 24.9603 23.054 25.7101 19.9647 26.0885C20.451 24.9317 20.7227 23.5959 20.7227 22.0909C20.7227 17.0854 16.6383 12.0799 11.0023 11.194C11.4667 10.2696 11.9586 9.50241 12.3047 9.06351C15.3711 4.53226 20.1953 2.3643 24.5312 2.42289C30.0195 2.48148 34.3359 6.1143 34.3359 12.2471ZM59.8828 9.06351C60.2289 9.50241 60.7208 10.2696 61.1852 11.194C55.5492 12.0799 51.4648 17.0854 51.4648 22.0909C51.4648 23.5959 51.7365 24.9317 52.2228 26.0885C49.1335 25.7101 47.1725 24.9603 45.3711 23.9659C41.1328 21.6221 37.8516 17.7159 37.8516 12.2471C37.8516 6.1143 42.168 2.48148 47.6562 2.42289C51.9922 2.3643 56.8164 4.53226 59.8828 9.06351ZM27.6953 8.00883L24.1211 11.0166C23.6328 11.4268 23.5742 12.1299 23.9648 12.5987C24.375 13.1065 25.0977 13.1455 25.5469 12.7549L29.1797 9.74711C29.668 9.33695 29.6875 8.63383 29.2773 8.16508C28.9062 7.65726 28.1836 7.59867 27.6953 8.00883ZM42.9102 8.16508C42.5 8.63383 42.5195 9.33695 43.0078 9.74711L46.6406 12.7549C47.0898 13.1455 47.8125 13.1065 48.2227 12.5987C48.6133 12.1299 48.5547 11.4268 48.0664 11.0166L44.4922 8.00883C44.0039 7.59867 43.2812 7.65726 42.9102 8.16508Z" fill="#000000" fill-opacity="0.85"/>
  <path d="M11.2695 29.1807C15.1562 29.1807 18.3984 26.7588 18.3984 22.0909C18.3984 17.794 14.4141 13.3799 9.19922 13.3799C4.90234 13.3799 2.32422 16.7393 2.32422 20.3721C2.32422 25.6065 6.77734 29.1807 11.2695 29.1807ZM10.0781 25.5674C9.375 26.1729 8.18359 25.5479 6.73828 23.7901C5.3125 22.0713 4.92188 20.8409 5.60547 20.2354C6.32812 19.6299 7.5 20.2354 8.94531 21.9932C10.3516 23.7705 10.7617 24.9815 10.0781 25.5674ZM60.918 29.1807C65.4102 29.1807 69.8633 25.6065 69.8633 20.3721C69.8633 16.7393 67.2852 13.3799 62.9883 13.3799C57.7734 13.3799 53.7891 17.794 53.7891 22.0909C53.7891 26.7588 57.0312 29.1807 60.918 29.1807ZM62.1094 25.5674C61.4258 24.9815 61.8359 23.7705 63.2422 21.9932C64.6875 20.2354 65.8594 19.6299 66.582 20.2354C67.2656 20.8409 66.875 22.0713 65.4492 23.7901C64.0234 25.5479 62.8125 26.1729 62.1094 25.5674Z" fill="#000000" fill-opacity="0.425"/>
 </g>
</svg>
