<?xml version="1.0" encoding="UTF-8"?>
<!--Generator: Apple Native CoreSVG 232.5-->
<!DOCTYPE svg
PUBLIC "-//W3C//DTD SVG 1.1//EN"
       "http://www.w3.org/Graphics/SVG/1.1/DTD/svg11.dtd">
<svg version="1.1" xmlns="http://www.w3.org/2000/svg" xmlns:xlink="http://www.w3.org/1999/xlink" width="78.125" height="40.0977">
 <g>
  <rect height="40.0977" opacity="0" width="78.125" x="0" y="0"/>
  <path d="M28.8477 29.1992C31.8359 29.1992 35.0586 27.4219 35.7422 23.6328L36.9531 17.1484C38.1836 10.4492 33.2031 5.35156 24.8438 2.46094C19.9609 0.761719 15.1758 0 10.3711 0C8.92578 0 8.41797 0.527344 8.41797 1.50391C8.41797 3.86719 9.64844 5.58594 11.9727 5.9375C15.8008 6.50391 18.7891 7.32422 21.6797 8.71094C22.9492 9.29688 23.3984 10.1172 23.1641 11.4453L21.7188 20.2344C20.8984 25.2539 24.2578 29.1992 28.8477 29.1992ZM28.8477 25.8203C26.6992 25.8203 24.9805 24.1016 24.9805 21.9531C24.9805 19.7852 26.6992 18.0469 28.8477 18.0469C31.0156 18.0469 32.7344 19.7656 32.7344 21.9531C32.7344 24.1211 31.0156 25.8203 28.8477 25.8203ZM28.8477 24.2578C30.1562 24.2578 31.1719 23.2422 31.1719 21.9531C31.1719 20.6445 30.1562 19.6094 28.8477 19.6094C27.5391 19.6094 26.543 20.6445 26.543 21.9531C26.543 23.2422 27.5391 24.2578 28.8477 24.2578ZM28.8477 31.3477C22.8125 31.3477 18.5547 26.0938 19.5898 19.8828L20.4883 14.4922C15.5859 15.7617 12.1094 17.8516 10.625 20.9766C11.9336 26.7188 14.0039 32.0508 16.9336 37.1289C18.3594 37.8516 19.8242 38.1055 21.875 38.1055C29.7656 38.1055 36.4453 34.2383 36.875 26.7773C35.3125 29.5898 32.3242 31.3477 28.8477 31.3477ZM48.9648 29.1992C53.5547 29.1992 56.9141 25.2539 56.0938 20.2344L54.6484 11.4453C54.4141 10.1172 54.8633 9.29688 56.1328 8.71094C59.0234 7.32422 62.0117 6.50391 65.8398 5.9375C68.1641 5.58594 69.3945 3.86719 69.3945 1.50391C69.3945 0.527344 68.8867 0 67.4414 0C62.6367 0 57.8516 0.761719 52.9688 2.46094C44.6094 5.35156 39.6289 10.4492 40.8594 17.1484L42.0703 23.6328C42.7539 27.4219 45.9961 29.1992 48.9648 29.1992ZM48.9648 25.8203C46.7969 25.8203 45.0781 24.1211 45.0781 21.9531C45.0781 19.7656 46.7969 18.0469 48.9648 18.0469C51.1133 18.0469 52.832 19.7852 52.832 21.9531C52.832 24.1016 51.1133 25.8203 48.9648 25.8203ZM48.9648 24.2578C50.2734 24.2578 51.2891 23.2422 51.2891 21.9531C51.2891 20.6445 50.2734 19.6094 48.9648 19.6094C47.6562 19.6094 46.6406 20.6445 46.6406 21.9531C46.6406 23.2422 47.6562 24.2578 48.9648 24.2578ZM48.9648 31.3477C45.4883 31.3477 42.5 29.5898 40.9375 26.7773C41.3672 34.2383 48.0469 38.1055 55.9375 38.1055C57.9883 38.1055 59.4531 37.8516 60.8789 37.1289C63.8086 32.0508 65.8789 26.7188 67.1875 20.9766C65.7031 17.8516 62.2266 15.7617 57.3242 14.4922L58.2227 19.8828C59.2578 26.0938 55 31.3477 48.9648 31.3477Z" fill="#000000" fill-opacity="0.85"/>
  <path d="M0 30.4688C0 36.2305 3.80859 40.0781 9.55078 40.0781C11.7578 40.0781 13.7695 39.375 15.1953 38.3984C12.0703 33.0469 9.86328 27.3242 8.47656 21.25C3.96484 21.7773 0 25.332 0 30.4688ZM77.8125 30.4688C77.8125 25.332 73.8477 21.7773 69.3359 21.25C67.9492 27.3242 65.7422 33.0469 62.6172 38.3984C64.043 39.375 66.0547 40.0781 68.2617 40.0781C74.0039 40.0781 77.8125 36.2305 77.8125 30.4688Z" fill="#000000" fill-opacity="0.425"/>
  <path d="M28.8477 25.8203C26.6992 25.8203 24.9805 24.1016 24.9805 21.9531C24.9805 19.7852 26.6992 18.0469 28.8477 18.0469C31.0156 18.0469 32.7344 19.7656 32.7344 21.9531C32.7344 24.1211 31.0156 25.8203 28.8477 25.8203ZM28.8477 24.2578C30.1562 24.2578 31.1719 23.2422 31.1719 21.9531C31.1719 20.6445 30.1562 19.6094 28.8477 19.6094C27.5391 19.6094 26.543 20.6445 26.543 21.9531C26.543 23.2422 27.5391 24.2578 28.8477 24.2578ZM48.9648 25.8203C46.7969 25.8203 45.0781 24.1211 45.0781 21.9531C45.0781 19.7656 46.7969 18.0469 48.9648 18.0469C51.1133 18.0469 52.832 19.7852 52.832 21.9531C52.832 24.1016 51.1133 25.8203 48.9648 25.8203ZM48.9648 24.2578C50.2734 24.2578 51.2891 23.2422 51.2891 21.9531C51.2891 20.6445 50.2734 19.6094 48.9648 19.6094C47.6562 19.6094 46.6406 20.6445 46.6406 21.9531C46.6406 23.2422 47.6562 24.2578 48.9648 24.2578Z" fill="#000000" fill-opacity="0.2125"/>
 </g>
</svg>
