<?xml version="1.0" encoding="UTF-8"?>
<!--Generator: Apple Native CoreSVG 232.5-->
<!DOCTYPE svg
PUBLIC "-//W3C//DTD SVG 1.1//EN"
       "http://www.w3.org/Graphics/SVG/1.1/DTD/svg11.dtd">
<svg version="1.1" xmlns="http://www.w3.org/2000/svg" xmlns:xlink="http://www.w3.org/1999/xlink" width="33.3469" height="46.6602">
 <g>
  <rect height="46.6602" opacity="0" width="33.3469" x="0" y="0"/>
  <path d="M21.4938 0C9.70059 0 0 13.5551 0 30.1504C0 37.9779 2.08789 46.6211 4.49981 46.6211C6.63809 46.6211 8.27402 43.8113 8.40137 41.1645C4.59531 40.0801 1.78672 36.5791 1.78672 32.4201C1.78672 30.0022 2.71016 27.8125 4.38594 26.0883C5.19082 14.502 12.6324 4.31856 21.2338 4.31856C26.3545 4.31856 28.6889 8.13535 28.6889 15.2119L8.30508 25.8574C5.32344 27.4166 3.97305 29.8305 3.97305 32.4201C3.97305 36.1932 7.03555 39.3055 10.8584 39.3055C12.7045 39.3055 14.0131 38.8307 16.6674 37.3826L26.9283 31.7662C31.3971 29.2998 32.9758 26.3182 32.9758 19.9973L32.9758 14.4684C32.9758 5.59688 29.1004 0 21.4938 0ZM10.7566 36.8969C8.26738 36.8969 6.26035 34.8899 6.26035 32.408C6.26035 29.9322 8.26738 27.8861 10.7566 27.8861C13.2264 27.8861 15.2529 29.9322 15.2529 32.408C15.2529 34.8643 13.2264 36.8969 10.7566 36.8969ZM10.7566 35.3625C12.3871 35.3625 13.7246 34.025 13.7246 32.408C13.7246 30.7715 12.3871 29.434 10.7566 29.434C9.12012 29.434 7.79473 30.7715 7.79473 32.408C7.79473 34.025 9.12012 35.3625 10.7566 35.3625Z" fill="#000000" fill-opacity="0.85"/>
  <path d="M10.7566 36.8969C8.26738 36.8969 6.26035 34.8899 6.26035 32.408C6.26035 29.9322 8.26738 27.8861 10.7566 27.8861C13.2264 27.8861 15.2529 29.9322 15.2529 32.408C15.2529 34.8643 13.2264 36.8969 10.7566 36.8969ZM10.7566 35.3625C12.3871 35.3625 13.7246 34.025 13.7246 32.408C13.7246 30.7715 12.3871 29.434 10.7566 29.434C9.12012 29.434 7.79473 30.7715 7.79473 32.408C7.79473 34.025 9.12012 35.3625 10.7566 35.3625Z" fill="#000000" fill-opacity="0.2125"/>
 </g>
</svg>
