<?xml version="1.0" encoding="UTF-8"?>
<!--Generator: Apple Native CoreSVG 326-->
<!DOCTYPE svg
PUBLIC "-//W3C//DTD SVG 1.1//EN"
       "http://www.w3.org/Graphics/SVG/1.1/DTD/svg11.dtd">
<svg version="1.1" xmlns="http://www.w3.org/2000/svg" xmlns:xlink="http://www.w3.org/1999/xlink" viewBox="0 0 38.3008 51.543">
 <g>
  <rect height="51.543" opacity="0" width="38.3008" x="0" y="0"/>
  <path d="M0 6.83594L0 44.668C0 49.1992 2.28516 51.5234 6.77734 51.5234L31.1523 51.5234C35.6445 51.5234 37.9297 49.1992 37.9297 44.668L37.9297 6.83594C37.9297 2.30469 35.6641 0 31.1523 0L6.77734 0C2.26562 0 0 2.30469 0 6.83594ZM18.9648 44.4531C13.1055 44.4531 8.37891 39.7656 8.37891 33.8672C8.37891 27.9492 13.1055 23.2422 18.9648 23.2812C24.8242 23.3008 29.5508 27.9492 29.5508 33.8672C29.5508 39.7656 24.8242 44.4531 18.9648 44.4531ZM18.9648 18.6133C15.7617 18.6133 13.1836 16.0742 13.1836 12.8516C13.1836 9.62891 15.7617 7.07031 18.9648 7.10938C22.168 7.12891 24.7266 9.64844 24.7461 12.8516C24.7852 16.0547 22.168 18.6133 18.9648 18.6133ZM18.9648 38.5547C21.6016 38.5547 23.6523 36.4453 23.6523 33.8672C23.6523 31.1914 21.6016 29.1406 18.9648 29.1406C16.3281 29.1406 14.2773 31.1914 14.2773 33.8672C14.2773 36.4453 16.3867 38.5547 18.9648 38.5547ZM18.9648 16.0742C20.7617 16.0742 22.207 14.6289 22.207 12.8516C22.207 11.0547 20.7227 9.62891 18.9648 9.62891C17.1484 9.62891 15.7227 10.9961 15.7227 12.8516C15.7227 14.6289 17.168 16.0742 18.9648 16.0742Z" fill="black" fill-opacity="0.85"/>
  <path d="M18.9648 44.4531C13.1055 44.4531 8.37891 39.7656 8.37891 33.8672C8.37891 27.9492 13.1055 23.2422 18.9648 23.2812C24.8242 23.3008 29.5508 27.9492 29.5508 33.8672C29.5508 39.7656 24.8242 44.4531 18.9648 44.4531ZM18.9648 18.6133C15.7617 18.6133 13.1836 16.0742 13.1836 12.8516C13.1836 9.62891 15.7617 7.07031 18.9648 7.10938C22.168 7.12891 24.7266 9.64844 24.7461 12.8516C24.7852 16.0547 22.168 18.6133 18.9648 18.6133ZM18.9648 38.5547C21.6016 38.5547 23.6523 36.4453 23.6523 33.8672C23.6523 31.1914 21.6016 29.1406 18.9648 29.1406C16.3281 29.1406 14.2773 31.1914 14.2773 33.8672C14.2773 36.4453 16.3867 38.5547 18.9648 38.5547ZM18.9648 16.0742C20.7617 16.0742 22.207 14.6289 22.207 12.8516C22.207 11.0547 20.7227 9.62891 18.9648 9.62891C17.1484 9.62891 15.7227 10.9961 15.7227 12.8516C15.7227 14.6289 17.168 16.0742 18.9648 16.0742Z" fill="black" fill-opacity="0.2125"/>
 </g>
</svg>
