<?xml version="1.0" encoding="UTF-8"?>
<!--Generator: Apple Native CoreSVG 326-->
<!DOCTYPE svg
PUBLIC "-//W3C//DTD SVG 1.1//EN"
       "http://www.w3.org/Graphics/SVG/1.1/DTD/svg11.dtd">
<svg version="1.1" xmlns="http://www.w3.org/2000/svg" xmlns:xlink="http://www.w3.org/1999/xlink" viewBox="0 0 51.25 50.918">
 <g>
  <rect height="50.918" opacity="0" width="51.25" x="0" y="0"/>
  <path d="M50.8789 25.4688C50.8789 39.4922 39.4531 50.918 25.4297 50.918C11.4258 50.918 0 39.4922 0 25.4688C0 11.4648 11.4258 0.0390625 25.4297 0.0390625C39.4531 0.0390625 50.8789 11.4648 50.8789 25.4688ZM21.1914 36.8555C21.4062 38.9648 23.0859 40.625 25.4492 40.625C27.8125 40.625 29.5117 38.9648 29.707 36.8555ZM21.4648 13.7891C17.7539 15.0781 16.2891 18.6523 16.0938 23.75C15.8984 25.7617 15.7617 28.1445 14.6875 29.3164C13.4766 30.625 12.0508 31.8555 12.0508 33.3008C12.0508 34.1992 12.7344 34.8047 13.8672 34.8047L37.0312 34.8047C38.1836 34.8047 38.8477 34.1992 38.8477 33.3008C38.8477 31.8555 37.4609 30.6055 36.2305 29.3164C35.1172 28.1445 35 25.7617 34.8242 23.75C34.6289 18.6523 33.1445 15.0781 29.4531 13.7891C28.9453 11.9141 27.4805 10.4688 25.4492 10.4688C23.418 10.4688 21.9727 11.9141 21.4648 13.7891Z" fill="black" fill-opacity="0.85"/>
 </g>
</svg>
