<?xml version="1.0" encoding="UTF-8"?>
<!--Generator: Apple Native CoreSVG 326-->
<!DOCTYPE svg
PUBLIC "-//W3C//DTD SVG 1.1//EN"
       "http://www.w3.org/Graphics/SVG/1.1/DTD/svg11.dtd">
<svg version="1.1" xmlns="http://www.w3.org/2000/svg" xmlns:xlink="http://www.w3.org/1999/xlink" viewBox="0 0 51.3672 58.5352">
 <g>
  <rect height="58.5352" opacity="0" width="51.3672" x="0" y="0"/>
  <path d="M0 54.4531C0 56.9336 1.50391 58.5352 3.86719 58.5352L8.78906 58.5352C10.2344 58.5352 11.3281 57.8125 11.7773 56.4258L13.0469 52.3242L37.9492 52.3242L39.2188 56.4258C39.668 57.8125 40.7617 58.5352 42.207 58.5352L47.1289 58.5352C49.4922 58.5352 50.9961 56.9336 50.9961 54.4531L50.9961 4.14062C50.9961 1.66016 49.4922 0.078125 47.1289 0.078125L42.207 0.078125C40.7617 0.078125 39.668 0.800781 39.2188 2.16797L37.9492 6.26953L13.0469 6.26953L11.7773 2.16797C11.3281 0.800781 10.2344 0.078125 8.78906 0.078125L3.86719 0.078125C1.50391 0.078125 0 1.66016 0 4.14062ZM22.7344 37.7148C21.582 37.7148 20.7617 36.6406 19.8242 35.3125C18.7109 33.75 17.8516 31.3672 17.8516 29.0625C17.8516 25.3516 20.2344 23.4375 22.5977 23.4375C23.8477 23.4375 24.8633 24.2383 25.6445 24.2383C26.3867 24.2383 27.5586 23.3594 28.9648 23.3594C29.5312 23.3594 31.4648 23.4375 32.7344 25.2539C32.6172 25.3125 30.7031 26.4453 30.7031 28.8672C30.7031 31.6602 33.1641 32.6562 33.2227 32.6953C33.2031 32.7734 32.8711 34.0625 31.9336 35.3906C31.1328 36.5234 30.293 37.7148 28.9648 37.7148C27.7148 37.7148 27.3633 36.9727 25.8594 36.9727C24.4727 36.9727 23.9062 37.7148 22.7344 37.7148ZM25.7617 23.2031C25.6445 23.2031 25.5664 23.1836 25.5273 23.125C25.4883 23.1055 25.4883 22.9492 25.4883 22.8125C25.4883 21.8359 25.9375 20.8203 26.4844 20.2148C27.207 19.4336 28.3398 18.8477 29.2969 18.8086C29.3164 18.9062 29.3164 19.0234 29.3164 19.1797C29.3164 20.1562 28.9062 21.1133 28.3398 21.8359C27.7148 22.6172 26.6016 23.2031 25.7617 23.2031Z" fill="black" fill-opacity="0.85"/>
 </g>
</svg>
