<?xml version="1.0" encoding="UTF-8"?>
<!--Generator: Apple Native CoreSVG 232.5-->
<!DOCTYPE svg
PUBLIC "-//W3C//DTD SVG 1.1//EN"
       "http://www.w3.org/Graphics/SVG/1.1/DTD/svg11.dtd">
<svg version="1.1" xmlns="http://www.w3.org/2000/svg" xmlns:xlink="http://www.w3.org/1999/xlink" width="37.1875" height="52.3633">
 <g>
  <rect height="52.3633" opacity="0" width="37.1875" x="0" y="0"/>
  <path d="M5.03906 35.4492L5.03906 16.9336C5.03906 12.9297 7.38281 10.5273 11.3281 10.5273L25.3711 10.5273C29.2969 10.5273 31.6211 12.9297 31.6211 16.9336L31.6211 35.4492C31.6211 39.4336 29.2969 41.8359 25.3711 41.8359L11.3281 41.8359C7.38281 41.8359 5.03906 39.4336 5.03906 35.4492Z" fill="#000000" fill-opacity="0.2125"/>
  <path d="M1.875 35.8984C1.875 39.7852 3.35938 42.5391 6.19141 44.1016C7.51953 44.8242 8.22266 45.625 8.73047 47.2266L9.60938 50.1562C10.0586 51.6406 11.1133 52.3633 12.6562 52.3633L24.0039 52.3633C25.625 52.3633 26.6016 51.6602 27.0508 50.1562L27.9492 47.2266C28.4375 45.625 29.1602 44.8242 30.4883 44.1016C33.3203 42.5391 34.7852 39.7852 34.7852 35.8984L34.7852 16.4844C34.7852 12.5977 33.3203 9.82422 30.4883 8.26172C29.1602 7.55859 28.4375 6.75781 27.9492 5.15625L27.0508 2.22656C26.6406 0.761719 25.6055 0.0195312 24.0039 0.0195312L12.6562 0.0195312C11.1133 0.0195312 10.0586 0.742188 9.60938 2.22656L8.73047 5.15625C8.24219 6.73828 7.53906 7.57812 6.19141 8.26172C3.37891 9.76562 1.875 12.5586 1.875 16.4844ZM5.03906 35.4492L5.03906 16.9336C5.03906 12.9297 7.38281 10.5273 11.3281 10.5273L25.3711 10.5273C29.2969 10.5273 31.6211 12.9297 31.6211 16.9336L31.6211 35.4492C31.6211 39.4336 29.2969 41.8359 25.3711 41.8359L11.3281 41.8359C7.38281 41.8359 5.03906 39.4336 5.03906 35.4492ZM34.1797 24.4922L35.1367 24.4922C36.3672 24.4922 37.1875 23.6328 37.1875 22.2852L37.1875 18.8281C37.1875 17.4609 36.3672 16.6016 35.1367 16.6016L34.1797 16.6016Z" fill="#000000" fill-opacity="0.85"/>
 </g>
</svg>
