<?xml version="1.0" encoding="UTF-8"?>
<svg id="a" data-name="图层 1" xmlns="http://www.w3.org/2000/svg" viewBox="0 0 25.429 41.799">
  <path d="M4.696,4.283C6.356,2.695,9.956.377,13.954.083c-.176.073-.343.206-.325.448,0,0-.012.422,1.072.357,1.288-.076,4.224.514,6.789,3.216,0,0,.666.646,1.072.179.162-.187.023-.599-.363-1.097.182.179.363.364.541.561,6.874,7.559-.394,18.377-10.898,20.187C1.698,25.683.051,14.109.051,14.109c-.418-4.482,1.774-7.078,4.645-9.826ZM11.71,12.856l.126.159c.533.673,1.51.787,2.183.255l1.536-1.215c.673-.533.787-1.51.255-2.183l-.126-.159c-.533-.673-1.51-.787-2.183-.255l-1.536,1.215c-.673.533-.787,1.51-.255,2.183ZM3.099,17.153c1.204,2.475,3.062,4.052,4.15,3.522,1.088-.529.993-2.964-.211-5.439-1.204-2.475-3.062-4.052-4.15-3.522-1.088.529-.993,2.964.211,5.439ZM11.663,26.078s4.562-.237,8.218-3.216v3.216s0,.179,0,.179v13.22c0,1.283-1.04,2.322-2.322,2.322h-3.573c-1.283,0-2.322-1.04-2.322-2.322v-13.22s0-.179,0-.179Z" style="fill: #040000; fill-rule: evenodd; opacity: .85; stroke-width: 0px;"/>
  <path d="M14.359.001c5.739-.076,8.73,3.658,8.21,4.267-.473.555-1.218-.323-1.218-.323-2.629-2.604-5.366-3.139-6.664-3.062-1.093.065-1.058-.352-1.058-.352C13.592.026,14.359.001,14.359.001Z" style="fill: #040000; fill-rule: evenodd; opacity: .25; stroke-width: 0px;"/>
</svg>