<?xml version="1.0" encoding="UTF-8"?>
<!--Generator: Apple Native CoreSVG 232.5-->
<!DOCTYPE svg
PUBLIC "-//W3C//DTD SVG 1.1//EN"
       "http://www.w3.org/Graphics/SVG/1.1/DTD/svg11.dtd">
<svg version="1.1" xmlns="http://www.w3.org/2000/svg" xmlns:xlink="http://www.w3.org/1999/xlink" width="70.8008" height="40.293">
 <g>
  <rect height="40.293" opacity="0" width="70.8008" x="0" y="0"/>
  <path d="M35.2148 31.1523C40.0195 31.1523 44.9219 39.1797 54.375 39.1797C63.5352 39.1797 70.4297 30.8594 70.4297 19.9023C70.4297 1.97266 54.6875 0 35.2148 0C15.7422 0 0 1.99219 0 19.9023C0 30.8594 6.89453 39.1797 16.0547 39.1797C25.5078 39.1797 30.4102 31.1523 35.2148 31.1523ZM35.2148 27.6953C28.3398 27.6953 24.7656 35.7227 16.0547 35.7227C8.49609 35.7227 3.45703 29.5703 3.45703 19.9023C3.45703 5 16.1133 3.45703 35.2148 3.45703C54.3164 3.45703 66.9727 4.98047 66.9727 19.9023C66.9727 29.5703 61.9531 35.7227 54.375 35.7227C45.6641 35.7227 42.0898 27.6953 35.2148 27.6953Z" fill="#000000" fill-opacity="0.85"/>
  <path d="M35.2148 27.6953C28.3398 27.6953 24.7656 35.7227 16.0547 35.7227C8.49609 35.7227 3.45703 29.5703 3.45703 19.9023C3.45703 5 16.1133 3.45703 35.2148 3.45703C54.3164 3.45703 66.9727 4.98047 66.9727 19.9023C66.9727 29.5703 61.9531 35.7227 54.375 35.7227C45.6641 35.7227 42.0898 27.6953 35.2148 27.6953Z" fill="#000000" fill-opacity="0.2125"/>
 </g>
</svg>
