<?xml version="1.0" encoding="UTF-8"?>
<!--Generator: Apple Native CoreSVG 232.5-->
<!DOCTYPE svg
PUBLIC "-//W3C//DTD SVG 1.1//EN"
       "http://www.w3.org/Graphics/SVG/1.1/DTD/svg11.dtd">
<svg version="1.1" xmlns="http://www.w3.org/2000/svg" xmlns:xlink="http://www.w3.org/1999/xlink" width="55.8934" height="43.0926">
 <g>
  <rect height="43.0926" opacity="0" width="55.8934" x="0" y="0"/>
  <path d="M14.5129 43.0731L41.0168 43.0731C50.6731 43.0731 55.5223 38.2932 55.5223 28.75L55.5223 16.0168L40.0359 16.0168C39.6998 17.0621 38.7508 17.7471 37.5465 17.7471L17.9758 17.7471C16.8105 17.7471 15.8359 17.0621 15.4938 16.0168L0 16.0168L0 28.75C0 38.2932 4.84922 43.0731 14.5129 43.0731ZM27.7611 26.4647C26.6047 26.4977 25.6436 25.5035 25.6436 24.3861C25.6436 23.2162 26.6047 22.2686 27.7611 22.2686C28.9311 22.2686 29.8787 23.2162 29.8787 24.3861C29.8787 25.5022 28.9311 26.4256 27.7611 26.4647ZM0 14.2432L15.4729 14.2432C15.815 13.1844 16.7836 12.5055 17.9549 12.5055L37.533 12.5055C38.7238 12.5055 39.6863 13.1844 40.015 14.2432L55.4818 14.2432L55.4818 13.5602C55.4818 4.54199 50.4008 0 40.9824 0L14.5129 0C5.08106 0 0 4.54199 0 13.5602Z" fill="#000000" fill-opacity="0.85"/>
 </g>
</svg>
