<?xml version="1.0" encoding="UTF-8"?>
<!--Generator: Apple Native CoreSVG 232.5-->
<!DOCTYPE svg
PUBLIC "-//W3C//DTD SVG 1.1//EN"
       "http://www.w3.org/Graphics/SVG/1.1/DTD/svg11.dtd">
<svg version="1.1" xmlns="http://www.w3.org/2000/svg" xmlns:xlink="http://www.w3.org/1999/xlink" width="58.3342" height="46.6563">
 <g>
  <rect height="46.6563" opacity="0" width="58.3342" x="0" y="0"/>
  <path d="M17.1055 21.1867C22.965 21.1867 27.7086 16.3772 27.7086 10.5897C27.7086 4.74356 22.8539 0 17.1055 0C16.0615 0 15.1227 0.0720704 14.2996 0.35293L14.2996 6.35527C15.1227 5.74844 16.0871 5.42246 17.1055 5.42246C19.8393 5.42246 22.1885 7.77774 22.1885 10.5897C22.1885 13.3625 19.8918 15.6336 17.1055 15.6336C14.235 15.6336 12.0029 13.409 12.0029 10.5897L12.0029 1.25273C8.62325 3.16484 6.48282 6.63613 6.48282 10.5897C6.48282 16.4822 11.2203 21.1867 17.1055 21.1867ZM17.1055 13.3955C18.5865 13.3955 19.8783 12.0842 19.8783 10.5897C19.8783 9.1416 18.567 7.8168 17.1055 7.8168C15.6244 7.8168 14.3326 9.1086 14.3326 10.5897C14.3326 12.1098 15.5854 13.3955 17.1055 13.3955ZM13.407 18.6006L13.407 24.7359C13.407 25.9652 14.1904 26.5957 15.4756 26.5957L18.6842 26.5957C20.034 26.5957 20.7783 25.9652 20.7783 24.7359L20.7783 18.6006ZM15.8402 46.6199L18.3633 46.6199L18.3633 24.1293L15.8402 24.1293ZM40.8832 21.1867C46.7428 21.1867 51.4863 16.3772 51.4863 10.5897C51.4863 4.74356 46.6317 0 40.8832 0C39.8393 0 38.9004 0.0720704 38.0774 0.35293L38.0774 6.35527C38.9004 5.74844 39.8723 5.42246 40.8832 5.42246C43.6305 5.42246 45.9662 7.77774 45.9662 10.5897C45.9662 13.3625 43.6695 15.6336 40.8832 15.6336C38.0127 15.6336 35.7746 13.409 35.7746 10.5897L35.7746 1.25273C32.401 3.16484 30.2606 6.63613 30.2606 10.5897C30.2606 16.4822 34.9981 21.1867 40.8832 21.1867ZM40.8832 13.3955C42.3777 13.3955 43.6561 12.0842 43.6561 10.5897C43.6561 9.1416 42.3447 7.8168 40.8832 7.8168C39.4156 7.8168 38.1104 9.1086 38.1104 10.5897C38.1104 12.1098 39.3631 13.3955 40.8832 13.3955ZM44.5561 18.6006L37.1848 18.6006L37.1848 24.7359C37.1848 25.9652 37.9426 26.5957 39.2789 26.5957L42.4875 26.5957C43.7787 26.5957 44.5561 25.9652 44.5561 24.7359ZM42.1289 46.6199L42.1289 24.1293L39.6059 24.1293L39.6059 46.6199Z" fill="#000000" fill-opacity="0.85"/>
  <path d="M4.54922 10.6031C4.54922 6.48926 6.54356 2.84551 9.59532 0.569726C4.15645 0.886132 0 5.17578 0 10.6031C0 16.0231 4.12207 20.3397 9.59532 20.6561C6.54356 18.3803 4.54922 14.7365 4.54922 10.6031ZM53.4139 10.6031C53.4139 14.7365 51.433 18.3803 48.3678 20.6561C53.8067 20.3397 57.9631 16.05 57.9631 10.6031C57.9631 5.20273 53.841 0.886132 48.3678 0.569726C51.433 2.84551 53.4139 6.48926 53.4139 10.6031Z" fill="#000000" fill-opacity="0.425"/>
 </g>
</svg>
