<?xml version="1.0" encoding="UTF-8"?>
<!--Generator: Apple Native CoreSVG 232.5-->
<!DOCTYPE svg
PUBLIC "-//W3C//DTD SVG 1.1//EN"
       "http://www.w3.org/Graphics/SVG/1.1/DTD/svg11.dtd">
<svg version="1.1" xmlns="http://www.w3.org/2000/svg" xmlns:xlink="http://www.w3.org/1999/xlink" width="51.25" height="50.918">
 <g>
  <rect height="50.918" opacity="0" width="51.25" x="0" y="0"/>
  <path d="M50.8789 25.4492C50.8789 39.3555 39.3555 50.8789 25.4297 50.8789C11.5234 50.8789 0 39.3555 0 25.4492C0 11.5234 11.5039 0 25.4102 0C39.3359 0 50.8789 11.5234 50.8789 25.4492ZM22.3242 35.7812C22.3242 37.1289 23.4961 38.2422 24.8828 38.2422C26.25 38.2422 27.4414 37.1484 27.4414 35.7812C27.4414 34.3945 26.2695 33.3008 24.8828 33.3008C23.4766 33.3008 22.3242 34.4141 22.3242 35.7812ZM17.8906 17.1484C17.7734 17.5391 17.6953 17.9297 17.6953 18.3594C17.6953 19.3555 18.4766 19.9219 19.2383 19.9219C20.0195 19.9219 20.5273 19.5312 20.8984 18.9648L21.2695 18.418C21.9922 16.7383 23.5156 15.6055 25.5273 15.6055C28.0664 15.6055 29.707 17.0117 29.707 19.0625C29.707 20.8203 28.6719 21.7383 26.3281 23.3594C24.4141 24.707 23.1445 26.0547 23.1445 28.4961C23.1445 28.6523 23.1445 28.8086 23.1445 28.9648C23.1445 30.1367 23.7891 30.7422 24.9219 30.7422C26.0547 30.7422 26.7188 30.0391 26.7188 29.1211C26.7188 28.9844 26.7188 28.8281 26.7188 28.6914C26.7188 27.1875 27.5391 26.2695 29.3945 25.0195C31.9531 23.3203 33.5742 21.8164 33.5742 18.8867C33.5742 14.8438 29.9805 12.5391 25.6641 12.5391C21.3281 12.5391 18.5156 14.707 17.8906 17.1484Z" fill="#000000" fill-opacity="0.85"/>
 </g>
</svg>
