<?xml version="1.0" encoding="UTF-8"?>
<!--Generator: Apple Native CoreSVG 232.5-->
<!DOCTYPE svg
PUBLIC "-//W3C//DTD SVG 1.1//EN"
       "http://www.w3.org/Graphics/SVG/1.1/DTD/svg11.dtd">
<svg version="1.1" xmlns="http://www.w3.org/2000/svg" xmlns:xlink="http://www.w3.org/1999/xlink" width="61.9383" height="41.8461">
 <g>
  <rect height="41.8461" opacity="0" width="61.9383" x="0" y="0"/>
  <path d="M0 25.9172C0 28.7262 1.71621 30.4047 4.60196 30.4047L12.9498 30.4047C16.5441 30.4047 18.4635 31.3893 20.7984 34.393C24.4678 39.1467 30.1334 41.807 36.1149 41.807L43.3701 41.807C45.3764 41.807 46.7516 40.4574 46.7516 38.501L46.7516 3.12227C46.7516 1.28027 45.3764 0 43.3701 0L36.1149 0C30.1334 0 24.4678 2.6543 20.7984 7.40664C18.4635 10.4178 16.5441 11.4158 12.9498 11.4158L4.60196 11.4158C1.71621 11.4158 0 13.0809 0 15.8959ZM45.1123 15.3602L58.4006 15.3602C60.152 15.3602 61.5672 13.9389 61.5672 12.1996C61.5672 10.4422 60.152 9.01953 58.4006 9.01953L45.1123 9.01953ZM45.1123 32.7875L58.4006 32.7875C60.152 32.7875 61.5672 31.3783 61.5672 29.627C61.5672 27.8621 60.152 26.4469 58.4006 26.4469L45.1123 26.4469Z" fill="#000000" fill-opacity="0.85"/>
 </g>
</svg>
