<?xml version="1.0" encoding="UTF-8"?>
<!--Generator: Apple Native CoreSVG 232.5-->
<!DOCTYPE svg
PUBLIC "-//W3C//DTD SVG 1.1//EN"
       "http://www.w3.org/Graphics/SVG/1.1/DTD/svg11.dtd">
<svg version="1.1" xmlns="http://www.w3.org/2000/svg" xmlns:xlink="http://www.w3.org/1999/xlink" width="61.6211" height="29.1992">
 <g>
  <rect height="29.1992" opacity="0" width="61.6211" x="0" y="0"/>
  <path d="M49.3945 20.8594C47.6758 20.8984 46.1914 19.3945 46.1914 17.6758C46.1914 15.918 47.6758 14.4531 49.3945 14.4531C51.1133 14.4531 52.5586 15.918 52.5586 17.6758C52.5586 19.3945 51.1133 20.8203 49.3945 20.8594ZM7.59766 28.9648L53.6523 28.9648C58.6914 28.9648 61.25 26.4062 61.25 21.4453L61.25 7.51953C61.25 2.55859 58.6914 0 53.6523 0L7.59766 0C2.53906 0 0 2.53906 0 7.51953L0 21.4453C0 26.4453 2.53906 28.9648 7.59766 28.9648Z" fill="#000000" fill-opacity="0.85"/>
 </g>
</svg>
