<?xml version="1.0" encoding="UTF-8"?>
<!--Generator: Apple Native CoreSVG 232.5-->
<!DOCTYPE svg
PUBLIC "-//W3C//DTD SVG 1.1//EN"
       "http://www.w3.org/Graphics/SVG/1.1/DTD/svg11.dtd">
<svg version="1.1" xmlns="http://www.w3.org/2000/svg" xmlns:xlink="http://www.w3.org/1999/xlink" width="64.8633" height="51.7383">
 <g>
  <rect height="51.7383" opacity="0" width="64.8633" x="0" y="0"/>
  <path d="M20 0C9.02344 0 0 12.5977 0 28.0664C0 35.332 1.93359 43.3789 4.25781 43.3789C6.15234 43.3789 7.65625 40.8789 7.8125 38.418C4.23828 37.3828 1.58203 34.0625 1.58203 30.1758C1.58203 27.8711 2.48047 25.7812 4.10156 24.1211C4.88281 13.4375 11.7969 4.00391 19.7656 4.00391C24.5117 4.00391 26.6992 7.57812 26.6992 14.1602L7.73438 24.0625C4.96094 25.4883 3.69141 27.7734 3.69141 30.1758C3.69141 33.7109 6.60156 36.6211 10.1367 36.6211C11.875 36.6211 13.0469 36.1719 15.5078 34.8438L25.0781 29.6094C29.2383 27.3047 30.7031 24.5312 30.7031 18.6523L30.7031 13.457C30.7031 5.21484 27.0898 0 20 0ZM10.0195 34.2773C7.71484 34.2773 5.87891 32.4219 5.87891 30.1758C5.87891 27.8906 7.71484 26.0156 10.0195 26.0156C12.2656 26.0156 14.1211 27.8906 14.1211 30.1758C14.1211 32.4219 12.2656 34.2773 10.0195 34.2773ZM10.0195 32.7734C11.4258 32.7734 12.6172 31.582 12.6172 30.1758C12.6172 28.7305 11.4258 27.5391 10.0195 27.5391C8.55469 27.5391 7.40234 28.7305 7.40234 30.1758C7.40234 31.582 8.55469 32.7734 10.0195 32.7734ZM3.33984 51.7188L5.42969 51.7188L5.42969 42.3633L3.33984 42.3633ZM44.4922 0C37.4023 0 33.7891 5.21484 33.7891 13.457L33.7891 18.6523C33.7891 24.5312 35.2539 27.3047 39.4141 29.6094L48.9844 34.8438C51.4453 36.1719 52.6172 36.6211 54.3555 36.6211C57.8906 36.6211 60.8008 33.7109 60.8008 30.1758C60.8008 27.7734 59.5312 25.4883 56.7578 24.0625L37.793 14.1602C37.793 7.57812 39.9805 4.00391 44.7266 4.00391C52.6953 4.00391 59.6094 13.4375 60.3906 24.1211C62.0117 25.7812 62.9102 27.8711 62.9102 30.1758C62.9102 34.0625 60.2539 37.3828 56.6797 38.418C56.8359 40.8789 58.3398 43.3789 60.2344 43.3789C62.5586 43.3789 64.4922 35.332 64.4922 28.0664C64.4922 12.5977 55.4688 0 44.4922 0ZM54.4727 34.2773C52.2266 34.2773 50.3711 32.4219 50.3711 30.1758C50.3711 27.8906 52.2266 26.0156 54.4727 26.0156C56.7773 26.0156 58.6133 27.8906 58.6133 30.1758C58.6133 32.4219 56.7773 34.2773 54.4727 34.2773ZM54.4727 32.7734C55.9375 32.7734 57.0898 31.582 57.0898 30.1758C57.0898 28.7305 55.9375 27.5391 54.4727 27.5391C53.0664 27.5391 51.875 28.7305 51.875 30.1758C51.875 31.582 53.0664 32.7734 54.4727 32.7734ZM61.1523 51.7188L61.1523 42.3633L59.0625 42.3633L59.0625 51.7188Z" fill="#000000" fill-opacity="0.85"/>
  <path d="M10.0195 34.2773C7.71484 34.2773 5.87891 32.4219 5.87891 30.1758C5.87891 27.8906 7.71484 26.0156 10.0195 26.0156C12.2656 26.0156 14.1211 27.8906 14.1211 30.1758C14.1211 32.4219 12.2656 34.2773 10.0195 34.2773ZM10.0195 32.7734C11.4258 32.7734 12.6172 31.582 12.6172 30.1758C12.6172 28.7305 11.4258 27.5391 10.0195 27.5391C8.55469 27.5391 7.40234 28.7305 7.40234 30.1758C7.40234 31.582 8.55469 32.7734 10.0195 32.7734ZM54.4727 34.2773C52.2266 34.2773 50.3711 32.4219 50.3711 30.1758C50.3711 27.8906 52.2266 26.0156 54.4727 26.0156C56.7773 26.0156 58.6133 27.8906 58.6133 30.1758C58.6133 32.4219 56.7773 34.2773 54.4727 34.2773ZM54.4727 32.7734C55.9375 32.7734 57.0898 31.582 57.0898 30.1758C57.0898 28.7305 55.9375 27.5391 54.4727 27.5391C53.0664 27.5391 51.875 28.7305 51.875 30.1758C51.875 31.582 53.0664 32.7734 54.4727 32.7734Z" fill="#000000" fill-opacity="0.2125"/>
 </g>
</svg>
