<?xml version="1.0" encoding="utf-8"?>
<!-- Generator: Adobe Illustrator 28.1.0, SVG Export Plug-In . SVG Version: 6.00 Build 0)  -->
<svg version="1.1" id="图层_1" xmlns="http://www.w3.org/2000/svg" xmlns:xlink="http://www.w3.org/1999/xlink" x="0px" y="0px"
	 viewBox="0 0 60.7 43.3" style="enable-background:new 0 0 60.7 43.3;" xml:space="preserve">
<style type="text/css">
	.st0{opacity:0.85;fill-rule:evenodd;clip-rule:evenodd;fill:#040000;}
	.st1{opacity:0.25;fill-rule:evenodd;clip-rule:evenodd;fill:#040000;}
</style>
<g>
	<g>
		<path class="st0" d="M59.5,14.7c0,0-1.7,12-12.2,10.2C36.4,23,28.9,11.8,36,4c0.2-0.2,0.4-0.4,0.6-0.6c-0.4,0.5-0.5,0.9-0.4,1.1
			c0.4,0.5,1.1-0.2,1.1-0.2C40,1.5,43,0.9,44.4,1c1.1,0.1,1.1-0.4,1.1-0.4c0-0.3-0.2-0.4-0.3-0.5c4.1,0.3,7.9,2.7,9.6,4.3
			C57.7,7.4,59.9,10,59.5,14.7z M47.2,11.1l-1.6-1.3c-0.7-0.6-1.7-0.4-2.3,0.3l-0.1,0.2c-0.6,0.7-0.4,1.7,0.3,2.3l1.6,1.3
			c0.7,0.6,1.7,0.4,2.3-0.3l0.1-0.2C48,12.7,47.9,11.7,47.2,11.1z M56.6,12.2c-1.1-0.5-3,1.1-4.3,3.6c-1.2,2.6-1.3,5.1-0.2,5.6
			c1.1,0.5,3-1.1,4.3-3.6C57.6,15.3,57.7,12.7,56.6,12.2z M47.5,27.3v13.7c0,1.3-1.1,2.4-2.4,2.4h-3.7c-1.3,0-2.4-1.1-2.4-2.4V27.3
			v-0.2v-3.3c3.8,3.1,8.5,3.3,8.5,3.3V27.3z"/>
		<path class="st1" d="M45.5,0.6c0,0,0,0.4-1.1,0.4c-1.3-0.1-4.2,0.5-6.9,3.2c0,0-0.8,0.9-1.3,0.3c-0.5-0.6,2.6-4.5,8.5-4.4
			C44.7,0.1,45.5,0.1,45.5,0.6z"/>
	</g>
	<g>
		<path class="st0" d="M6,4.5c1.7-1.6,5.4-4,9.6-4.3c-0.2,0.1-0.4,0.2-0.3,0.5c0,0,0,0.4,1.1,0.4c1.3-0.1,4.4,0.5,7,3.3
			c0,0,0.7,0.7,1.1,0.2c0.2-0.2,0-0.6-0.4-1.1c0.2,0.2,0.4,0.4,0.6,0.6c7.1,7.8-0.4,19-11.3,20.9C2.9,26.7,1.1,14.7,1.1,14.7
			C0.7,10,3,7.4,6,4.5z M13.2,13.4l0.1,0.2c0.6,0.7,1.6,0.8,2.3,0.3l1.6-1.3c0.7-0.6,0.8-1.6,0.3-2.3l-0.1-0.2
			c-0.6-0.7-1.6-0.8-2.3-0.3l-1.6,1.3C12.8,11.7,12.7,12.7,13.2,13.4z M4.3,17.8c1.2,2.6,3.2,4.2,4.3,3.6c1.1-0.5,1-3.1-0.2-5.6
			c-1.2-2.6-3.2-4.2-4.3-3.6C3,12.7,3.1,15.3,4.3,17.8z M13.2,27.1c0,0,4.7-0.2,8.5-3.3v3.3v0.2v13.7c0,1.3-1.1,2.4-2.4,2.4h-3.7
			c-1.3,0-2.4-1.1-2.4-2.4V27.3V27.1z"/>
		<path class="st1" d="M16,0.1c5.9-0.1,9,3.8,8.5,4.4c-0.5,0.6-1.3-0.3-1.3-0.3c-2.7-2.7-5.6-3.2-6.9-3.2c-1.1,0.1-1.1-0.4-1.1-0.4
			C15.2,0.1,16,0.1,16,0.1z"/>
	</g>
</g>
</svg>
