<?xml version="1.0" encoding="UTF-8"?>
<!--Generator: Apple Native CoreSVG 326-->
<!DOCTYPE svg
PUBLIC "-//W3C//DTD SVG 1.1//EN"
       "http://www.w3.org/Graphics/SVG/1.1/DTD/svg11.dtd">
<svg version="1.1" xmlns="http://www.w3.org/2000/svg" xmlns:xlink="http://www.w3.org/1999/xlink" viewBox="0 0 51.25 50.918">
 <g>
  <rect height="50.918" opacity="0" width="51.25" x="0" y="0"/>
  <path d="M25.4297 50.8789C39.4727 50.8789 50.8789 39.4922 50.8789 25.4492C50.8789 11.4062 39.4727 0 25.4297 0C11.3867 0 0 11.4062 0 25.4492C0 39.4922 11.3867 50.8789 25.4297 50.8789ZM25.4297 47.2461C13.3789 47.2461 3.63281 37.5 3.63281 25.4492C3.63281 13.3984 13.3789 3.65234 25.4297 3.65234C37.4805 3.65234 47.2266 13.3984 47.2266 25.4492C47.2266 37.5 37.4805 47.2461 25.4297 47.2461Z" fill="black" fill-opacity="0.85"/>
  <path d="M15.5273 30.4297C15.5273 31.4453 16.2109 32.0898 17.2656 32.0898L24.043 32.0898L24.043 37.0117C24.043 39.4727 25 41.5234 25.4297 41.5234C25.8398 41.5234 26.8164 39.4727 26.8164 37.0117L26.8164 32.0898L33.5742 32.0898C34.6484 32.0898 35.332 31.4453 35.332 30.4297C35.332 27.6562 33.1055 24.7656 29.5117 23.4961L29.082 17.4023C30.7812 16.4258 32.3242 15.2344 33.0273 14.3359C33.3594 13.8867 33.5352 13.4375 33.5352 13.0469C33.5352 12.3242 32.9883 11.7969 32.1094 11.7969L18.75 11.7969C17.8906 11.7969 17.3242 12.3242 17.3242 13.0469C17.3242 13.457 17.5195 13.9258 17.8906 14.375C18.5938 15.2734 20.0977 16.4453 21.7773 17.4023L21.3477 23.4961C17.7539 24.7656 15.5273 27.6562 15.5273 30.4297Z" fill="black" fill-opacity="0.85"/>
 </g>
</svg>
