<?xml version="1.0" encoding="UTF-8"?>
<!--Generator: Apple Native CoreSVG 232.5-->
<!DOCTYPE svg
PUBLIC "-//W3C//DTD SVG 1.1//EN"
       "http://www.w3.org/Graphics/SVG/1.1/DTD/svg11.dtd">
<svg version="1.1" xmlns="http://www.w3.org/2000/svg" xmlns:xlink="http://www.w3.org/1999/xlink" width="63.2812" height="39.4336">
 <g>
  <rect height="39.4336" opacity="0" width="63.2812" x="0" y="0"/>
  <path d="M7.59766 39.375L55.3125 39.375C60.3516 39.375 62.9102 36.8164 62.9102 31.8359L62.9102 7.53906C62.9102 2.55859 60.3516 0 55.3125 0L7.59766 0C2.53906 0 0 2.53906 0 7.53906L0 31.8359C0 36.8359 2.53906 39.375 7.59766 39.375ZM9.47266 13.5938C8.75 13.5938 8.33984 13.1641 8.33984 12.4609L8.33984 10.1953C8.33984 9.49219 8.75 9.0625 9.47266 9.0625L11.7188 9.0625C12.4414 9.0625 12.8711 9.49219 12.8711 10.1953L12.8711 12.4609C12.8711 13.1641 12.4414 13.5938 11.7188 13.5938ZM17.7734 13.5938C17.0508 13.5938 16.6406 13.1641 16.6406 12.4609L16.6406 10.1953C16.6406 9.49219 17.0508 9.0625 17.7734 9.0625L20.0391 9.0625C20.7422 9.0625 21.1719 9.49219 21.1719 10.1953L21.1719 12.4609C21.1719 13.1641 20.7422 13.5938 20.0391 13.5938ZM26.0742 13.5938C25.3906 13.5938 24.9609 13.1641 24.9609 12.4609L24.9609 10.1953C24.9609 9.49219 25.3906 9.0625 26.0742 9.0625L28.3398 9.0625C29.043 9.0625 29.4922 9.49219 29.4922 10.1953L29.4922 12.4609C29.4922 13.1641 29.043 13.5938 28.3398 13.5938ZM34.3945 13.5938C33.6914 13.5938 33.2617 13.1641 33.2617 12.4609L33.2617 10.1953C33.2617 9.49219 33.6914 9.0625 34.3945 9.0625L36.6602 9.0625C37.3633 9.0625 37.793 9.49219 37.793 10.1953L37.793 12.4609C37.793 13.1641 37.3633 13.5938 36.6602 13.5938ZM42.7148 13.5938C41.9922 13.5938 41.5625 13.1641 41.5625 12.4609L41.5625 10.1953C41.5625 9.49219 41.9922 9.0625 42.7148 9.0625L44.9609 9.0625C45.6836 9.0625 46.0938 9.49219 46.0938 10.1953L46.0938 12.4609C46.0938 13.1641 45.6836 13.5938 44.9609 13.5938ZM51.0156 13.5938C50.293 13.5938 49.8633 13.1641 49.8633 12.4609L49.8633 10.1953C49.8633 9.49219 50.293 9.0625 51.0156 9.0625L53.2617 9.0625C53.9844 9.0625 54.3945 9.49219 54.3945 10.1953L54.3945 12.4609C54.3945 13.1641 53.9844 13.5938 53.2617 13.5938ZM9.47266 21.9141C8.75 21.9141 8.33984 21.4648 8.33984 20.7812L8.33984 18.4961C8.33984 17.8125 8.75 17.3633 9.47266 17.3633L11.7188 17.3633C12.4414 17.3633 12.8711 17.8125 12.8711 18.4961L12.8711 20.7812C12.8711 21.4648 12.4414 21.9141 11.7188 21.9141ZM17.7734 21.9141C17.0508 21.9141 16.6406 21.4648 16.6406 20.7812L16.6406 18.4961C16.6406 17.8125 17.0508 17.3633 17.7734 17.3633L20.0391 17.3633C20.7422 17.3633 21.1719 17.8125 21.1719 18.4961L21.1719 20.7812C21.1719 21.4648 20.7422 21.9141 20.0391 21.9141ZM26.0742 21.9141C25.3906 21.9141 24.9609 21.4648 24.9609 20.7812L24.9609 18.4961C24.9609 17.8125 25.3906 17.3633 26.0742 17.3633L28.3398 17.3633C29.043 17.3633 29.4922 17.8125 29.4922 18.4961L29.4922 20.7812C29.4922 21.4648 29.043 21.9141 28.3398 21.9141ZM34.3945 21.9141C33.6914 21.9141 33.2617 21.4648 33.2617 20.7812L33.2617 18.4961C33.2617 17.8125 33.6914 17.3633 34.3945 17.3633L36.6602 17.3633C37.3633 17.3633 37.793 17.8125 37.793 18.4961L37.793 20.7812C37.793 21.4648 37.3633 21.9141 36.6602 21.9141ZM42.7148 21.9141C41.9922 21.9141 41.5625 21.4648 41.5625 20.7812L41.5625 18.4961C41.5625 17.8125 41.9922 17.3633 42.7148 17.3633L44.9609 17.3633C45.6836 17.3633 46.0938 17.8125 46.0938 18.4961L46.0938 20.7812C46.0938 21.4648 45.6836 21.9141 44.9609 21.9141ZM51.0156 21.9141C50.293 21.9141 49.8633 21.4648 49.8633 20.7812L49.8633 18.4961C49.8633 17.8125 50.293 17.3633 51.0156 17.3633L53.2617 17.3633C53.9844 17.3633 54.3945 17.8125 54.3945 18.4961L54.3945 20.7812C54.3945 21.4648 53.9844 21.9141 53.2617 21.9141ZM9.47266 30.2148C8.75 30.2148 8.33984 29.7852 8.33984 29.082L8.33984 26.8164C8.33984 26.1133 8.75 25.6836 9.47266 25.6836L11.7188 25.6836C12.4414 25.6836 12.8711 26.1133 12.8711 26.8164L12.8711 29.082C12.8711 29.7852 12.4414 30.2148 11.7188 30.2148ZM17.9883 30.2148C17.1484 30.2148 16.6406 29.707 16.6406 28.8672L16.6406 27.0312C16.6406 26.1719 17.1484 25.6836 17.9883 25.6836L44.7461 25.6836C45.6055 25.6836 46.0938 26.1719 46.0938 27.0312L46.0938 28.8672C46.0938 29.707 45.6055 30.2148 44.7461 30.2148ZM51.0156 30.2148C50.293 30.2148 49.8633 29.7852 49.8633 29.082L49.8633 26.8164C49.8633 26.1133 50.293 25.6836 51.0156 25.6836L53.2617 25.6836C53.9844 25.6836 54.3945 26.1133 54.3945 26.8164L54.3945 29.082C54.3945 29.7852 53.9844 30.2148 53.2617 30.2148Z" fill="#000000" fill-opacity="0.85"/>
 </g>
</svg>
