<?xml version="1.0" encoding="UTF-8"?>
<!--Generator: Apple Native CoreSVG 232.5-->
<!DOCTYPE svg
PUBLIC "-//W3C//DTD SVG 1.1//EN"
       "http://www.w3.org/Graphics/SVG/1.1/DTD/svg11.dtd">
<svg version="1.1" xmlns="http://www.w3.org/2000/svg" xmlns:xlink="http://www.w3.org/1999/xlink" width="37.2461" height="48.6153">
 <g>
  <rect height="48.6153" opacity="0" width="37.2461" x="0" y="0"/>
  <path d="M18.2422 28.6977L18.2422 44.0245C18.2422 45.4307 17.3242 46.1924 15.8398 46.1924L13.8672 46.1924C12.4023 46.1924 11.4844 45.4307 11.4844 44.0245L11.4844 27.328C13.2556 27.9935 15.3729 28.4773 18.2422 28.6977Z" fill="#000000" fill-opacity="0.85"/>
  <path d="M24.4531 9.06351C24.7991 9.50226 25.2944 10.2691 25.7612 11.1931C20.1223 12.0765 16.0352 17.0837 16.0352 22.0909C16.0352 23.5955 16.3079 24.9311 16.7958 26.0878C13.7028 25.7092 11.7469 24.9597 9.96094 23.9659C5.70312 21.6221 2.42188 17.7159 2.42188 12.2471C2.42188 6.1143 6.73828 2.48148 12.2461 2.42289C16.582 2.3643 21.3867 4.53226 24.4531 9.06351ZM7.48047 8.16508C7.07031 8.63383 7.08984 9.33695 7.59766 9.74711L11.2109 12.7549C11.6602 13.1455 12.4023 13.1065 12.793 12.5987C13.1836 12.1299 13.125 11.4268 12.6367 11.0166L9.0625 8.00883C8.57422 7.59867 7.87109 7.65726 7.48047 8.16508Z" fill="#000000" fill-opacity="0.85"/>
  <path d="M25.5078 29.1807C29.9805 29.1807 34.4336 25.6065 34.4336 20.3721C34.4336 16.7393 31.875 13.3799 27.5586 13.3799C22.3438 13.3799 18.3594 17.794 18.3594 22.0909C18.3594 26.7588 21.6016 29.1807 25.5078 29.1807ZM26.6797 25.5674C26.0156 24.9815 26.4062 23.7705 27.8125 21.9932C29.2578 20.2354 30.4297 19.6299 31.1523 20.2354C31.8359 20.8409 31.4453 22.0713 30.0391 23.7901C28.5938 25.5479 27.3828 26.1729 26.6797 25.5674Z" fill="#000000" fill-opacity="0.425"/>
 </g>
</svg>
