<?xml version="1.0" encoding="UTF-8"?>
<!--Generator: Apple Native CoreSVG 232.5-->
<!DOCTYPE svg
PUBLIC "-//W3C//DTD SVG 1.1//EN"
       "http://www.w3.org/Graphics/SVG/1.1/DTD/svg11.dtd">
<svg version="1.1" xmlns="http://www.w3.org/2000/svg" xmlns:xlink="http://www.w3.org/1999/xlink" width="55.8691" height="55.4883">
 <g>
  <rect height="55.4883" opacity="0" width="55.8691" x="0" y="0"/>
  <path d="M25.1758 55.4688L30.3125 55.4688C32.5391 55.4688 34.2871 54.082 34.7852 51.9531L35.7617 47.7637L36.3477 47.5586L40 49.8047C41.875 50.9668 44.0918 50.6738 45.6543 49.0918L49.1992 45.5566C50.791 43.9355 51.0645 41.7383 49.9023 39.9121L47.6367 36.2793L47.8418 35.7129L52.002 34.7363C54.1113 34.209 55.498 32.4512 55.498 30.2539L55.498 25.293C55.498 23.1055 54.1309 21.3379 52.002 20.8203L47.8711 19.8145L47.6465 19.2285L49.9121 15.6055C51.084 13.7598 50.8008 11.5918 49.209 9.95117L45.6641 6.40625C44.1211 4.83398 41.9043 4.53125 40.0293 5.68359L36.377 7.92969L35.7617 7.69531L34.7852 3.51562C34.2871 1.37695 32.5391 0 30.3125 0L25.1758 0C22.959 0 21.2109 1.39648 20.7031 3.51562L19.7363 7.69531L19.1016 7.92969L15.459 5.68359C13.5938 4.54102 11.377 4.83398 9.83398 6.40625L6.2793 9.95117C4.69727 11.5918 4.4043 13.7598 5.58594 15.6055L7.85156 19.2285L7.61719 19.8145L3.48633 20.8203C1.35742 21.3477 0 23.1055 0 25.293L0 30.2539C0 32.4512 1.37695 34.2188 3.48633 34.7363L7.64648 35.7129L7.86133 36.2793L5.5957 39.9121C4.42383 41.7383 4.70703 43.9355 6.28906 45.5566L9.84375 49.0918C11.4062 50.6738 13.623 50.9668 15.4883 49.8047L19.1309 47.5586L19.7363 47.7637L20.7031 51.9531C21.2109 54.082 22.959 55.4688 25.1758 55.4688ZM26.0449 50.3516C25.5957 50.3516 25.3711 50.127 25.293 49.7266L23.8379 43.6035C22.1973 43.2422 20.5859 42.5781 19.209 41.6992L13.8379 45.0098C13.5059 45.2344 13.1641 45.2051 12.8418 44.8926L10.4883 42.5391C10.1562 42.2266 10.1758 41.9043 10.3809 41.5527L13.7109 36.1816C12.9102 34.8242 12.2266 33.2422 11.8652 31.6211L5.73242 30.1855C5.33203 30.1074 5.10742 29.8828 5.10742 29.4141L5.10742 26.1133C5.10742 25.6445 5.32227 25.4395 5.73242 25.3516L11.8555 23.9062C12.2363 22.2363 12.9395 20.6055 13.6816 19.3164L10.3711 13.9551C10.1465 13.5938 10.127 13.2715 10.459 12.9492L12.832 10.6152C13.1543 10.3125 13.457 10.2734 13.8379 10.498L19.1797 13.7793C20.3711 13.0176 22.1582 12.2656 23.8477 11.8652L25.293 5.74219C25.3711 5.33203 25.5957 5.12695 26.0449 5.12695L29.4434 5.12695C29.9121 5.12695 30.127 5.32227 30.2051 5.74219L31.6602 11.8945C33.3594 12.2656 34.9414 12.9688 36.2988 13.7891L41.6211 10.5273C42.0117 10.3027 42.2949 10.3223 42.6367 10.6348L45.0195 12.9688C45.332 13.291 45.3223 13.6133 45.0879 13.9844L41.7969 19.3164C42.5586 20.5957 43.2617 22.2266 43.6328 23.8867L49.7656 25.3516C50.1758 25.4395 50.3809 25.6445 50.3809 26.1133L50.3809 29.4141C50.3809 29.8828 50.166 30.1074 49.7656 30.1855L43.6133 31.6309C43.2617 33.2324 42.5879 34.8633 41.7676 36.1816L45.0781 41.5332C45.293 41.8848 45.3027 42.1973 44.9902 42.5098L42.627 44.8633C42.2852 45.1953 41.9727 45.2148 41.6211 44.9902L36.2891 41.6992C34.8828 42.5781 33.418 43.2129 31.6602 43.6035L30.2051 49.7266C30.127 50.1367 29.9121 50.3516 29.4434 50.3516ZM27.7539 37.2656C32.9688 37.2656 37.2559 32.9688 37.2559 27.7344C37.2559 22.5293 32.9688 18.252 27.7539 18.252C22.5293 18.252 18.2129 22.5293 18.2129 27.7344C18.2129 32.9688 22.5195 37.2656 27.7539 37.2656ZM27.7539 32.6465C25.0684 32.6465 22.8613 30.4297 22.8613 27.7344C22.8613 25.0781 25.0879 22.8711 27.7539 22.8711C30.3906 22.8711 32.5879 25.0879 32.5879 27.7344C32.5879 30.4199 30.3906 32.6465 27.7539 32.6465Z" fill="#000000" fill-opacity="0.85"/>
 </g>
</svg>
