<?xml version="1.0" encoding="UTF-8"?>
<!--Generator: Apple Native CoreSVG 326-->
<!DOCTYPE svg
PUBLIC "-//W3C//DTD SVG 1.1//EN"
       "http://www.w3.org/Graphics/SVG/1.1/DTD/svg11.dtd">
<svg version="1.1" xmlns="http://www.w3.org/2000/svg" xmlns:xlink="http://www.w3.org/1999/xlink" viewBox="0 0 51.25 50.918">
 <g>
  <rect height="50.918" opacity="0" width="51.25" x="0" y="0"/>
  <path d="M50.8789 25.4492C50.8789 39.4922 39.4727 50.8789 25.4297 50.8789C11.3867 50.8789 0 39.4922 0 25.4492C0 11.4062 11.3867 0 25.4297 0C39.4727 0 50.8789 11.4062 50.8789 25.4492ZM3.63281 25.4492C3.63281 37.5 13.3789 47.2461 25.4297 47.2461C37.4805 47.2461 47.2266 37.5 47.2266 25.4492C47.2266 13.3984 37.4805 3.65234 25.4297 3.65234C13.3789 3.65234 3.63281 13.3984 3.63281 25.4492Z" fill="black" fill-opacity="0.85"/>
  <path d="M18.8787 22.7068C18.5268 23.5475 18.335 24.4736 18.3398 25.4492C18.3398 29.2773 21.4844 32.5 25.4102 32.5C26.3692 32.5 27.2855 32.3038 28.121 31.9491L31.3769 35.205C29.5575 35.8353 27.5516 36.2109 25.4102 36.2109C15.4688 36.2109 8.33984 27.9883 8.33984 25.4492C8.33984 24.0121 10.5923 20.7543 14.3706 18.1987ZM42.4805 25.4492C42.4805 26.8797 40.2425 30.1141 36.4958 32.6655L31.9433 28.1092C32.2902 27.285 32.4805 26.3852 32.4805 25.4492C32.4805 21.5234 29.2969 18.3984 25.4102 18.3984C24.4683 18.3984 23.5704 18.5783 22.7518 18.91L19.5117 15.6673C21.3121 15.0528 23.2943 14.6875 25.4102 14.6875C35.3906 14.6875 42.4805 22.9102 42.4805 25.4492Z" fill="black" fill-opacity="0.85"/>
  <path d="M36.5625 37.9883C36.9531 38.3984 37.6172 38.3984 38.0273 37.9883C38.4375 37.5781 38.4375 36.9531 38.0273 36.5234L14.375 12.8711C13.9648 12.4609 13.3008 12.4609 12.8906 12.8711C12.4805 13.2812 12.5 13.9453 12.8906 14.3359Z" fill="black" fill-opacity="0.85"/>
 </g>
</svg>
