<?xml version="1.0" encoding="UTF-8"?>
<!--Generator: Apple Native CoreSVG 232.5-->
<!DOCTYPE svg
PUBLIC "-//W3C//DTD SVG 1.1//EN"
       "http://www.w3.org/Graphics/SVG/1.1/DTD/svg11.dtd">
<svg version="1.1" xmlns="http://www.w3.org/2000/svg" xmlns:xlink="http://www.w3.org/1999/xlink" width="47.9501" height="60.465">
 <g>
  <rect height="60.465" opacity="0" width="47.9501" x="0" y="0"/>
  <path d="M6.64145 50.8853L40.9376 50.8853C45.2822 50.8853 47.579 48.5376 47.579 44.2462L47.579 13.1954C47.579 8.86175 45.2822 6.56174 40.9376 6.56174L6.64145 6.56174C2.28595 6.56174 0 8.86175 0 13.1954L0 44.2462C0 48.5994 2.28595 50.8853 6.64145 50.8853ZM21.286 36.0658C20.2407 36.0658 19.5243 35.0845 18.6711 33.9025C17.6563 32.4946 16.8758 30.3314 16.8758 28.2798C16.8758 24.968 19.0336 23.2313 21.1579 23.2313C22.2673 23.2313 23.1844 23.9532 23.9009 23.9532C24.5587 23.9532 25.618 23.1727 26.8837 23.1727C27.3798 23.1727 29.111 23.2313 30.2595 24.8704C30.1564 24.929 28.4196 25.9212 28.4196 28.1181C28.4196 30.6298 30.647 31.5134 30.7196 31.547C30.6806 31.6165 30.3907 32.7931 29.5376 33.9611C28.8212 34.9814 28.0657 36.0658 26.8837 36.0658C25.7407 36.0658 25.4454 35.3743 24.1016 35.3743C22.8219 35.3743 22.3313 36.0658 21.286 36.0658ZM24.004 23.0024C23.9009 23.0024 23.8313 23.0337 23.7782 22.9665C23.7446 22.9415 23.7446 22.8048 23.7446 22.6766C23.7446 21.7899 24.1602 20.9008 24.6563 20.3516C25.2751 19.6407 26.2954 19.1055 27.154 19.0719C27.179 19.1696 27.179 19.2727 27.179 19.4094C27.179 20.293 26.8251 21.1376 26.2954 21.7899C25.7407 22.4813 24.7594 23.0024 24.004 23.0024ZM6.07268 57.9392L14.2868 57.9392C14.8923 57.9392 15.3391 57.4728 15.3391 56.8869C15.3391 56.2814 14.8923 55.815 14.2868 55.815L6.07268 55.815C5.4672 55.815 5.00625 56.2814 5.00625 56.8869C5.00625 57.4728 5.4672 57.9392 6.07268 57.9392ZM9.11329 56.5845L11.2321 56.5845L11.2321 50.261L9.11329 50.261ZM33.2923 57.9392L41.5064 57.9392C42.1064 57.9392 42.5728 57.4728 42.5728 56.8869C42.5728 56.2814 42.1064 55.815 41.5064 55.815L33.2923 55.815C32.6868 55.815 32.2399 56.2814 32.2399 56.8869C32.2399 57.4728 32.6868 57.9392 33.2923 57.9392ZM36.347 56.5845L38.4658 56.5845L38.4658 50.261L36.347 50.261ZM9.11329 7.34693L11.2321 7.34693L11.2321 1.06643C11.2321 0.466418 10.7711 0 10.1852 0C9.57424 0 9.11329 0.466418 9.11329 1.06643ZM36.347 7.34693L38.4658 7.34693L38.4658 1.06643C38.4658 0.466418 38.0048 0 37.3993 0C36.8079 0 36.347 0.466418 36.347 1.06643Z" fill="#ffffff" fill-opacity="0.85"/>
 </g>
</svg>
