<?xml version="1.0" encoding="UTF-8"?>
<!--Generator: Apple Native CoreSVG 232.5-->
<!DOCTYPE svg
PUBLIC "-//W3C//DTD SVG 1.1//EN"
       "http://www.w3.org/Graphics/SVG/1.1/DTD/svg11.dtd">
<svg version="1.1" xmlns="http://www.w3.org/2000/svg" xmlns:xlink="http://www.w3.org/1999/xlink" width="78.6162" height="41.3566">
 <g>
  <rect height="41.3566" opacity="0" width="78.6162" x="0" y="0"/>
  <path d="M0.085547 18.7469L18.86 18.7469C19.2156 17.7359 20.1768 17.0779 21.3211 17.0779L56.9301 17.0779C58.0805 17.0779 59.016 17.7359 59.3717 18.7469L78.1461 18.7469C77.0516 6.43125 68.133 0 52.1596 0L26.0856 0C10.1256 0 1.19356 6.43125 0.085547 18.7469ZM52.1596 41.3176C68.7414 41.3176 78.1494 33.8803 78.2451 20.6566L59.3717 20.6566C59.016 21.6676 58.0805 22.3195 56.9301 22.3195L21.3211 22.3195C20.1768 22.3195 19.2156 21.6676 18.86 20.6566L0 20.6566C0.0882816 33.6484 9.7834 41.3176 26.0856 41.3176ZM39.1256 31.0195C37.6998 31.0451 36.5475 29.8537 36.5475 28.467C36.5475 27.0607 37.6998 25.9023 39.1256 25.9023C40.5318 25.9023 41.6977 27.0607 41.6977 28.467C41.6977 29.7951 40.5318 30.9865 39.1256 31.0195Z" fill="#000000" fill-opacity="0.85"/>
 </g>
</svg>
