<?xml version="1.0" encoding="UTF-8"?>
<!--Generator: Apple Native CoreSVG 232.5-->
<!DOCTYPE svg
PUBLIC "-//W3C//DTD SVG 1.1//EN"
       "http://www.w3.org/Graphics/SVG/1.1/DTD/svg11.dtd">
<svg version="1.1" xmlns="http://www.w3.org/2000/svg" xmlns:xlink="http://www.w3.org/1999/xlink" width="40.8961" height="54.9426">
 <g>
  <rect height="54.9426" opacity="0" width="40.8961" x="0" y="0"/>
  <path d="M2.64571 47.2178L2.64571 7.76114L37.8658 7.76114L37.8658 47.2178ZM20.2881 52.6795C19.2023 52.6795 18.3193 51.777 18.3193 50.6973C18.3193 49.6176 19.2023 48.7541 20.2881 48.7541C21.3678 48.7541 22.2447 49.6176 22.2447 50.6973C22.2447 51.777 21.3678 52.6795 20.2881 52.6795ZM20.2625 5.30215C19.5688 5.30215 19.0131 4.73301 19.0131 4.05274C19.0131 3.37988 19.5688 2.79727 20.2625 2.79727C20.9293 2.79727 21.518 3.37988 21.518 4.05274C21.518 4.73301 20.9293 5.30215 20.2625 5.30215Z" fill="#000000" fill-opacity="0.2125"/>
  <path d="M6.73574 54.9426L33.7893 54.9426C37.9992 54.9426 40.525 52.4721 40.525 48.3565L40.525 6.62246C40.525 2.50684 37.9992 0.0363278 33.7893 0.0363278L6.73574 0.0363278C2.53184 0.0363278 0 2.50684 0 6.62246L0 48.3565C0 52.4721 2.53184 54.9426 6.73574 54.9426ZM2.64571 47.2178L2.64571 7.76114L37.8658 7.76114L37.8658 47.2178ZM20.2881 52.6795C19.2023 52.6795 18.3193 51.777 18.3193 50.6973C18.3193 49.6176 19.2023 48.7541 20.2881 48.7541C21.3678 48.7541 22.2447 49.6176 22.2447 50.6973C22.2447 51.777 21.3678 52.6795 20.2881 52.6795ZM20.2625 5.30215C19.5688 5.30215 19.0131 4.73301 19.0131 4.05274C19.0131 3.37988 19.5688 2.79727 20.2625 2.79727C20.9293 2.79727 21.518 3.37988 21.518 4.05274C21.518 4.73301 20.9293 5.30215 20.2625 5.30215Z" fill="#000000" fill-opacity="0.85"/>
 </g>
</svg>
