<?xml version="1.0" encoding="UTF-8"?>
<!--Generator: Apple Native CoreSVG 232.5-->
<!DOCTYPE svg
PUBLIC "-//W3C//DTD SVG 1.1//EN"
       "http://www.w3.org/Graphics/SVG/1.1/DTD/svg11.dtd">
<svg version="1.1" xmlns="http://www.w3.org/2000/svg" xmlns:xlink="http://www.w3.org/1999/xlink" width="30.2871" height="50.6848">
 <g>
  <rect height="50.6848" opacity="0" width="30.2871" x="0" y="0"/>
  <path d="M19.4975 0C8.78731 0 0 12.2889 0 27.352C0 34.4359 1.88516 42.277 4.08828 42.277C6.01914 42.277 7.51094 39.7467 7.61875 37.3281C4.17168 36.3475 1.63047 33.1604 1.63047 29.4129C1.63047 27.2172 2.45625 25.2303 3.97442 23.6428C4.70723 13.165 11.4518 3.90098 19.257 3.90098C23.8881 3.90098 26.0272 7.37832 26.0272 13.7969L7.52246 23.457C4.82774 24.8465 3.60059 27.0711 3.60059 29.4129C3.60059 32.8209 6.3957 35.6524 9.83399 35.6524C11.5238 35.6524 12.7018 35.2031 15.1082 33.8992L24.4363 28.8102C28.4815 26.56 29.916 23.8713 29.916 18.1377L29.916 13.118C29.916 5.08164 26.3996 0 19.4975 0ZM9.75918 33.466C7.48477 33.466 5.6791 31.6408 5.6791 29.4068C5.6791 27.1459 7.48477 25.283 9.75918 25.283C11.9871 25.283 13.8184 27.1459 13.8184 29.4068C13.8184 31.6287 11.9871 33.466 9.75918 33.466ZM9.75918 32.0893C11.2199 32.0893 12.4477 30.8615 12.4477 29.4068C12.4477 27.907 11.2199 26.6793 9.75918 26.6793C8.25196 26.6793 7.06328 27.907 7.06328 29.4068C7.06328 30.8615 8.25196 32.0893 9.75918 32.0893ZM3.33984 50.6713L5.09668 50.6713L5.09668 41.1826L3.33984 41.1826Z" fill="#000000" fill-opacity="0.85"/>
  <path d="M9.75918 33.466C7.48477 33.466 5.6791 31.6408 5.6791 29.4068C5.6791 27.1459 7.48477 25.283 9.75918 25.283C11.9871 25.283 13.8184 27.1459 13.8184 29.4068C13.8184 31.6287 11.9871 33.466 9.75918 33.466ZM9.75918 32.0893C11.2199 32.0893 12.4477 30.8615 12.4477 29.4068C12.4477 27.907 11.2199 26.6793 9.75918 26.6793C8.25196 26.6793 7.06328 27.907 7.06328 29.4068C7.06328 30.8615 8.25196 32.0893 9.75918 32.0893Z" fill="#000000" fill-opacity="0.2125"/>
 </g>
</svg>
