<?xml version="1.0" encoding="UTF-8"?>
<svg id="a" data-name="图层 1" xmlns="http://www.w3.org/2000/svg" viewBox="0 0 51.25 50.918">
  <g>
    <rect width="51.25" height="50.918" style="opacity: 0; stroke-width: 0px;"/>
    <g style="opacity: .85;">
      <path d="M25.43,50.879c14.043,0,25.449-11.387,25.449-25.43S39.473,0,25.43,0,0,11.406,0,25.449s11.387,25.43,25.43,25.43ZM25.43,47.246c-12.051,0-21.797-9.746-21.797-21.797S13.379,3.652,25.43,3.652s21.797,9.746,21.797,21.797-9.746,21.797-21.797,21.797Z" style="stroke-width: 0px;"/>
    </g>
  </g>
  <g>
    <rect x="14.07" y="6.604" width="22.72" height="36.87" style="opacity: 0; stroke-width: 0px;"/>
    <g style="opacity: .85;">
      <path d="M18.538,11.943v1.406c0,1.573,1.101,2.685,2.643,2.685h8.297c1.542,0,2.643-1.112,2.643-2.685v-1.406c0-.104-.005-.205-.015-.304h.445c2.685,0,4.038,1.374,4.038,4.091v20.748c0,2.717-1.353,4.08-4.038,4.08h-14.444c-2.685,0-4.038-1.364-4.038-4.08V15.73c0-2.717,1.353-4.091,4.038-4.091h.445c-.01.099-.015.201-.015.304ZM19.105,31.58c-.43,0-.766.336-.766.755,0,.409.346.766.766.766h6.461c.409,0,.755-.357.755-.766,0-.42-.336-.755-.755-.755h-6.461ZM19.105,26.335c-.43,0-.766.336-.766.755s.336.755.766.755h12.451c.43,0,.766-.336.766-.755s-.336-.755-.766-.755h-12.451ZM19.105,21.352c-.42,0-.766.346-.766.776,0,.409.346.755.766.755h12.451c.42,0,.766-.346.766-.755,0-.43-.346-.776-.766-.776h-12.451Z" style="stroke-width: 0px;"/>
    </g>
    <g style="opacity: .85;">
      <path d="M28.125,10.727h1.353c.734,0,1.185.451,1.185,1.217v1.406c0,.766-.451,1.217-1.185,1.217h-8.297c-.734,0-1.185-.451-1.185-1.217v-1.406c0-.766.451-1.217,1.185-1.217h1.353c.073-1.469,1.301-2.664,2.801-2.664,1.489,0,2.717,1.196,2.79,2.664ZM24.129,10.811c0,.64.535,1.196,1.206,1.196.661,0,1.196-.556,1.196-1.196,0-.671-.535-1.206-1.196-1.206-.671,0-1.206.535-1.206,1.206Z" style="stroke-width: 0px;"/>
    </g>
  </g>
</svg>