<?xml version="1.0" encoding="UTF-8"?>
<!--Generator: Apple Native CoreSVG 232.5-->
<!DOCTYPE svg
PUBLIC "-//W3C//DTD SVG 1.1//EN"
       "http://www.w3.org/Graphics/SVG/1.1/DTD/svg11.dtd">
<svg version="1.1" xmlns="http://www.w3.org/2000/svg" xmlns:xlink="http://www.w3.org/1999/xlink" width="49.043" height="48.1445">
 <g>
  <rect height="48.1445" opacity="0" width="49.043" x="0" y="0"/>
  <path d="M10.7812 19.8633C16.543 19.9023 21.4258 15.3906 21.3672 9.90234C21.3086 4.47266 16.543 0 10.7812 0C5.74219 0 2.42188 3.02734 0.722656 5.54688C0.214844 6.32812 0 7.16797 0 8.08594L0 11.7578C0 12.7148 0.234375 13.5352 0.722656 14.2969C2.38281 16.8359 5.74219 19.7852 10.7812 19.8633ZM4.39453 13.75C3.76953 13.75 3.28125 13.2617 3.28125 12.6172L3.28125 7.20703C3.28125 6.58203 3.76953 6.11328 4.39453 6.11328C5.03906 6.11328 5.52734 6.58203 5.52734 7.20703L5.52734 12.6172C5.52734 13.2617 5.03906 13.75 4.39453 13.75ZM12.168 40.0977L18.9062 40.0977L18.9062 19.4727C17.0312 20.918 14.6875 21.875 12.168 22.1094ZM14.4727 48.0664L16.6016 48.0664C18.0469 48.0664 18.9062 47.3438 18.9062 45.9961L18.9062 42.5L12.168 42.5L12.168 45.9961C12.168 47.3438 13.0664 48.0664 14.4727 48.0664ZM37.8711 19.8633C42.9297 19.7852 46.2891 16.8359 47.9297 14.2969C48.4375 13.5352 48.6719 12.7148 48.6719 11.7578L48.6719 8.08594C48.6719 7.16797 48.457 6.32812 47.9297 5.54688C46.25 3.02734 42.9297 0 37.8711 0C32.1289 0 27.3633 4.47266 27.3047 9.90234C27.2461 15.3906 32.1289 19.9023 37.8711 19.8633ZM44.2578 13.75C43.6328 13.75 43.1445 13.2617 43.1445 12.6172L43.1445 7.20703C43.1445 6.58203 43.6328 6.11328 44.2578 6.11328C44.9023 6.11328 45.3711 6.58203 45.3711 7.20703L45.3711 12.6172C45.3711 13.2617 44.9023 13.75 44.2578 13.75ZM36.4844 40.0977L36.4844 22.1094C33.9844 21.875 31.6406 20.918 29.7461 19.4727L29.7461 40.0977ZM34.1797 48.0664C35.5859 48.0664 36.4844 47.3438 36.4844 45.9961L36.4844 42.5L29.7461 42.5L29.7461 45.9961C29.7461 47.3438 30.625 48.0664 32.0703 48.0664Z" fill="#000000" fill-opacity="0.85"/>
 </g>
</svg>
