<?xml version="1.0" encoding="UTF-8"?>
<!--Generator: Apple Native CoreSVG 232.5-->
<!DOCTYPE svg
PUBLIC "-//W3C//DTD SVG 1.1//EN"
       "http://www.w3.org/Graphics/SVG/1.1/DTD/svg11.dtd">
<svg version="1.1" xmlns="http://www.w3.org/2000/svg" xmlns:xlink="http://www.w3.org/1999/xlink" width="40.8961" height="54.9426">
 <g>
  <rect height="54.9426" opacity="0" width="40.8961" x="0" y="0"/>
  <path d="M2.64571 47.9852L2.64571 6.99375C2.64571 4.19922 4.18379 2.68204 7.0127 2.68204L33.4988 2.68204C36.3277 2.68204 37.8658 4.19922 37.8658 6.99375L37.8658 47.9852C37.8658 50.7662 36.3277 52.2834 33.4988 52.2834L7.0127 52.2834C4.18379 52.2834 2.64571 50.7662 2.64571 47.9852Z" fill="#000000" fill-opacity="0.2125"/>
  <path d="M0 48.3565C0 52.4721 2.53184 54.9426 6.73574 54.9426L33.7893 54.9426C37.9992 54.9426 40.525 52.4721 40.525 48.3565L40.525 6.62246C40.525 2.50684 37.9992 0.0363278 33.7893 0.0363278L6.73574 0.0363278C2.53184 0.0363278 0 2.50684 0 6.62246ZM2.64571 47.9852L2.64571 6.99375C2.64571 4.19922 4.18379 2.68204 7.0127 2.68204L33.4988 2.68204C36.3277 2.68204 37.8658 4.19922 37.8658 6.99375L37.8658 47.9852C37.8658 50.7662 36.3277 52.2834 33.4988 52.2834L7.0127 52.2834C4.18379 52.2834 2.64571 50.7662 2.64571 47.9852ZM13.3207 50.3633L27.2178 50.3633C27.7264 50.3633 28.115 49.9881 28.115 49.4525C28.115 48.9244 27.7264 48.5492 27.2178 48.5492L13.3207 48.5492C12.7986 48.5492 12.4234 48.9244 12.4234 49.4525C12.4234 49.9881 12.7986 50.3633 13.3207 50.3633Z" fill="#000000" fill-opacity="0.85"/>
 </g>
</svg>
