<?xml version="1.0" encoding="UTF-8"?>
<!--Generator: Apple Native CoreSVG 326-->
<!DOCTYPE svg
PUBLIC "-//W3C//DTD SVG 1.1//EN"
       "http://www.w3.org/Graphics/SVG/1.1/DTD/svg11.dtd">
<svg version="1.1" xmlns="http://www.w3.org/2000/svg" xmlns:xlink="http://www.w3.org/1999/xlink" viewBox="0 0 36.4258 58.7695">
 <g>
  <rect height="58.7695" opacity="0" width="36.4258" x="0" y="0"/>
  <path d="M0 47.1484C0 54.4531 6.69922 58.7695 18.0273 58.7695C29.3555 58.7695 36.0547 54.4531 36.0547 47.1484L36.0547 11.6211C36.0547 8.59375 34.8828 6.13281 32.8711 4.43359C32.0703 3.61328 31.0938 3.63281 30.7031 4.41406C29.668 7.42188 24.1016 9.12109 18.0273 9.12109C11.9727 9.12109 6.38672 7.42188 5.37109 4.41406C4.96094 3.63281 4.00391 3.61328 3.20312 4.43359C1.17188 6.13281 0 8.59375 0 11.6211ZM18.0273 6.38672C23.6719 6.38672 28.2812 4.98047 28.2812 3.20312C28.2812 1.46484 23.6719 0.0390625 18.0273 0.0390625C12.3828 0.0390625 7.79297 1.46484 7.79297 3.20312C7.79297 4.98047 12.3828 6.38672 18.0273 6.38672Z" fill="black" fill-opacity="0.85"/>
 </g>
</svg>
