<?xml version="1.0" encoding="UTF-8"?>
<!--Generator: Apple Native CoreSVG 232.5-->
<!DOCTYPE svg
PUBLIC "-//W3C//DTD SVG 1.1//EN"
       "http://www.w3.org/Graphics/SVG/1.1/DTD/svg11.dtd">
<svg version="1.1" xmlns="http://www.w3.org/2000/svg" xmlns:xlink="http://www.w3.org/1999/xlink" width="26.7486" height="41.9594">
 <g>
  <rect height="41.9594" opacity="0" width="26.7486" x="0" y="0"/>
  <path d="M16.1805 0.145508C8.72676 0.0808597 0 7.58438 0 14.5594C0 20.3207 5.69199 24.9922 10.5756 24.9531C17.2979 24.9201 26.3775 17.0785 26.3775 10.8188C26.3775 4.76309 21.7443 0.178516 16.1805 0.145508ZM8.32871 21.7074C6.97832 21.7074 4.90996 20.0432 3.64981 17.9674C2.35801 15.8465 2.4166 14.1957 3.75488 14.1957C5.07227 14.1957 7.14805 15.8465 8.41426 17.9674C9.68653 20.0432 9.62793 21.7074 8.32871 21.7074ZM15.0477 10.9373C14.3539 9.98086 14.6139 8.61289 15.5582 7.9252L18.9742 5.42988C19.9488 4.7166 21.3229 4.9584 21.991 5.95391C22.7568 6.94942 22.5527 8.27696 21.5391 9.00977L18.1049 11.4283C17.0777 12.1551 15.7037 11.9584 15.0477 10.9373ZM17.5287 41.9594L20.5178 41.9594C21.8811 41.9594 22.6342 41.2945 22.6342 40.0518L22.6342 21.6732C20.4916 23.6313 17.9738 25.2275 15.3988 26.1455L15.3988 40.0518C15.3988 41.2945 16.1775 41.9594 17.5287 41.9594Z" fill="#000000" fill-opacity="0.85"/>
 </g>
</svg>
