<?xml version="1.0" encoding="UTF-8"?>
<!--Generator: Apple Native CoreSVG 232.5-->
<!DOCTYPE svg
PUBLIC "-//W3C//DTD SVG 1.1//EN"
       "http://www.w3.org/Graphics/SVG/1.1/DTD/svg11.dtd">
<svg version="1.1" xmlns="http://www.w3.org/2000/svg" xmlns:xlink="http://www.w3.org/1999/xlink" width="42.3047" height="68.6523">
 <g>
  <rect height="68.6523" opacity="0" width="42.3047" x="0" y="0"/>
  <path d="M8.32031 9.94141L8.32031 12.5586C8.32031 15.4883 10.3711 17.5586 13.2422 17.5586L28.6914 17.5586C31.5625 17.5586 33.6133 15.4883 33.6133 12.5586L33.6133 9.94141C33.6133 9.74859 33.6043 9.55946 33.5853 9.375L34.4141 9.375C39.4141 9.375 41.9336 11.9336 41.9336 16.9922L41.9336 55.625C41.9336 60.6836 39.4141 63.2227 34.4141 63.2227L7.51953 63.2227C2.51953 63.2227 0 60.6836 0 55.625L0 16.9922C0 11.9336 2.51953 9.375 7.51953 9.375L8.34825 9.375C8.32932 9.55946 8.32031 9.74859 8.32031 9.94141ZM9.375 46.5039C8.57422 46.5039 7.94922 47.1289 7.94922 47.9102C7.94922 48.6719 8.59375 49.3359 9.375 49.3359L21.4062 49.3359C22.168 49.3359 22.8125 48.6719 22.8125 47.9102C22.8125 47.1289 22.1875 46.5039 21.4062 46.5039ZM9.375 36.7383C8.57422 36.7383 7.94922 37.3633 7.94922 38.1445C7.94922 38.9258 8.57422 39.5508 9.375 39.5508L32.5586 39.5508C33.3594 39.5508 33.9844 38.9258 33.9844 38.1445C33.9844 37.3633 33.3594 36.7383 32.5586 36.7383ZM9.375 27.4609C8.59375 27.4609 7.94922 28.1055 7.94922 28.9062C7.94922 29.668 8.59375 30.3125 9.375 30.3125L32.5586 30.3125C33.3398 30.3125 33.9844 29.668 33.9844 28.9062C33.9844 28.1055 33.3398 27.4609 32.5586 27.4609Z" fill="#000000" fill-opacity="0.85"/>
  <path d="M26.1719 7.67578L28.6914 7.67578C30.0586 7.67578 30.8984 8.51562 30.8984 9.94141L30.8984 12.5586C30.8984 13.9844 30.0586 14.8242 28.6914 14.8242L13.2422 14.8242C11.875 14.8242 11.0352 13.9844 11.0352 12.5586L11.0352 9.94141C11.0352 8.51562 11.875 7.67578 13.2422 7.67578L15.7617 7.67578C15.8984 4.94141 18.1836 2.71484 20.9766 2.71484C23.75 2.71484 26.0352 4.94141 26.1719 7.67578ZM18.7305 7.83203C18.7305 9.02344 19.7266 10.0586 20.9766 10.0586C22.207 10.0586 23.2031 9.02344 23.2031 7.83203C23.2031 6.58203 22.207 5.58594 20.9766 5.58594C19.7266 5.58594 18.7305 6.58203 18.7305 7.83203Z" fill="#000000" fill-opacity="0.85"/>
 </g>
</svg>
