<?xml version="1.0" encoding="UTF-8"?>
<!--Generator: Apple Native CoreSVG 232.5-->
<!DOCTYPE svg
PUBLIC "-//W3C//DTD SVG 1.1//EN"
       "http://www.w3.org/Graphics/SVG/1.1/DTD/svg11.dtd">
<svg version="1.1" xmlns="http://www.w3.org/2000/svg" xmlns:xlink="http://www.w3.org/1999/xlink" width="76.875" height="25.5664">
 <g>
  <rect height="25.5664" opacity="0" width="76.875" x="0" y="0"/>
  <path d="M38.2617 8.82812C39.2578 8.82812 40.0586 9.39453 40.5078 10.4102L43.2227 16.3867C46.1719 22.8125 51.5039 25.5273 57.4805 25.5273C66.1719 25.5273 72.2852 20.2539 73.6328 10.8008L74.1016 7.5C74.5508 4.33594 76.5039 3.20312 76.5039 1.81641C76.5039 0.703125 75.7031 0 74.1406 0C66.3086 0 59.2383 0.390625 55 1.03516C46.1328 2.34375 42.6172 4.62891 38.2617 4.62891C33.8867 4.62891 30.3711 2.34375 21.5039 1.03516C17.2852 0.390625 10.2148 0 2.36328 0C0.820312 0 0 0.703125 0 1.81641C0 3.20312 1.95312 4.33594 2.42188 7.5L2.89062 10.8008C4.21875 20.2539 10.332 25.5273 19.043 25.5273C25 25.5273 30.3516 22.8125 33.2812 16.3867L35.9961 10.4102C36.4648 9.39453 37.2656 8.82812 38.2617 8.82812Z" fill="#000000" fill-opacity="0.85"/>
 </g>
</svg>
