<?xml version="1.0" encoding="UTF-8"?>
<!--Generator: Apple Native CoreSVG 232.5-->
<!DOCTYPE svg
PUBLIC "-//W3C//DTD SVG 1.1//EN"
       "http://www.w3.org/Graphics/SVG/1.1/DTD/svg11.dtd">
<svg version="1.1" xmlns="http://www.w3.org/2000/svg" xmlns:xlink="http://www.w3.org/1999/xlink" width="69.9522" height="39.0887">
 <g>
  <rect height="39.0887" opacity="0" width="69.9522" x="0" y="0"/>
  <path d="M10.3563 34.6381L10.3563 5.6875C10.3563 3.67266 11.3637 2.69083 13.365 2.69083L56.216 2.69083C58.2174 2.69083 59.2248 3.67266 59.2248 5.6875L59.2248 34.6381Z" fill="#000000" fill-opacity="0.2125"/>
  <path d="M0 36.8604C0 38.118 0.951173 39.0887 2.18926 39.0887L67.3858 39.0887C68.6299 39.0887 69.5811 38.118 69.5811 36.8604C69.5811 35.6088 68.6299 34.6381 67.3858 34.6381L61.8705 34.6381L61.8705 5.09043C61.8705 1.76191 60.1328 0.0451171 56.7983 0.0451171L12.7768 0.0451171C9.54395 0.0451171 7.71055 1.76191 7.71055 5.09043L7.71055 34.6381L2.18926 34.6381C0.951173 34.6381 0 35.6088 0 36.8604ZM10.3563 34.6381L10.3563 5.6875C10.3563 3.67266 11.3637 2.69083 13.365 2.69083L56.216 2.69083C58.2174 2.69083 59.2248 3.67266 59.2248 5.6875L59.2248 34.6381Z" fill="#000000" fill-opacity="0.85"/>
 </g>
</svg>
