<?xml version="1.0" encoding="UTF-8"?>
<!--Generator: Apple Native CoreSVG 326-->
<!DOCTYPE svg
PUBLIC "-//W3C//DTD SVG 1.1//EN"
       "http://www.w3.org/Graphics/SVG/1.1/DTD/svg11.dtd">
<svg version="1.1" xmlns="http://www.w3.org/2000/svg" xmlns:xlink="http://www.w3.org/1999/xlink" viewBox="0 0 51.25 50.918">
 <g>
  <rect height="50.918" opacity="0" width="51.25" x="0" y="0"/>
  <path d="M25.4297 50.8789C39.4727 50.8789 50.8789 39.4922 50.8789 25.4492C50.8789 11.4062 39.4727 0 25.4297 0C11.3867 0 0 11.4062 0 25.4492C0 39.4922 11.3867 50.8789 25.4297 50.8789ZM25.4297 47.2461C13.3789 47.2461 3.63281 37.5 3.63281 25.4492C3.63281 13.3984 13.3789 3.65234 25.4297 3.65234C37.4805 3.65234 47.2266 13.3984 47.2266 25.4492C47.2266 37.5 37.4805 47.2461 25.4297 47.2461Z" fill="black" fill-opacity="0.85"/>
  <path d="M14.1016 34.5508L36.7578 34.5508C37.8516 34.5508 38.5156 33.9648 38.5156 33.0859C38.5156 31.6797 37.1484 30.4688 35.9375 29.2188C34.8438 28.0469 34.7461 25.7031 34.5703 23.7109C34.375 18.7695 32.9297 15.293 29.3359 14.0625C28.8281 12.207 27.4023 10.8008 25.4297 10.8008C23.457 10.8008 22.0312 12.207 21.543 14.0625C17.9297 15.293 16.5039 18.7695 16.3086 23.7109C16.1133 25.7031 15.9766 28.0469 14.9219 29.2188C13.75 30.4883 12.3633 31.6797 12.3633 33.0859C12.3633 33.9648 13.0078 34.5508 14.1016 34.5508ZM25.4297 40.2148C27.7344 40.2148 29.3945 38.6133 29.5898 36.5625L21.2695 36.5625C21.4844 38.6133 23.125 40.2148 25.4297 40.2148Z" fill="black" fill-opacity="0.85"/>
 </g>
</svg>
